<svg width="40" height="29" fill="none" xmlns="http://www.w3.org/2000/svg"><g clip-path="url(#clip0)" fill-rule="evenodd" clip-rule="evenodd" fill="#008EB3"><path d="M25.854 11.623c-.572-1.531-.114-2.76.79-3.062 1.099-.36 2.666.394 2.78 1.798a2.191 2.191 0 0 0-.651-.87c-1.763-1.485-3.377-.36-2.919 2.134zm4.406-.638c.824.012 2.415.8 2.21 2.83l-.459-.139c.252-1.948-.984-2.204-1.75-2.69z"/><path d="M26.976 13.108c-.973.174-2.163-.244-2.633-1.636.973 1.798 3.88 2.1 3.342-.95.046.15.08.29.115.44.011.035.377-.197.595-.476-.206.569-.538.662-.538.708.137.928-.126 1.775-.881 1.914zm-1.786-2.146c-2.38.986-3.914-1.485-3.181-3.468.961-2.645 4.177-1.891 4.463.301-.217-.94-1.03-1.496-1.58-1.647-1.316-.36-2.494.824-2.632 1.949-.091.765-.126 1.775.962 2.68.4.301 1.167.533 1.968.185z"/><path d="M24.984 8.364c-.343.023-.55.116-.526.162.023.081.355-.046.526-.162zM23.37 9.895c.24-.244.321-.522.275-.545-.08-.035-.229.336-.274.545zm1.97-1.218c-.195.336-.55.51-.55.51.355-.058.526-.29.55-.51zM24.195 9.71c-.23.475-.596.556-.596.556a.62.62 0 0 0 .596-.557zm5.218 3.2c-.16-.092-1.018-.104-1.407.175l.675.023c.195-.14.504-.174.732-.197zm2.312 8.608c2.22.557 6.593 1.728 8.275 5.51l-.183 1.485c-1.545-5.255-6.535-6.415-8.092-6.995zm-.297-.093c-4.303-.8-7.611-1.403-9.042-2.505-1.43-1.102-3.479-3.805-6.088-7.575 2.746 2.911 4.646 5.939 6.466 7.273 1.831 1.334 5.94 1.984 8.664 2.807zm2.449-7.54c5.574 1.38 6.466 7.215 5.951 12.25l-.355-.766c.607-5.266-.663-10.08-5.596-11.484zM19.422 11.31c-.252-.545-.32-.661-.446-1.056-.344-.997-.561-2.1-.195-2.122.355-.024.95.255 1.488 1.009.55.765 1.03 1.995 1.362 3.352-.56-1.728-1.408-3.747-2.667-3.63-.263.023-.137.695.458 2.447zm2.449.847c-.263-1.404-.286-1.88-.114-2.077.217-.243 1.396.963 1.373 2.866-.114-1.288-.801-2.158-1.156-2.135-.183.023-.114.383-.103 1.346z"/><path d="M24.675 14.013c-.469-1.346 6.135-1.137 8.79-.197-1.946-.592-8.034-.766-8.79.197z"/><path d="M16.332 11.043c.698-1.357 2.335.418 3.903 1.926.847.812 1.625 1.577 1.946 1.89.71.685 1.625 1.427 2.266 1.857 1.66 1.102 4.898 1.74 6.89.278-2.255 1.195-4.979.603-6.673-.406-2.598-1.554-6.088-6.078-7.6-6.264-.205-.023-.8.035-.732.72z"/><path d="M24.652 14.14c-.057.604.71.963 1.992 1.149 1.602.232 3.548.197 4.44.545.481.186.424.684.378.951.172-.383.126-.73-.069-.916-.846-.812-5.7-.22-6.74-1.729zM10.587 5C8.64 6.218 4.75 8.55.916 7.11L0 5.94C4.773 8.513 9.099 5.718 10.587 5zm.274-.151C14.443 2.297 17.18.325 18.964.069c1.786-.255 5.116.151 9.603.917-3.972-.058-7.44-.8-9.648-.43-2.232.384-5.563 2.9-8.058 4.293zm3.594 7.053c-4.6.974-6.135 1.009-10.838-1.752l.87-.046c4.863 3.016 5.184 2.482 9.968 1.798zM26.403 3.26c.561.208.687.232 1.053.417.939.453 1.866 1.067 1.637 1.346-.229.267-.847.51-1.751.371-.916-.14-2.129-.65-3.308-1.357 1.614.812 3.617 1.612 4.418.626.16-.22-.412-.615-2.049-1.403zM24.08 4.443c1.168.8 1.522 1.102 1.534 1.369.011.324-1.66.336-2.987-1.01.984.824 2.083.94 2.312.662.137-.151-.172-.36-.859-1.021zm-3.273.719c1.282.603-3.49 5.232-6.032 6.484 1.797-.986 6.18-5.266 6.032-6.484z"/><path d="M28.75 1.206c.469 1.462-1.934 1.392-4.098 1.462-1.156.035-2.254.07-2.69.081-.983.023-2.15.174-2.895.337-1.934.429-4.658 2.32-5.024 4.79.744-2.47 3.067-4.025 4.967-4.535 2.918-.789 8.55-.14 9.728-1.102.16-.128.538-.592.012-1.033z"/><path d="M20.738 5.058c-.389-.464-1.167-.163-2.209.626-1.293 1.01-2.62 2.436-3.49 2.842-.47.22-.779-.174-.939-.394.149.394.435.603.687.591 1.179-.046 4.154-3.967 5.951-3.665z"/></g><defs><clipPath id="clip0"><path fill="#fff" d="M0 0h40v29H0z"/></clipPath></defs></svg>