<svg width="100" height="72" fill="none" xmlns="http://www.w3.org/2000/svg"><g clip-path="url(#clip0)" fill-rule="evenodd" clip-rule="evenodd" fill="#F4656D"><path d="M64.635 28.685c-1.43-3.779-.286-6.813 1.974-7.558 2.747-.887 6.667.974 6.953 4.438-.486-1.06-.973-1.603-1.63-2.147-4.407-3.665-8.441-.888-7.297 5.267zm11.016-1.575c2.06.03 6.038 1.976 5.523 6.986l-1.145-.344c.63-4.81-2.46-5.439-4.378-6.641z"/><path d="M67.44 32.35c-2.433.429-5.408-.602-6.582-4.037 2.432 4.437 9.7 5.182 8.355-2.347.115.372.2.715.286 1.087.029.086.945-.486 1.488-1.173-.515 1.402-1.345 1.632-1.345 1.746.344 2.29-.314 4.38-2.203 4.724zm-4.464-5.297c-5.951 2.434-9.785-3.664-7.954-8.56 2.403-6.526 10.443-4.666 11.158.745-.543-2.319-2.575-3.693-3.948-4.065-3.29-.888-6.237 2.032-6.58 4.81-.23 1.889-.316 4.38 2.403 6.612 1.001.745 2.918 1.317 4.92.459z"/><path d="M62.461 20.64c-.858.058-1.373.287-1.316.401.057.2.887-.114 1.316-.4zm-4.034 3.78c.6-.602.8-1.289.687-1.346-.2-.086-.573.83-.687 1.346zm4.921-3.006c-.486.83-1.373 1.26-1.373 1.26.887-.144 1.316-.716 1.373-1.26zm-2.861 2.548c-.572 1.173-1.488 1.374-1.488 1.374 1.002-.057 1.43-.83 1.488-1.374zm13.047 7.901c-.4-.23-2.547-.258-3.52.43l1.689.057c.486-.344 1.259-.43 1.83-.487zm5.78 21.242c5.55 1.374 16.48 4.266 20.686 13.598l-.458 3.665C95.68 57.399 83.205 54.536 79.314 53.105zm-.744-.229c-10.76-1.976-19.028-3.464-22.604-6.184-3.577-2.72-8.698-9.39-15.222-18.694 6.867 7.186 11.617 14.658 16.166 17.95 4.578 3.292 14.85 4.895 21.66 6.928zm6.122-18.608c13.935 3.407 16.166 17.806 14.879 30.23l-.887-1.889c1.516-12.997-1.66-24.877-13.992-28.341zm-36.137-6.356c-.63-1.345-.8-1.631-1.115-2.605-.859-2.462-1.402-5.181-.487-5.239.887-.057 2.375.63 3.72 2.49 1.373 1.89 2.575 4.925 3.404 8.274-1.401-4.265-3.519-9.247-6.666-8.96-.658.057-.343 1.718 1.144 6.04zm6.123 2.09c-.658-3.464-.715-4.638-.286-5.124.544-.602 3.49 2.376 3.434 7.07-.287-3.177-2.003-5.324-2.89-5.267-.458.058-.286.945-.258 3.321z"/><path d="M61.688 34.583c-1.173-3.321 15.337-2.806 21.975-.487-4.864-1.46-20.086-1.89-21.975.487z"/><path d="M40.83 27.254c1.745-3.35 5.837 1.03 9.757 4.752 2.117 2.004 4.063 3.894 4.864 4.666 1.774 1.69 4.063 3.522 5.665 4.581 4.149 2.72 12.246 4.294 17.225.687-5.637 2.949-12.447 1.489-16.681-1.002-6.495-3.836-15.222-15.001-18.999-15.46-.515-.056-2.003.087-1.83 1.776z"/><path d="M61.631 34.898c-.143 1.488 1.774 2.376 4.979 2.834 4.005.572 8.87.486 11.101 1.345 1.202.458 1.059 1.69.944 2.348.43-.945.315-1.804-.171-2.262-2.118-2.004-14.25-.544-16.853-4.265zM26.466 12.339c-4.864 3.006-14.592 8.76-24.177 5.21L0 14.658c11.931 6.355 22.747-.544 26.466-2.32zm.687-.373C36.11 5.668 42.947.801 47.411.171c4.463-.63 12.79.373 24.005 2.262-9.928-.143-18.597-1.975-24.12-1.06-5.579.945-13.905 7.158-20.143 10.593zm8.984 17.406c-11.502 2.405-15.336 2.491-27.096-4.323l2.175-.114c12.16 7.443 12.961 6.126 24.921 4.437zM66.009 8.044c1.402.516 1.716.573 2.632 1.031 2.346 1.117 4.664 2.634 4.092 3.321-.573.658-2.118 1.26-4.378.916-2.29-.343-5.322-1.603-8.27-3.35 4.035 2.005 9.042 3.98 11.045 1.546.4-.543-1.03-1.517-5.121-3.464zm-5.809 2.92c2.919 1.976 3.806 2.72 3.834 3.379.029.801-4.149.83-7.468-2.491 2.461 2.033 5.208 2.319 5.78 1.632.343-.372-.43-.888-2.146-2.52zm-8.183 1.776c3.205 1.488-8.727 12.91-15.079 16.002 4.493-2.433 15.451-12.997 15.08-16.003z"/><path d="M71.874 2.977c1.173 3.607-4.835 3.436-10.243 3.607-2.89.086-5.637.172-6.724.2-2.46.058-5.379.43-7.239.831-4.835 1.06-11.645 5.726-12.56 11.823 1.86-6.097 7.668-9.934 12.417-11.193 7.296-1.947 21.374-.344 24.32-2.72.401-.315 1.345-1.46.03-2.548z"/><path d="M51.846 12.482c-.973-1.145-2.919-.401-5.522 1.546-3.234 2.49-6.553 6.012-8.727 7.013-1.173.544-1.946-.429-2.346-.973.371.973 1.087 1.489 1.716 1.46 2.947-.114 10.386-9.79 14.879-9.046z"/></g><defs><clipPath id="clip0"><path fill="#fff" d="M0 0h100v71.57H0z"/></clipPath></defs></svg>