<svg width="20" height="16" viewBox="0 0 20 16" fill="none" xmlns="http://www.w3.org/2000/svg">
<path d="M20 0.616364L19.3808 2.28303H17.7733L14.8783 12.283H3.84583L0 3.11636H14.01L13.54 4.78303H2.50667L4.95417 10.6164H13.6442L16.5042 0.616364H20V0.616364ZM7.08333 13.1164C6.39333 13.1164 5.83333 13.6764 5.83333 14.3664C5.83333 15.0572 6.39333 15.6164 7.08333 15.6164C7.77333 15.6164 8.33333 15.0572 8.33333 14.3664C8.33333 13.6764 7.77333 13.1164 7.08333 13.1164ZM12.8333 7.28303L11.25 13.1164C10.56 13.1164 10 13.6755 10 14.3664C10 15.0572 10.56 15.6164 11.25 15.6164C11.94 15.6164 12.5 15.0572 12.5 14.3664C12.5 13.6764 11.94 13.1164 11.25 13.1164L12.8333 7.28303Z" fill="#008EB3"/>
</svg>
