<svg width="141" height="141" viewBox="0 0 141 141" fill="none" xmlns="http://www.w3.org/2000/svg">
<path d="M66.1878 41.125L141 25.7031L140.953 25.4564L135.031 0L10.6631 24.6515C4.47088 25.8794 0 31.3137 0 37.6176V123.375C0 133.11 7.89013 141 17.625 141H123.375C133.11 141 141 133.11 141 123.375V41.125H66.1878ZM118.146 10.3224L132.223 19.7459L114.633 23.2415L100.545 13.8121L118.146 10.3224ZM83.4955 17.1903L97.5955 26.6255L80.0058 30.1211L65.8999 20.68L83.4955 17.1903ZM48.8095 24.0699L62.9271 33.5169L45.3433 37.0125L31.208 27.5538L48.8095 24.0699ZM33.7989 58.75L45.778 47H63.7202L51.7411 58.75H33.7989ZM58.75 117.5V76.375L94 96.4323L58.75 117.5ZM87.1086 58.75H69.1664L81.1455 47H99.0877L87.1086 58.75ZM122.429 58.75H104.487L116.466 47H134.408L122.429 58.75Z" fill="#A6DCEE"/>
</svg>
