<?xml version="1.0" encoding="utf-8"?>
<!-- Generator: Adobe Illustrator 19.0.0, SVG Export Plug-In . SVG Version: 6.00 Build 0)  -->
<svg version="1.1" id="Слой_1" xmlns="http://www.w3.org/2000/svg" xmlns:xlink="http://www.w3.org/1999/xlink" x="0px" y="0px"
	 viewBox="-1606 1612 26 18" style="enable-background:new -1606 1612 26 18;" xml:space="preserve">
<style type="text/css">
	.st0{fill:#209CBD;}
</style>
<path class="st0" d="M-1600.9,1625.9c-3.5-2.1-5.1-4.9-5.1-4.9s4-7,13-7c1.3,0,2.5,0.1,3.6,0.4l-0.8,0.8c-0.9-0.2-1.8-0.2-2.8-0.2
	c-8,0-11.8,6-11.8,6s1.5,2.4,4.6,4.2L-1600.9,1625.9z M-1596.6,1627.6c1.1,0.3,2.3,0.4,3.6,0.4c9,0,13-7,13-7s-1.6-2.8-5.1-4.9
	l-0.7,0.7c3.1,1.8,4.6,4.2,4.6,4.2s-3.8,6-11.8,6c-1,0-1.9-0.1-2.8-0.2L-1596.6,1627.6z M-1589.1,1620.1c0.1,0.3,0.1,0.6,0.1,0.9
	c0,2.2-1.8,4-4,4c-0.3,0-0.6,0-0.9-0.1l0.9-0.9c0.8,0,1.5-0.3,2.1-0.9s0.9-1.4,0.9-2.1L-1589.1,1620.1z M-1592.1,1617.1
	c-0.3-0.1-0.6-0.1-0.9-0.1c-2.2,0-4,1.8-4,4c0,0.3,0,0.6,0.1,0.9l0.9-0.9c0-0.8,0.3-1.5,0.9-2.1s1.4-0.9,2.1-0.9L-1592.1,1617.1z
	 M-1585,1612l-17,17l1,1l17-17L-1585,1612z"/>
</svg>
