<svg width="24" height="24" viewBox="0 0 24 24" fill="none" xmlns="http://www.w3.org/2000/svg">
<g clip-path="url(#clip0)">
<path d="M10.8533 11.9197L0.230309 22.5427C-0.0648164 22.8378 -0.0648164 23.3159 0.230309 23.6111C0.377684 23.7588 0.571184 23.8323 0.764309 23.8323C0.957809 23.8323 1.15093 23.7588 1.29831 23.6111L12.0012 12.9082L22.7041 23.6111C22.8518 23.7588 23.0449 23.8323 23.2381 23.8323C23.4312 23.8323 23.6247 23.7588 23.7721 23.6111C24.0672 23.3159 24.0672 22.8378 23.7721 22.5427L13.1494 11.9197L23.7792 1.28918C24.0743 0.994053 24.0743 0.515928 23.7792 0.220803C23.4841 -0.0739469 23.0059 -0.0739469 22.7112 0.220803L12.0016 10.9312L1.29081 0.221178C0.995684 -0.0735719 0.517934 -0.0735719 0.222809 0.221178C-0.0723164 0.516303 -0.0723164 0.994428 0.222809 1.28955L10.8533 11.9197Z" fill="#F4656D"/>
</g>
<defs>
<clipPath id="clip0">
<rect width="24" height="24" fill="white"/>
</clipPath>
</defs>
</svg>
