<svg width="32" height="32" viewBox="0 0 32 32" fill="none" xmlns="http://www.w3.org/2000/svg">
<path d="M28.376 11.4462H27.6076V7.73872C27.6076 7.71544 27.604 7.69232 27.6009 7.66869C27.5997 7.52149 27.5528 7.37687 27.452 7.26248L21.2823 0.214485C21.2804 0.212675 21.2786 0.212033 21.2774 0.210224C21.2406 0.169136 21.1978 0.134819 21.1523 0.105404C21.1389 0.0962409 21.1254 0.088712 21.1113 0.0809497C21.0721 0.0596472 21.0304 0.0417297 20.9876 0.0288314C20.9759 0.0257965 20.9654 0.0210107 20.9539 0.0178591C20.9072 0.00688685 20.8589 0 20.8099 0H5.64685C4.95449 0 4.39199 0.563146 4.39199 1.25492V11.4459H3.62369C2.63321 11.4459 1.83008 12.2487 1.83008 13.2394V22.5664C1.83008 23.5566 2.63321 24.3603 3.62369 24.3603H4.39199V30.7451C4.39199 31.437 4.95449 32 5.64685 32H26.3527C27.0445 32 27.6076 31.437 27.6076 30.7451V24.3603H28.376C29.3662 24.3603 30.1694 23.557 30.1694 22.5668V13.2397C30.1695 12.2491 29.3662 11.4462 28.376 11.4462ZM5.64685 1.25522H20.1824V7.67552C20.1824 8.02219 20.4636 8.30298 20.8099 8.30298H26.3528V11.4465H5.64685V1.25522ZM21.451 19.6011C21.9088 19.6011 22.4168 19.5018 22.7155 19.3817L22.9441 20.5665C22.6658 20.7052 22.0389 20.8554 21.2228 20.8554C18.9029 20.8554 17.7091 19.4121 17.7091 17.5011C17.7091 15.2118 19.3414 13.9378 21.372 13.9378C22.1579 13.9378 22.7555 14.0975 23.0243 14.2365L22.7159 15.4411C22.4073 15.3112 21.9796 15.1923 21.4417 15.1923C20.237 15.1923 19.3019 15.9186 19.3019 17.4117C19.3016 18.7542 20.0979 19.6011 21.451 19.6011ZM17.0213 17.3321C17.0213 19.5315 15.6874 20.8652 13.727 20.8652C11.7361 20.8652 10.5715 19.3619 10.5715 17.4513C10.5715 15.4409 11.8552 13.9375 13.8364 13.9375C15.8974 13.9375 17.0213 15.4807 17.0213 17.3321ZM3.95216 20.7262V14.1368C4.50965 14.0474 5.23609 13.9982 6.00246 13.9982C7.27653 13.9982 8.10243 14.2267 8.74874 14.7146C9.44589 15.2319 9.8842 16.0582 9.8842 17.2424C9.8842 18.526 9.4163 19.4124 8.76917 19.9596C8.06233 20.5466 6.98746 20.8257 5.67329 20.8257C4.88767 20.8254 4.33024 20.7754 3.95216 20.7262ZM26.3528 30.4053H5.64685V24.3603H26.3527V30.4053H26.3528ZM27.5032 20.7555L26.8957 19.5413C26.6469 19.0737 26.4876 18.7248 26.2985 18.3369H26.2786C26.1392 18.7254 25.9704 19.0737 25.7614 19.5413L25.2039 20.7555H23.472L25.4128 17.3612L23.5421 14.047H25.2841L25.8711 15.2717C26.0703 15.679 26.2192 16.0079 26.3786 16.386H26.3981C26.5574 15.9581 26.6873 15.6596 26.8559 15.2717L27.4232 14.047H29.1556L27.2643 17.3214L29.2548 20.7555H27.5032Z" fill="#008EB3"/>
<path d="M8.27148 17.2918C8.28111 15.8987 7.46525 15.1619 6.16166 15.1619C5.82274 15.1619 5.60418 15.1919 5.47461 15.2218V19.6107C5.60453 19.6404 5.81346 19.6404 6.00262 19.6404C7.37613 19.6509 8.27148 18.8948 8.27148 17.2918Z" fill="#008EB3"/>
<path d="M12.1738 17.4212C12.1738 18.7352 12.791 19.6607 13.8062 19.6607C14.8315 19.6607 15.418 18.6859 15.418 17.3819C15.418 16.1772 14.8411 15.1421 13.7954 15.1421C12.7705 15.1424 12.1738 16.1179 12.1738 17.4212Z" fill="#008EB3"/>
</svg>
