<svg width="20" height="21" viewBox="0 0 20 21" fill="none" xmlns="http://www.w3.org/2000/svg">
<path d="M16.6667 17.552H13.3333V14.2186H16.6667V17.552ZM11.6667 9.21862H8.33333V12.552H11.6667V9.21862ZM16.6667 9.21862H13.3333V12.552H16.6667V9.21862ZM6.66667 14.2186H3.33333V17.552H6.66667V14.2186ZM11.6667 14.2186H8.33333V17.552H11.6667V14.2186ZM6.66667 9.21862H3.33333V12.552H6.66667V9.21862ZM20 2.55195V20.8853H0V2.55195H2.5V3.38528C2.5 4.30445 3.2475 5.05195 4.16667 5.05195C5.08583 5.05195 5.83333 4.30445 5.83333 3.38528V2.55195H14.1667V3.38528C14.1667 4.30445 14.9142 5.05195 15.8333 5.05195C16.7525 5.05195 17.5 4.30445 17.5 3.38528V2.55195H20ZM18.3333 7.55195H1.66667V19.2186H18.3333V7.55195ZM16.6667 1.71862C16.6667 1.25862 16.2942 0.885284 15.8333 0.885284C15.3725 0.885284 15 1.25862 15 1.71862V3.38528C15 3.84528 15.3725 4.21862 15.8333 4.21862C16.2942 4.21862 16.6667 3.84528 16.6667 3.38528V1.71862ZM5 3.38528C5 3.84528 4.6275 4.21862 4.16667 4.21862C3.70583 4.21862 3.33333 3.84528 3.33333 3.38528V1.71862C3.33333 1.25862 3.70583 0.885284 4.16667 0.885284C4.6275 0.885284 5 1.25862 5 1.71862V3.38528Z" fill="#008EB3"/>
</svg>
