<?xml version="1.0" encoding="utf-8"?>
<!-- Generator: Adobe Illustrator 19.0.0, SVG Export Plug-In . SVG Version: 6.00 Build 0)  -->
<svg version="1.1" id="Слой_1" xmlns="http://www.w3.org/2000/svg" xmlns:xlink="http://www.w3.org/1999/xlink" x="0px" y="0px"
	 viewBox="0 0 512 512" style="enable-background:new 0 0 512 512;" xml:space="preserve">
<style type="text/css">
	.st0{clip-path:url(#SVGID_2_);fill-rule:evenodd;clip-rule:evenodd;fill:#157EFB;}
</style>
<g>
	<defs>
		<rect id="SVGID_1_" width="512" height="512"/>
	</defs>
	<clipPath id="SVGID_2_">
		<use xlink:href="#SVGID_1_"  style="overflow:visible;"/>
	</clipPath>
	<path class="st0" d="M256,272c8.8,0,16-7.2,16-16s-7.2-16-16-16s-16,7.2-16,16S247.2,272,256,272z M256,304c26.5,0,48-21.5,48-48
		s-21.5-48-48-48s-48,21.5-48,48S229.5,304,256,304z M256,320c35.3,0,64-28.7,64-64s-28.7-64-64-64s-64,28.7-64,64
		S220.7,320,256,320z M256,160c-128,0-188.8,96-188.8,96S128,352,256,352c128,0,188.8-96,188.8-96S384,160,256,160z M256,144
		C112,144,48,256,48,256s64,112,208,112s208-112,208-112S400,144,256,144z"/>
</g>
</svg>
