<svg width="24" height="24" viewBox="0 0 24 24" fill="none" xmlns="http://www.w3.org/2000/svg">
<path d="M20 0H4C1.79086 0 0 1.79086 0 4V20C0 22.2091 1.79086 24 4 24H20C22.2091 24 24 22.2091 24 20V4C24 1.79086 22.2091 0 20 0Z" fill="#008EB3"/>
<path d="M15.4988 5.00291L13.6834 5C11.6438 5 10.3257 6.35233 10.3257 8.44542V10.034H8.50031C8.34257 10.034 8.21484 10.1619 8.21484 10.3196V12.6213C8.21484 12.779 8.34272 12.9067 8.50031 12.9067H10.3257V18.7145C10.3257 18.8723 10.4534 19 10.6111 19H12.9927C13.1505 19 13.2782 18.8721 13.2782 18.7145V12.9067H15.4125C15.5702 12.9067 15.6979 12.779 15.6979 12.6213L15.6988 10.3196C15.6988 10.2439 15.6687 10.1713 15.6152 10.1177C15.5618 10.0641 15.4889 10.034 15.4132 10.034H13.2782V8.68734C13.2782 8.04008 13.4324 7.71151 14.2756 7.71151L15.4986 7.71107C15.6561 7.71107 15.7839 7.58319 15.7839 7.4256V5.28838C15.7839 5.13094 15.6563 5.0032 15.4988 5.00291Z" fill="white"/>
</svg>
