<svg width="1560" height="988" viewBox="0 0 1560 988" fill="none" xmlns="http://www.w3.org/2000/svg">
<path d="M1072.01 675.858C1073.81 675.458 1074.01 674.058 1074.81 673.258C1080.01 667.458 1085.91 668.058 1089.71 674.858C1093.71 681.958 1094.21 689.558 1092.51 697.158C1091.11 703.358 1087.21 707.958 1080.31 708.758C1078.31 709.058 1077.41 709.658 1077.21 711.758C1074.81 732.758 1063.41 747.958 1046.51 759.758C1045.61 760.458 1044.41 760.858 1044.01 762.658C1047.01 763.558 1050.01 763.258 1053.11 762.758C1055.01 762.458 1057.51 762.458 1057.31 764.858C1056.91 769.458 1059.91 768.558 1062.41 768.658C1066.91 768.658 1071.41 768.558 1075.91 768.658C1078.91 768.758 1080.11 767.758 1080.01 764.658C1079.91 762.458 1080.21 759.958 1082.61 759.258C1085.21 758.558 1086.41 760.758 1087.11 762.858C1087.91 765.358 1089.21 764.758 1090.81 763.658C1092.51 762.458 1094.41 760.758 1096.71 762.458C1099.11 764.258 1097.71 766.358 1096.81 768.258C1095.61 770.558 1097.71 770.658 1098.71 771.458C1100.71 772.958 1101.91 774.658 1099.41 776.658C1098.41 777.558 1098.01 778.158 1098.51 779.558C1100.01 784.058 1097.41 784.958 1093.81 784.258C1091.71 783.858 1090.61 783.658 1090.11 786.358C1089.51 789.558 1086.91 789.858 1084.71 787.458C1084.41 787.058 1084.01 786.658 1083.91 786.158C1082.41 777.958 1076.51 777.658 1069.91 778.158C1066.81 778.358 1063.61 778.158 1060.41 778.158C1057.51 778.158 1054.71 777.458 1052.81 781.158C1051.51 783.558 1047.91 782.458 1045.41 782.858C1043.01 783.158 1041.61 783.558 1043.11 786.458C1051.41 802.358 1059.21 818.558 1072.11 831.658C1074.51 834.058 1076.21 836.558 1071.21 838.058C1069.41 838.558 1069.41 839.558 1070.11 841.058C1073.61 848.058 1077.11 855.058 1080.41 862.158C1081.31 864.058 1082.61 863.858 1084.11 863.558C1087.01 862.958 1089.91 862.158 1092.81 861.458C1093.71 861.258 1094.91 861.058 1095.51 862.158C1096.21 863.358 1095.11 863.858 1094.31 864.458C1089.11 867.958 1083.81 871.458 1078.71 875.158C1076.11 876.958 1074.81 875.658 1073.51 873.558C1068.01 864.858 1062.41 856.158 1056.81 847.458C1056.01 846.158 1055.21 844.258 1053.51 845.158C1048.71 847.558 1047.71 843.958 1046.51 840.958C1043.11 832.358 1043.11 832.358 1034.21 834.958C1033.71 835.058 1033.21 835.158 1032.71 835.258C1024.11 837.458 1024.01 837.458 1024.71 846.058C1025.01 849.558 1024.71 851.958 1020.51 852.258C1017.51 852.458 1018.21 855.158 1018.11 856.958C1017.61 867.258 1017.01 877.558 1016.81 887.858C1016.71 891.758 1015.71 893.158 1011.51 892.558C1006.11 891.758 1000.61 891.758 995.11 891.358C993.91 891.258 992.51 891.258 992.31 889.758C992.11 888.258 993.61 888.058 994.61 887.658C994.91 887.558 995.21 887.458 995.61 887.358C1005.51 884.058 1005.51 884.058 1004.71 873.658C1004.41 869.058 1004.11 864.358 1004.01 859.658C1003.91 857.158 1003.51 855.458 1000.31 856.158C996.81 856.958 997.11 854.258 997.21 852.058C998.21 839.058 998.41 826.158 997.71 813.158C997.41 808.358 997.31 803.558 997.11 798.658C997.01 796.158 996.01 795.358 993.61 796.458C989.61 798.358 985.81 801.958 980.81 798.358C980.31 798.058 978.71 799.058 977.71 799.658C972.41 802.758 967.21 806.058 961.81 809.058C959.21 810.458 958.21 812.158 958.81 815.058C959.11 816.658 959.11 818.358 958.91 820.058C958.51 824.258 956.61 825.258 953.61 822.558C951.81 820.958 951.01 821.558 949.51 822.758C946.61 824.958 943.91 825.358 943.11 820.658C943.01 819.858 943.11 818.758 941.91 818.858C936.41 819.258 937.81 816.058 938.91 813.158C939.61 811.258 938.41 810.358 937.41 809.258C936.31 808.058 935.51 806.858 936.31 805.258C937.11 803.458 938.61 802.858 940.41 803.258C943.71 803.958 945.11 802.858 944.51 799.358C944.31 797.958 944.41 796.158 946.21 795.658C948.21 795.058 950.21 795.958 950.91 797.558C953.01 802.058 955.61 801.458 959.01 799.058C962.11 796.858 965.61 795.258 968.91 793.258C971.01 791.958 974.91 791.758 971.41 787.558C970.11 785.958 972.51 784.858 974.01 784.158C978.01 782.158 981.91 780.158 986.51 777.758C982.21 775.458 978.11 775.858 974.31 775.158C958.01 772.158 944.21 764.858 933.81 751.358C932.11 749.158 930.81 748.458 928.01 749.358C922.11 751.258 916.81 749.858 912.51 745.258C906.71 739.158 903.81 731.858 904.01 723.558C904.21 716.358 908.31 713.558 915.31 715.458C916.51 715.758 917.51 716.958 919.31 716.558C919.51 709.858 919.01 703.058 919.91 696.258C924.01 665.558 945.41 639.758 975.01 631.058C976.41 630.658 978.61 628.958 979.31 631.258C980.01 633.458 977.41 633.358 975.91 633.858C936.81 646.458 913.41 687.758 925.81 728.458C933.91 755.158 954.91 771.758 984.21 773.258C1012.31 774.658 1037.41 766.458 1057.31 746.158C1074.51 728.658 1078.21 707.358 1071.11 684.258C1060.91 650.958 1031.01 637.558 1000.21 640.558C994.41 641.158 988.61 641.758 983.01 643.458C981.91 643.758 980.61 644.258 980.21 642.558C979.91 640.958 981.11 640.758 982.31 640.458C1008.71 632.758 1044.01 636.558 1063.31 661.758C1066.71 666.058 1068.91 671.358 1072.01 675.858ZM1001.01 815.258H1000.91C1001.11 818.558 1001.21 821.858 1001.41 825.258C1001.51 828.058 1002.81 828.958 1005.61 828.258C1020.31 824.158 1035.01 820.158 1049.81 816.158C1053.31 815.258 1054.11 813.758 1052.31 810.458C1048.21 803.058 1044.41 795.458 1040.31 788.058C1036.11 780.458 1036.21 780.058 1044.71 779.658C1045.91 779.558 1047.01 779.458 1048.21 779.558C1050.11 779.558 1050.91 778.358 1051.21 776.858C1051.91 773.458 1053.61 770.258 1052.91 766.758C1052.81 766.458 1051.41 766.258 1050.61 766.258C1043.01 766.258 1035.41 765.958 1028.11 769.158C1021.41 772.058 1014.41 774.458 1007.01 774.958C996.81 775.658 988.41 780.458 979.81 785.058C977.11 786.458 976.71 787.958 978.71 790.458C983.61 796.658 985.51 797.158 992.61 793.658C993.81 793.058 994.91 792.358 996.21 791.858C998.91 790.658 1000.21 791.458 1000.31 794.558C1000.31 801.358 1000.71 808.358 1001.01 815.258ZM922.71 747.158C928.31 747.258 929.41 745.658 927.41 741.058C926.41 738.658 925.61 736.058 923.51 734.258C921.61 732.658 919.91 728.958 917.51 730.758C915.51 732.258 918.51 734.658 919.71 736.558C919.81 736.658 919.91 736.858 920.01 736.958C920.51 737.658 921.01 738.358 920.41 739.158C919.61 740.158 918.61 739.758 917.81 739.058C915.11 736.858 913.21 734.258 913.61 730.558C913.81 728.858 913.71 727.458 911.81 727.058C910.61 726.758 909.11 725.758 908.11 726.958C907.11 728.258 907.81 729.858 908.41 731.158C909.21 733.358 909.81 735.658 911.01 737.558C913.71 742.458 917.21 746.658 922.71 747.158ZM1082.21 691.358C1082.11 690.158 1083.11 687.358 1080.51 687.058C1078.51 686.858 1078.61 689.758 1077.81 691.258C1076.11 694.458 1077.41 697.758 1077.71 700.958C1078.01 705.758 1079.51 706.558 1083.81 704.158C1086.61 702.658 1088.21 700.158 1089.11 697.258C1090.71 692.358 1090.41 687.458 1089.01 682.558C1088.61 681.258 1088.71 678.558 1086.21 679.558C1084.11 680.458 1082.01 681.958 1084.11 684.958C1085.61 687.058 1086.11 689.558 1085.71 692.058C1085.51 693.658 1085.31 695.958 1083.21 695.658C1080.91 695.458 1082.21 693.358 1082.21 691.358ZM1015.01 860.858C1015.01 860.858 1015.11 860.858 1015.01 860.858C1015.11 860.358 1015.31 859.858 1015.11 859.358C1014.51 857.258 1017.11 853.558 1012.11 853.758C1008.01 853.858 1006.51 855.558 1006.91 859.658C1007.41 864.458 1007.51 869.258 1008.01 874.058C1008.11 875.658 1007.41 878.158 1010.51 877.858C1012.91 877.558 1014.51 876.758 1014.41 873.858C1014.41 869.458 1014.81 865.158 1015.01 860.858ZM942.41 806.858C945.31 809.458 947.81 811.858 951.11 812.758C952.31 813.058 954.61 814.058 954.81 811.958C955.21 807.858 958.71 807.258 961.21 805.658C965.91 802.558 970.91 799.858 975.71 796.958C976.61 796.358 978.71 795.958 977.61 794.158C976.61 792.658 975.21 793.658 974.11 794.258C968.91 797.158 963.41 799.758 958.61 803.158C954.41 806.058 951.71 806.258 949.71 801.158C949.61 800.958 949.11 801.058 948.41 800.958C949.61 805.858 948.51 808.658 942.41 806.858ZM1083.61 764.658C1082.21 771.458 1082.21 771.458 1075.11 771.558C1069.61 771.658 1064.11 771.758 1058.71 771.858C1057.51 771.858 1055.71 771.558 1055.71 773.458C1055.71 775.358 1057.51 775.058 1058.71 775.158C1065.31 775.258 1072.01 775.358 1078.61 775.458C1079.91 775.458 1081.61 774.858 1082.41 775.958C1085.31 779.758 1086.11 777.258 1088.51 775.058C1091.31 772.558 1090.11 769.258 1092.01 766.958C1087.21 770.658 1087.21 770.658 1083.61 764.658ZM1075.21 858.658C1072.11 853.258 1070.11 846.758 1065.81 841.658C1064.21 839.758 1061.81 841.958 1059.81 842.458C1058.71 842.758 1058.41 843.958 1059.11 844.958C1062.51 850.258 1065.91 855.558 1069.51 860.758C1070.71 862.458 1072.61 861.358 1074.11 861.058C1074.91 860.858 1075.51 860.158 1075.21 858.658ZM912.71 718.058C910.41 717.758 908.51 718.458 907.91 720.658C907.21 723.258 909.51 722.858 910.91 723.358C913.81 724.458 916.71 725.658 919.61 726.758C920.21 727.058 920.81 727.358 921.41 726.958C922.01 726.458 921.91 725.758 921.51 725.158C919.41 721.858 916.71 719.058 912.71 718.058ZM1074.81 682.858C1074.91 683.858 1074.51 685.058 1075.61 685.558C1076.91 686.058 1077.31 684.858 1077.71 683.958C1078.91 681.158 1081.31 679.258 1083.41 677.158C1084.31 676.258 1085.91 675.658 1085.01 673.958C1083.91 672.158 1082.11 672.358 1080.51 673.058C1076.11 674.858 1075.41 678.858 1074.81 682.858ZM1014.01 885.358C1014.11 883.258 1014.81 881.058 1011.91 881.058C1007.41 881.058 1009.11 885.258 1008.01 887.458C1007.11 889.258 1009.51 889.058 1010.61 889.158C1013.81 889.558 1014.01 887.358 1014.01 885.358ZM1075.91 863.758C1074.61 864.158 1072.51 864.258 1073.11 865.958C1073.91 868.058 1074.41 871.158 1077.41 871.358C1078.61 871.458 1081.01 869.958 1080.51 868.758C1079.61 866.858 1079.11 863.758 1075.91 863.758Z" fill="#55359E"/>
<path d="M994.71 728.658C990.31 727.958 984.91 727.758 980.21 724.858C979.21 724.258 977.11 723.958 977.91 722.258C978.71 720.358 980.41 721.358 981.71 722.058C990.81 726.758 999.91 726.658 1009.01 722.258C1013.91 719.858 1017.81 716.358 1020.81 711.758C1021.51 710.658 1022.21 708.458 1024.01 709.758C1025.71 710.958 1024.11 712.558 1023.31 713.658C1016.81 723.558 1007.31 728.158 994.71 728.658Z" fill="#55359E"/>
<path d="M1005.51 629.158C1005.51 630.658 1004.51 630.958 1003.51 631.158C992.21 633.358 981.31 636.758 971.71 643.258C971.11 643.658 970.21 644.358 969.51 643.358C968.61 642.158 969.31 641.158 970.41 640.458C973.21 638.758 976.01 636.858 979.01 635.458C986.01 631.958 993.51 629.958 1001.11 628.358C1002.61 627.958 1004.41 627.558 1005.51 629.158Z" fill="#55359E"/>
<path d="M965.81 722.058C965.31 724.558 964.11 726.658 961.41 726.658C958.51 726.658 956.91 724.758 956.81 721.958C956.71 719.058 958.81 717.758 961.31 717.758C963.71 717.758 965.41 719.358 965.81 722.058Z" fill="#55359E"/>
<path d="M1043.01 700.858C1043.01 703.958 1041.51 705.658 1038.81 705.758C1036.01 705.958 1034.51 704.058 1034.41 701.458C1034.31 698.558 1036.11 697.258 1038.81 697.158C1041.41 697.158 1042.91 698.458 1043.01 700.858Z" fill="#55359E"/>
<path d="M1391.4 697.25C1393.7 693.35 1395.7 689.45 1398.1 685.95C1411.2 666.75 1430.2 658.75 1452.7 657.75C1461.9 657.35 1471 658.45 1479.9 660.65C1481.5 661.05 1483.8 660.95 1483.2 663.25C1482.7 665.15 1480.7 664.15 1479.3 663.85C1466.7 660.55 1453.9 660.05 1441.2 662.35C1410 667.95 1391.4 691.35 1389.6 722.25C1388.1 749.35 1402.1 768.25 1424.5 781.15C1444.2 792.55 1465.7 796.85 1488.5 793.05C1521.7 787.45 1540.5 760.65 1541.1 729.65C1541.6 701.65 1529.7 679.95 1507 663.95C1501.4 660.05 1495.1 657.45 1488.6 655.15C1487 654.55 1483.7 654.75 1484.6 652.15C1485.3 649.75 1487.9 651.55 1489.4 652.05C1517.5 662.05 1535.5 681.25 1542.6 710.45C1544.5 718.45 1544.9 726.55 1544.3 734.75C1544.1 737.85 1544.7 738.15 1547.5 737.05C1555.3 733.85 1559.9 736.95 1559.8 745.25C1559.5 756.95 1554.8 765.95 1543.7 771.15C1539.7 772.95 1536.5 776.05 1532.5 771.25C1531.6 770.15 1530.6 771.85 1529.8 772.65C1527.8 775.05 1527.2 778.05 1526.7 780.95C1524 796.45 1526.8 810.75 1536.8 823.25C1539.4 826.45 1539.2 828.45 1535.2 829.95C1533.5 830.55 1531.8 831.35 1530.1 831.85C1527.5 832.75 1522.5 831.55 1525.5 837.25C1526 838.15 1525 839.35 1524 839.45C1521.6 839.65 1521 840.85 1520.3 843.05C1519.1 846.45 1516.5 845.25 1514.3 843.65C1513.1 842.75 1512.2 840.45 1510.5 842.95C1509.6 844.25 1508.6 845.35 1506.8 844.55C1505 843.75 1504.8 841.95 1504.6 840.35C1504.5 839.25 1504.8 838.05 1505 836.95C1505.5 834.55 1505 833.25 1502.1 833.35C1491.2 833.55 1480.5 832.15 1470.5 827.35C1467.2 825.75 1466.6 827.55 1466.5 830.45C1466 844.45 1465.3 858.35 1464.8 872.35C1464.7 874.65 1465.3 877.15 1461.7 877.35C1459.6 877.45 1460 879.55 1459.9 880.95C1459.5 887.55 1459.4 894.25 1458.7 900.85C1458.3 904.45 1459.6 906.05 1462.9 906.75C1465.2 907.25 1467.4 907.95 1469.6 908.55C1470.6 908.85 1471.6 909.25 1471.6 910.45C1471.5 911.95 1470.4 912.25 1469.1 912.35C1462.8 912.65 1456.5 912.95 1450.1 913.25C1447.2 913.45 1447 911.65 1446.9 909.45C1446.6 898.85 1446 888.15 1445.8 877.55C1445.7 873.95 1444.4 872.15 1441 871.25C1432.2 868.85 1423.4 866.35 1414.6 863.75C1411 862.65 1408.9 863.95 1407 867.15C1401.8 876.05 1396.2 884.75 1390.9 893.55C1389.1 896.55 1387.5 897.55 1384.2 895.25C1379.8 892.05 1375 889.25 1370.4 886.25C1369.2 885.45 1367.5 884.55 1368.4 882.85C1369.2 881.35 1370.7 882.25 1372 882.55C1382.3 884.85 1382.4 884.85 1387.3 875.45C1389.6 871.15 1391.6 866.85 1393.7 862.45C1394.1 861.75 1394.8 860.55 1394.5 860.15C1391 855.05 1395.6 851.85 1397.5 848.25C1403.1 837.65 1409.1 827.25 1415.1 816.95C1416.6 814.45 1416 813.35 1413.4 812.85C1404.4 811.05 1396.6 806.65 1389.4 801.25C1385.3 798.15 1383.6 798.65 1381.9 803.65C1381.2 805.85 1380 807.55 1378.4 809.05C1377 810.45 1374.8 810.45 1374.3 808.55C1373.4 805.35 1371.9 805.15 1368.9 805.45C1366 805.75 1364 804.25 1365.4 800.75C1365.5 800.45 1365.8 800.25 1365.9 799.95C1367.1 797.35 1359.6 795.95 1364.8 793.15C1368.6 791.05 1365.6 788.35 1366.3 786.35C1368 781.55 1364.7 779.45 1362.6 776.65C1361.4 775.05 1360.2 773.45 1359.1 771.75C1357.5 769.05 1354.4 766.25 1355.1 763.45C1356 759.75 1360.5 761.65 1363.3 760.75C1374.7 756.95 1381.5 748.35 1386.8 738.25C1387.7 736.45 1387.2 734.15 1386.4 732.35C1385.1 729.35 1383.4 732.35 1381.9 732.35C1380.4 732.35 1378.9 731.95 1377.9 730.75C1370 721.95 1368.3 706.05 1374.1 696.25C1378.7 688.35 1384.6 688.25 1389.9 695.85C1390.2 696.05 1390.7 696.45 1391.4 697.25ZM1419.8 783.75C1420 783.35 1420.2 783.05 1420.3 782.65C1405.4 773.05 1394.4 760.35 1388.1 742.85C1381 753.85 1373.1 761.75 1361 764.35C1358.5 764.95 1359.8 766.55 1360.5 767.75C1363.6 773.35 1368.3 777.65 1372.4 782.35C1374.1 784.25 1375.7 784.85 1377.4 782.15C1379 779.65 1381.1 778.55 1383 782.05C1383.6 783.15 1384.1 784.55 1384.1 785.85C1384.1 788.45 1385.4 789.45 1387.8 789.45C1393 789.45 1398.1 789.45 1403.3 789.45C1405.2 789.45 1407.1 789.15 1406.6 786.45C1406.2 783.95 1407.7 783.75 1409.6 783.85C1413 783.85 1416.4 783.75 1419.8 783.75ZM1522.3 781.05C1518.8 783.35 1516 785.35 1513 787.15C1503.2 793.15 1492.4 796.25 1481 797.25C1480.1 797.35 1478.7 797.05 1478.4 798.15C1477.9 799.75 1479.6 799.95 1480.5 800.45C1483.6 802.05 1486.7 803.55 1489.8 805.15C1491.1 805.85 1493.2 806.95 1492 808.35C1488.6 812.35 1492.4 812.85 1494.4 814.15C1497.6 816.15 1501.1 817.85 1504.3 819.95C1507.6 822.15 1510.2 822.95 1512.6 818.55C1513.6 816.75 1517 814.25 1517.9 817.55C1519.2 822.15 1520.7 824.85 1525.7 824.65C1526.2 824.65 1527 825.65 1527.3 826.35C1528.7 829.55 1530.9 828.15 1532.7 827.15C1535.5 825.45 1532.8 824.05 1532 822.85C1526.7 815.15 1523.5 806.85 1522.4 797.55C1521.9 792.15 1523.6 786.95 1522.3 781.05ZM1461.9 854.75C1462.5 851.35 1460 850.75 1457.5 850.15C1441.5 846.25 1425.6 842.35 1409.6 838.45C1407.4 837.95 1406 838.65 1405.4 840.65C1404.6 843.05 1406.4 843.35 1408.1 843.75C1413.2 845.15 1418.3 846.75 1423.4 848.25C1434.9 851.55 1446.4 854.85 1457.8 858.15C1460.9 859.15 1462.2 858.05 1461.9 854.75ZM1498.6 829.75C1498.8 829.25 1498.9 828.75 1499.1 828.25C1494 825.25 1488.9 822.15 1483.8 819.15C1483.4 818.95 1482.6 818.75 1482.4 818.95C1478 823.05 1474.6 819.05 1470.8 817.65C1469.5 817.15 1468 815.45 1466.9 817.35C1465.8 819.15 1466 821.25 1468.2 822.55C1477.7 827.75 1487.9 829.75 1498.6 829.75ZM1546.7 752.95C1546.7 751.05 1545.7 750.95 1544.2 751.75C1541.1 753.35 1538.7 755.55 1537.7 758.95C1537.2 760.55 1535 762.95 1537.2 763.65C1540.2 764.55 1542.1 769.85 1546.5 765.95C1550.9 762.05 1553.9 757.55 1555.4 751.95C1555.8 750.45 1557.5 748.05 1554.5 747.55C1552.1 747.15 1549.9 747.75 1550.2 751.35C1550.4 754.45 1548.8 757.05 1546.8 759.35C1546.1 760.15 1544.9 761.25 1543.8 760.35C1542.4 759.35 1543.7 758.35 1544.3 757.45C1545.2 756.05 1546.6 754.95 1546.7 752.95ZM1373.3 711.15C1373.2 713.55 1374.2 715.75 1374.5 718.05C1375.4 724.65 1381.2 722.65 1384.6 722.85C1387.6 723.05 1386.4 718.65 1386.7 716.25C1386.9 714.75 1386.2 712.95 1385.7 711.45C1385.2 709.95 1384.9 707.55 1383 707.85C1380.7 708.25 1381.4 710.75 1381.4 712.55C1381.4 713.05 1381.5 713.55 1381.6 714.05C1381.8 715.05 1382.1 716.15 1380.9 716.65C1379.4 717.25 1378.8 715.95 1378.4 714.85C1377.3 711.55 1377.8 708.35 1379.8 705.45C1381.5 702.85 1379.5 701.25 1377.7 700.25C1375 698.75 1375.2 701.75 1374.9 702.95C1374.1 705.55 1373.8 708.35 1373.3 711.15ZM1405.8 862.95C1405.5 861.05 1403.8 860.95 1402.5 860.45C1400.5 859.65 1398.7 859.35 1397.5 861.85C1394.9 867.05 1392.2 872.25 1389.7 877.45C1389 878.95 1387.4 880.75 1390.1 882.05C1392.2 883.05 1393.7 882.75 1395.1 880.45C1398.2 875.15 1401.6 870.05 1404.8 864.85C1405.1 864.25 1405.4 863.65 1405.8 862.95ZM1448.6 878.75C1448.9 884.55 1449.2 889.85 1449.4 895.15C1449.5 898.05 1451.4 898.75 1453.7 898.95C1456.6 899.15 1455.7 896.85 1455.8 895.45C1456.2 890.35 1456.1 885.15 1456.8 880.05C1457.5 874.95 1453.9 874.35 1450.8 874.15C1446.7 873.75 1449.4 877.45 1448.6 878.75ZM1371.3 787.75C1373.4 790.85 1373.1 794.75 1376 796.95C1377.1 797.75 1378.5 800.15 1379.8 798.45C1382.1 795.35 1385.1 796.15 1387.9 796.05C1393.2 795.95 1398.5 796.25 1403.8 796.05C1405.3 795.95 1408.2 797.15 1408.2 794.55C1408.3 792.05 1405.5 792.65 1403.9 792.65C1397.4 792.55 1391 792.35 1384.5 792.45C1381.8 792.45 1380.3 791.85 1380.8 788.75C1380.9 787.85 1381.2 786.75 1379.4 786.25C1378 791.85 1375 791.05 1371.3 787.75ZM1394.7 799.25C1394.6 799.75 1394.5 800.25 1394.4 800.65C1401.1 804.85 1407.9 808.75 1415.9 810.05C1419.6 810.65 1420.4 807.95 1420.8 805.75C1421.3 802.75 1418.4 803.85 1416.9 803.65C1414.2 803.25 1411.1 804.05 1409.9 800.45C1409.5 799.35 1408.4 799.25 1407.4 799.25C1403.2 799.25 1399 799.25 1394.7 799.25ZM1515.5 821.15C1510.3 826.85 1510.3 826.85 1502.9 822.65C1498.4 820.15 1493.9 817.55 1489.5 815.05C1488.3 814.35 1486.9 813.55 1486.2 815.35C1485.5 816.85 1487.1 817.25 1488 817.85C1493.6 821.15 1499.1 824.55 1504.8 827.65C1507.6 829.25 1509.7 831.05 1508.9 834.75C1511.5 833.75 1513.7 832.85 1516 832.15C1517.6 831.65 1518.2 829.35 1518 829.25C1513.4 827.65 1516.1 823.95 1515.5 821.15ZM1541.8 748.15C1546.2 746.65 1549.9 745.35 1553.6 744.05C1554.8 743.65 1556.5 743.75 1556 741.75C1555.6 740.05 1554.5 739.35 1552.8 739.25C1548.1 738.65 1544.3 741.55 1541.8 748.15ZM1388.9 703.85C1388.6 699.95 1387.3 696.45 1384 694.05C1382.4 692.85 1380.5 692.65 1379.2 694.55C1377.8 696.45 1379.5 697.15 1380.6 698.05C1382.8 699.95 1384.4 702.25 1385.9 704.65C1386.4 705.45 1386.7 706.65 1388 706.45C1389.3 706.15 1388.9 704.85 1388.9 703.85ZM1457.3 909.65C1454.1 907.05 1456.7 901.25 1451.2 901.95C1448.5 902.35 1449.6 905.65 1449.9 907.45C1450.7 911.65 1453.9 909.25 1457.3 909.65ZM1386.4 892.55C1388.9 891.75 1389.7 889.35 1390.4 887.35C1391.2 885.25 1388.9 884.95 1387.7 884.95C1385 884.95 1384 887.65 1383.2 889.35C1382.5 890.95 1385 891.65 1386.4 892.55ZM1462.5 823.45C1456.4 823.35 1451.1 825.85 1445.7 827.75C1445.8 828.15 1446 828.55 1446.1 829.05C1451.6 827.15 1457.1 825.25 1462.5 823.45ZM1460.1 833.55C1454.6 833.55 1450.4 835.55 1446.2 837.35C1450.8 836.85 1455.6 837.15 1460.1 833.55ZM1441.8 793.45C1441.6 793.15 1441.3 792.75 1441.1 792.45C1436.1 794.25 1431.6 796.95 1427 799.55C1427.2 799.95 1427.4 800.25 1427.6 800.65C1432.3 798.25 1437.1 795.85 1441.8 793.45Z" fill="#55359E"/>
<path d="M1460.6 699.05C1443.2 698.75 1428.7 696.95 1414.5 693.55C1413.3 693.25 1411.2 693.35 1411.4 691.75C1411.6 689.45 1413.8 690.55 1415 690.75C1428.3 692.85 1441.5 695.35 1455 695.65C1467.6 695.95 1479.9 695.15 1491.8 690.65C1492.7 690.35 1493.7 689.45 1494.4 690.65C1495.2 691.95 1494.3 692.95 1493.1 693.35C1489.5 694.65 1485.9 696.15 1482.2 696.95C1474.1 698.75 1466 698.75 1460.6 699.05Z" fill="#55359E"/>
<path d="M1467.5 749.45C1457.1 749.05 1447.2 744.95 1440.5 734.75C1439.7 733.55 1437.8 731.75 1439.7 730.45C1441.6 729.15 1442.3 731.65 1443.2 732.85C1452.5 745.75 1467 749.65 1481.4 743.15C1482 742.85 1482.6 742.65 1483.2 742.35C1484.4 741.65 1485.5 741.55 1486.1 743.05C1486.6 744.25 1485.4 744.65 1484.6 745.25C1481.6 747.35 1473.8 749.45 1467.5 749.45Z" fill="#55359E"/>
<path d="M1482.2 711.45C1480 710.55 1476.1 713.15 1475.9 709.85C1475.7 707.15 1479.8 708.45 1481.9 708.25C1487.3 707.65 1492.8 707.05 1498.1 705.65C1504.7 703.95 1510.6 701.25 1514.2 694.95C1514.7 694.05 1515.3 692.45 1516.7 693.15C1518.3 693.95 1517.4 695.45 1516.9 696.65C1515.7 699.75 1513.3 701.75 1510.7 703.55C1501.9 709.25 1492.1 710.55 1482.2 711.45Z" fill="#55359E"/>
<path d="M1521.7 717.45C1521.7 711.85 1522 707.25 1524.2 702.95C1524.7 701.95 1525.2 700.55 1526.7 701.25C1527.8 701.75 1527.5 702.95 1527.1 703.85C1522.9 715.45 1525.1 726.45 1530.1 737.15C1530.6 738.15 1532.2 739.55 1530.5 740.65C1528.5 741.85 1527.9 739.65 1527.3 738.55C1523.8 731.65 1521.4 724.45 1521.7 717.45Z" fill="#55359E"/>
<path d="M1461.4 649.05C1472.2 650.95 1482.9 654.15 1492.5 660.55C1493.6 661.25 1495.1 662.25 1494.2 663.65C1493.2 665.25 1491.8 664.05 1490.8 663.35C1481.7 657.25 1471.5 653.85 1460.8 652.25C1459.6 652.05 1458.2 651.75 1458.3 650.35C1458.3 648.85 1459.8 648.95 1461.4 649.05Z" fill="#55359E"/>
<path d="M1429.3 721.45C1429.4 725.25 1427.6 726.45 1424.9 726.45C1422.4 726.45 1420.6 725.45 1420.6 722.65C1420.6 719.85 1421.7 717.75 1425 717.85C1428 717.85 1429.1 719.65 1429.3 721.45Z" fill="#55359E"/>
<path d="M1507.3 742.65C1506.8 745.15 1505.6 747.15 1502.9 747.35C1500 747.55 1498 745.95 1498 743.05C1498 740.45 1499.8 738.85 1502.4 738.75C1505.2 738.55 1506.6 740.35 1507.3 742.65Z" fill="#55359E"/>
<path d="M707.561 800.41C707.861 798.51 707.961 796.71 708.761 795.01C717.261 776.41 725.761 757.81 734.161 739.11C735.861 735.41 737.761 734.41 741.861 735.31C756.961 738.51 770.361 745.31 782.561 754.51C785.161 756.51 784.761 758.71 783.661 761.11C778.161 773.61 772.661 786.01 767.161 798.51C764.761 804.01 762.061 809.41 759.761 814.91C757.661 820.01 754.161 823.51 749.061 825.41C741.061 828.31 733.061 831.11 725.061 833.91C723.161 834.61 721.061 835.21 719.761 832.81C714.361 822.61 709.961 811.91 707.561 800.41ZM727.161 769.41C725.161 769.01 724.061 769.91 723.261 771.71C720.361 778.61 717.261 785.41 714.361 792.31C713.661 794.01 713.061 795.81 716.061 795.21C719.961 794.41 721.761 796.81 722.361 800.01C723.161 804.61 725.161 805.11 729.261 803.81C735.261 801.91 737.161 802.91 738.861 808.91C739.961 812.81 741.661 814.01 745.261 812.11C748.361 810.51 750.861 810.61 752.761 814.11C754.261 816.81 755.261 815.21 756.061 813.51C759.661 805.71 763.161 797.81 766.961 790.01C768.061 787.71 767.161 786.51 765.461 785.51C761.361 783.01 757.261 780.41 753.061 778.11C744.861 773.61 736.161 771.01 727.161 769.41ZM739.861 738.61C737.061 739.91 736.761 743.21 735.261 745.61C733.761 748.01 734.161 749.41 737.161 750.31C750.261 753.81 762.361 759.51 773.961 766.51C774.761 767.01 775.461 767.81 776.661 767.21C779.561 765.71 780.161 758.21 777.561 756.11C769.561 749.61 760.561 745.21 750.861 741.81C747.461 740.51 743.861 739.71 739.861 738.61ZM735.161 753.81C732.861 753.31 731.461 753.51 731.161 755.11C730.761 757.01 732.361 757.21 733.661 757.61C739.461 759.11 744.961 761.41 750.361 764.01C751.761 764.71 753.261 765.61 752.161 767.41C751.161 768.91 749.661 767.81 748.661 767.21C743.661 764.51 738.261 762.91 732.861 761.11C730.361 760.31 728.261 759.81 727.261 763.01C726.061 766.91 729.661 766.11 731.161 766.41C742.761 768.71 753.261 773.31 763.261 779.41C769.761 783.41 769.561 783.21 773.161 776.41C775.061 772.71 774.761 770.71 771.061 769.11C769.261 768.31 767.661 767.11 765.861 766.11C755.661 760.71 745.561 755.91 735.161 753.81ZM750.461 819.81C750.061 816.01 748.861 814.81 745.361 815.71C738.361 817.61 737.861 817.31 735.461 810.71C734.061 806.91 731.761 807.11 728.461 807.81C719.661 809.61 721.661 810.41 719.161 802.41C718.461 800.31 718.261 798.01 714.961 799.11C712.161 800.11 710.761 801.51 711.961 804.61C713.061 807.21 714.061 809.81 715.061 812.51C716.561 816.51 717.261 821.11 722.761 821.71C727.161 822.21 730.661 824.61 734.461 826.71C734.861 826.91 735.761 826.41 736.361 826.21C740.261 824.71 744.161 823.21 747.961 821.71C749.261 821.31 750.561 820.81 750.461 819.81Z" fill="#55359E"/>
<path d="M649.761 831.41C642.461 831.21 636.261 834.41 629.861 836.71C627.861 837.41 625.861 838.41 623.861 839.21C622.961 839.61 621.761 839.61 621.261 838.51C620.561 837.11 621.361 836.31 622.561 835.71C634.861 830.21 647.161 825.41 661.061 829.11C668.161 831.01 674.861 834.01 681.461 837.01C691.761 841.61 702.161 845.51 713.661 840.91C714.861 840.41 716.461 839.91 717.161 841.61C717.961 843.71 716.061 844.01 714.661 844.51C705.061 848.21 695.661 846.31 686.361 843.01C678.261 840.11 670.561 836.11 662.261 833.51C657.961 832.11 653.861 831.21 649.761 831.41Z" fill="#55359E"/>
<path d="M700.361 858.91C693.961 859.01 687.361 857.71 680.961 855.21C679.661 854.71 677.661 854.21 678.461 852.21C679.261 850.31 680.961 851.21 682.361 851.71C691.461 855.41 700.761 855.71 710.261 853.91C711.561 853.61 713.161 853.31 713.561 855.01C714.261 857.41 712.061 857.01 710.761 857.51C707.561 858.71 704.161 858.61 700.361 858.91Z" fill="#55359E"/>
<path d="M657.461 823.41C652.961 822.91 648.561 822.11 644.061 821.91C639.561 821.71 635.061 822.41 630.961 824.31C629.761 824.91 628.161 826.31 627.161 824.21C626.361 822.31 628.261 821.71 629.461 821.01C633.161 818.81 637.361 818.41 641.461 818.31C646.961 818.21 652.461 818.81 657.761 820.01C658.961 820.31 660.761 820.51 660.561 822.21C660.461 824.01 658.761 823.71 657.461 823.41Z" fill="#55359E"/>
<path d="M748.161 783.11C748.161 787.81 745.861 791.21 742.561 791.21C739.761 791.21 738.361 789.61 738.361 786.81C738.261 781.51 740.761 778.11 744.561 778.31C747.461 778.51 748.261 780.51 748.161 783.11Z" fill="#55359E"/>
<path d="M764.261 772.71C763.961 774.31 762.961 774.61 761.961 774.41C760.261 774.01 758.261 773.51 757.861 771.41C757.561 769.81 759.061 769.71 760.261 769.81C762.161 770.11 763.461 771.21 764.261 772.71Z" fill="#55359E"/>
<path d="M112.474 452.917C113.774 452.917 115.174 452.717 116.474 452.917C118.874 453.317 119.874 454.317 118.674 457.017C115.574 464.217 110.674 470.017 105.674 475.817C96.9739 485.817 87.0739 494.817 79.6739 506.017C78.9739 507.017 78.3739 508.817 76.7739 508.217C74.7739 507.517 75.8739 505.617 75.9739 504.317C76.9739 494.017 78.8739 483.917 81.6739 474.017C82.8739 469.617 81.1739 469.217 77.6739 469.617C74.8739 469.917 72.0739 470.117 69.2739 470.317C66.7739 470.517 65.3739 469.617 66.2739 466.817C70.5739 454.417 75.3739 442.217 81.9739 430.817C83.2739 428.517 85.4739 427.517 87.9739 426.817C97.6739 424.317 107.474 422.917 117.274 421.117C120.574 420.517 120.074 422.317 119.374 424.317C116.774 431.117 114.074 437.917 110.574 444.317C110.074 445.217 109.574 446.017 109.074 446.917C105.674 452.817 105.674 452.817 112.474 452.917ZM81.5739 497.417C91.1739 486.717 100.874 476.017 110.274 465.217C112.274 462.917 115.574 459.517 114.074 457.217C112.374 454.617 107.974 456.217 104.874 457.117C103.474 457.517 101.674 458.117 100.774 456.617C99.7739 455.117 101.074 453.817 101.874 452.617C107.174 445.317 110.374 436.917 114.474 428.917C115.974 426.117 115.774 424.417 111.874 425.317C104.074 427.017 96.2739 428.517 88.4739 430.117C86.0739 430.617 84.7739 432.217 83.7739 434.217C79.9739 441.717 76.0739 449.317 72.9739 457.217C68.9739 467.417 69.0739 467.917 80.1739 466.617C87.2739 465.817 87.6739 466.417 85.2739 473.417C82.5739 480.917 81.5739 488.917 81.5739 497.417Z" fill="#55359E"/>
<path d="M434.322 805.1C435.142 805.1 436.026 804.974 436.846 805.1C438.36 805.352 438.991 805.981 438.234 807.682C436.278 812.216 433.186 815.868 430.032 819.521C424.543 825.818 418.296 831.486 413.627 838.539C413.186 839.169 412.807 840.302 411.798 839.925C410.536 839.484 411.23 838.287 411.293 837.469C411.924 830.982 413.123 824.622 414.889 818.387C415.646 815.616 414.574 815.365 412.365 815.616C410.599 815.805 408.832 815.931 407.066 816.057C405.488 816.183 404.605 815.616 405.173 813.853C407.886 806.044 410.914 798.361 415.079 791.182C415.899 789.734 417.287 789.104 418.864 788.663C424.984 787.089 431.167 786.207 437.351 785.074C439.433 784.696 439.117 785.83 438.676 787.089C437.035 791.371 435.332 795.654 433.123 799.684C432.808 800.251 432.492 800.754 432.177 801.321C430.032 805.037 430.032 805.037 434.322 805.1ZM414.826 833.123C420.883 826.385 427.003 819.647 432.934 812.846C434.196 811.397 436.278 809.256 435.332 807.808C434.259 806.17 431.483 807.178 429.527 807.745C428.644 807.997 427.508 808.374 426.94 807.43C426.309 806.485 427.129 805.666 427.634 804.911C430.978 800.314 432.997 795.024 435.584 789.986C436.53 788.223 436.404 787.152 433.944 787.719C429.022 788.789 424.101 789.734 419.18 790.742C417.665 791.056 416.845 792.064 416.214 793.323C413.817 798.047 411.356 802.833 409.4 807.808C406.876 814.231 406.939 814.546 413.943 813.727C418.422 813.223 418.675 813.601 417.161 818.009C415.457 822.733 414.826 827.771 414.826 833.123Z" fill="#55359E"/>
<path d="M106.344 967.904C106.162 963.352 105.616 957.89 109.258 954.976C115.995 949.331 111.625 945.508 107.983 941.684C101.792 935.311 93.9622 930.94 85.7682 927.845C38.7895 910.911 37.879 852.643 68.834 824.237C107.619 788.73 175.538 796.377 203.397 840.807C221.242 869.759 210.499 909.09 180.272 924.385C170.075 929.666 159.15 933.672 150.956 942.23C146.95 946.418 144.583 950.06 148.589 956.979C157.511 972.274 150.774 984.292 133.293 986.842C131.837 987.024 130.38 987.206 128.741 987.57C111.807 989.573 106.344 984.839 106.344 967.904ZM145.857 938.224C156.783 929.666 167.344 924.749 177.905 919.651C212.137 902.535 215.779 854.828 185.917 828.425C156.783 802.75 108.893 800.747 78.3026 824.419C51.8998 844.813 44.9805 877.953 62.0967 903.263C74.4787 921.472 96.8756 924.567 113.446 938.77C114.538 927.845 109.258 920.561 107.619 912.367C107.073 910.182 104.887 907.451 107.801 905.994C110.714 904.538 111.807 907.633 113.081 909.636C115.449 913.096 118.726 914.188 122.55 912.732C127.102 911.093 125.828 907.633 125.099 904.356C124.917 903.263 124.735 901.988 124.735 900.714C124.189 896.344 124.917 891.974 130.016 891.791C135.114 891.609 136.025 895.98 135.478 900.35C135.296 902.171 134.932 903.991 134.932 905.812C134.75 907.815 133.839 910.364 136.753 911.093C139.302 911.821 141.669 910.911 142.398 907.997C143.126 905.63 143.308 902.535 146.768 903.809C149.499 904.902 148.771 907.997 148.589 910.182C147.86 918.741 146.768 927.299 145.857 938.224ZM130.562 916.191C119.819 916.555 116.723 920.744 119.272 931.669C120.911 938.406 121.822 945.325 121.64 952.245C121.64 955.887 120.365 961.167 126.374 961.167C131.472 961.167 136.753 960.803 137.299 953.337C138.027 944.597 139.848 936.039 140.759 927.299C141.851 918.012 139.666 915.827 130.562 916.191ZM144.401 963.898C133.657 965.719 123.096 971 113.628 959.346C111.989 967.904 109.44 975.552 117.816 980.468C124.735 984.474 136.571 981.743 142.398 974.46C137.845 975.552 134.204 976.645 130.38 977.191C128.195 977.555 124.917 978.465 124.371 975.188C124.007 972.274 127.102 971.546 129.469 971.182C135.478 970.454 140.577 968.815 144.401 963.898Z" fill="#55359E"/>
<path d="M78.6669 766.697C78.4848 764.876 78.3027 762.691 80.6699 762.327C82.8549 761.963 83.2191 764.148 83.9475 765.969C87.043 775.437 90.1385 784.906 94.6907 794.01C95.6011 795.831 96.5116 798.198 94.1444 799.655C91.9593 800.93 90.6847 799.291 89.9564 797.652C85.5863 787.455 80.852 777.44 78.6669 766.697Z" fill="#55359E"/>
<path d="M145.675 776.894C145.675 770.885 145.675 764.694 145.675 758.685C145.675 757.228 145.675 755.407 147.678 755.043C150.046 754.679 150.774 756.682 150.774 758.503C150.774 769.974 150.592 781.446 150.41 793.1C150.41 795.285 149.681 797.834 146.95 797.47C143.673 797.106 145.311 794.192 145.311 792.371C145.311 787.273 145.311 782.174 145.311 776.894C145.311 776.894 145.493 776.894 145.675 776.894Z" fill="#55359E"/>
<path d="M25.315 867.756C18.2135 867.756 11.4763 866.481 4.55692 865.025C2.55395 864.66 0.00471157 863.932 0.915152 861.019C1.64351 858.651 3.82856 859.198 5.46736 859.562C15.118 860.654 24.4045 863.568 34.2373 862.293C35.694 862.111 37.5149 863.022 37.697 864.66C38.0611 867.027 36.2403 867.756 34.2373 867.938C31.3239 867.938 28.2284 867.756 25.315 867.756Z" fill="#55359E"/>
<path d="M198.663 813.129C195.932 812.947 195.021 811.126 195.932 809.306C201.03 799.837 206.311 790.368 211.591 780.9C212.137 779.807 213.594 779.443 214.687 780.171C215.779 780.9 216.507 781.992 215.961 783.267C211.773 793.282 206.311 802.568 200.666 811.855C200.12 812.583 199.209 812.947 198.663 813.129Z" fill="#55359E"/>
<path d="M247.098 818.592C247.098 821.141 245.642 822.416 244.185 823.326C236.355 828.425 228.525 833.341 220.513 838.258C219.057 839.168 217.054 840.443 215.779 838.44C214.687 836.801 215.415 834.98 217.236 833.887C225.794 828.425 234.352 822.78 243.092 817.317C245.277 816.043 246.188 817.135 247.098 818.592Z" fill="#55359E"/>
<path d="M55.7237 959.346C52.082 960.075 50.6253 959.528 50.2611 957.707C49.8969 956.069 51.1715 955.158 52.6282 954.43C60.6401 951.152 68.8341 947.875 76.846 944.597C78.8489 943.869 81.2161 943.14 82.3086 945.872C83.219 948.603 81.034 949.331 79.031 950.242C70.4729 953.519 62.0968 956.797 55.7237 959.346Z" fill="#55359E"/>
<path d="M30.5958 802.386C31.142 803.479 31.6883 804.935 32.5987 806.028C37.5151 812.219 42.6136 818.046 49.1687 822.598C50.6254 823.69 53.3568 825.147 51.718 827.514C49.715 830.428 47.53 828.425 45.7091 826.968C38.6076 821.87 32.5987 815.679 27.8644 808.213C27.1361 806.938 25.8615 805.664 26.954 804.207C27.3182 803.479 28.2286 803.297 30.5958 802.386Z" fill="#55359E"/>
<path d="M249.466 881.412C251.287 881.412 253.836 880.866 254.2 883.78C254.382 885.965 252.015 886.329 250.376 886.693C242.364 888.15 234.352 889.606 226.158 891.063C223.973 891.427 221.606 891.245 221.242 888.514C221.06 886.147 223.063 885.783 224.884 885.418C233.078 884.144 241.09 882.869 249.466 881.412Z" fill="#55359E"/>
<path d="M184.278 969.907C183.55 971.364 183.368 972.639 182.639 973.185C181.547 974.095 180.272 973.367 179.544 972.274C175.356 964.809 172.625 956.797 170.075 948.785C169.893 947.875 170.44 946.236 171.168 945.872C171.896 945.508 173.899 946.054 174.263 946.6C177.723 954.43 181.001 962.26 184.278 969.907Z" fill="#55359E"/>
<path d="M44.9806 911.275C44.7985 911.821 44.6165 912.55 44.2523 912.914C37.3329 916.738 29.8673 919.105 22.2196 920.744C20.0345 921.108 19.4883 918.923 20.7629 916.92C22.0375 914.917 40.2463 908.544 42.7956 909.09C44.0702 909.272 44.7985 909.818 44.9806 911.275Z" fill="#55359E"/>
<path d="M213.23 930.394C218.874 933.854 224.337 937.314 229.982 940.773C231.074 941.502 231.074 943.14 229.982 943.869C229.071 944.415 227.615 944.961 226.704 944.779C220.513 942.958 215.597 939.134 211.045 934.764C210.134 933.854 209.77 932.579 210.68 931.669C211.045 930.94 212.137 930.94 213.23 930.394Z" fill="#55359E"/>
<path d="M75.025 807.12C75.9354 809.67 75.2071 810.762 73.9325 810.944C73.022 811.126 71.5653 810.762 70.837 810.216C69.0161 808.395 67.1952 806.21 65.7385 804.025C64.0997 801.658 59.0012 799.291 63.1893 796.195C66.6489 793.646 68.4698 798.562 70.4728 800.747C72.4758 802.932 73.9325 805.482 75.025 807.12Z" fill="#55359E"/>
<path d="M170.075 795.831C170.803 793.464 168.436 788.912 173.352 789.094C176.63 789.276 176.084 793.1 176.084 795.649C176.084 798.198 176.266 801.84 172.806 802.022C168.618 802.022 170.075 798.38 170.075 795.831Z" fill="#55359E"/>
<path d="M191.744 940.045C194.657 942.23 198.663 944.233 199.209 948.967C199.392 950.242 197.571 952.245 196.114 951.334C192.472 949.149 189.377 946.236 188.102 942.23C187.738 940.591 189.559 939.681 191.744 940.045Z" fill="#55359E"/>
<path d="M109.622 784.724C109.622 782.174 109.258 778.897 111.807 779.443C116.177 780.353 115.267 785.088 115.995 788.365C116.359 790.368 116.723 793.828 113.992 793.1C109.804 792.371 110.35 787.637 109.622 784.724Z" fill="#55359E"/>
<path d="M225.248 858.469C227.069 858.287 228.707 859.016 228.707 860.472C228.525 864.296 225.066 864.842 222.334 865.753C220.696 866.299 219.239 865.025 219.421 863.386C219.967 860.108 223.063 859.562 225.248 858.469Z" fill="#55359E"/>
<path d="M37.8791 849.911C35.1478 848.272 30.5956 849.365 30.2314 844.813C30.0493 842.81 32.2344 842.81 33.6911 842.992C36.6045 843.538 40.0642 843.538 41.1567 846.816C41.885 849.183 39.5179 849.547 37.8791 849.911Z" fill="#55359E"/>
<path d="M223.791 908.726C225.976 909.272 229.072 908.544 228.89 912.003C228.707 914.917 226.158 914.735 224.155 914.188C222.152 913.642 218.693 914.735 218.328 911.457C218.328 907.997 221.606 908.908 223.791 908.726Z" fill="#55359E"/>
<path d="M216.508 814.404C215.961 817.5 213.958 819.503 210.863 820.413C209.77 820.777 208.314 820.049 208.496 818.592C208.86 815.314 210.863 813.129 213.594 811.855C215.415 810.944 216.143 812.583 216.508 814.404Z" fill="#55359E"/>
<path d="M186.94 10.8606C183.81 25.5727 177.551 39.3039 171.879 53.0351C164.642 70.8857 157.209 88.5401 150.363 106.587C148.407 111.491 146.451 112.864 141.952 110.51C140.191 109.529 138.431 108.941 136.671 107.96C120.24 98.9366 120.045 98.7404 106.157 110.51C99.5065 116.199 96.1814 114.826 93.6385 107.175C92.8561 104.625 91.2913 102.467 90.9001 99.9174C86.9881 75.9858 71.5357 64.8047 49.2372 60.8815C46.3032 60.293 42 59.9007 42 55.7813C42 52.2504 45.912 51.6619 48.4548 50.6811C91.4869 34.9883 134.128 18.1186 178.334 5.95662C185.962 3.99502 187.331 4.77966 186.94 10.8606ZM175.204 27.3381C173.639 27.1419 173.052 26.7496 173.052 26.9458C154.079 46.1695 135.497 65.5893 114.177 82.4591C110.46 85.4015 111.634 87.7555 115.35 89.7171C123.37 93.8364 131.585 98.152 139.605 102.467C143.125 104.429 145.081 102.664 146.255 99.5251C148.602 93.8364 151.145 88.1478 153.297 82.263C160.73 64.2162 167.967 45.9733 175.204 27.3381ZM162.294 27.5343C161.708 26.9458 161.121 26.1611 160.534 25.5727C136.475 39.6962 112.416 53.6236 88.5529 67.7471C86.0101 69.3164 86.2057 71.278 87.1837 73.6319C90.1177 80.3014 93.0517 86.9708 95.9857 93.8364C98.7241 85.5977 104.788 81.2822 110.656 77.1628C121.218 69.5125 130.803 60.6853 140.191 51.6619C148.015 43.8155 156.035 36.5576 162.294 27.5343ZM147.233 25.1803C142.539 22.8264 139.8 24.3957 137.257 25.1803C122.979 30.2805 108.504 35.3806 94.2253 40.4808C83.2717 44.404 72.3181 48.5234 61.3645 52.6427C59.7997 53.2312 58.0393 53.4274 57.8436 55.389C57.4524 57.5468 59.604 57.7429 60.9732 58.3314C73.4917 64.0201 85.4233 66.1778 97.1593 55.5852C101.463 51.6619 107.135 49.5042 112.025 46.5618C123.37 39.8923 134.91 32.8306 147.233 25.1803Z" fill="#55359E"/>
<path d="M1471.7 405.314C1479.43 416.084 1477.87 428.606 1473.19 441.819C1465.06 463.752 1457.05 485.89 1449.79 508.41C1447.08 516.986 1443.02 517.937 1436.26 513.653C1423.72 505.875 1410.87 498.009 1397.28 492.185C1396.2 491.714 1395.21 490.923 1394.54 490.22C1383.4 478.68 1372.47 471.345 1358.38 466.074C1345.58 461.157 1340.83 448.966 1334.47 438.23C1331.91 433.725 1336.3 430.964 1339.58 429.106C1365.67 414.033 1389.24 394.981 1412.95 376.659C1419.12 371.802 1425.02 371.704 1431.32 375.169C1440.97 380.251 1450.53 385.654 1460.38 390.62C1466.83 392.918 1468.09 398.966 1471.7 405.314ZM1417.34 382.016C1396.23 399.675 1374.42 416.104 1350.7 430.104C1345.99 432.776 1347.29 435.554 1351.73 437.641C1363.39 442.934 1374.84 450.241 1387.67 439.448C1391.41 436.51 1396.76 435.914 1400.45 440.043C1404.15 444.172 1403.46 449.163 1400.3 453.124C1392.09 463.464 1396.07 469.054 1407.04 473.118C1410.16 474.325 1413.13 476.7 1415.87 478.665C1423.97 484.355 1428.44 483.172 1431.48 472.786C1436.05 457.47 1442.03 442.714 1447.45 427.459C1450.84 417.688 1460.83 405.25 1456.47 398.521C1450.86 390.064 1436.8 387.217 1426.3 382.074C1423.16 380.341 1420.27 379.543 1417.34 382.016ZM1444.76 466.608C1448.29 467.583 1448.41 475.905 1453.59 472.155C1458.27 468.958 1458.35 462.417 1455.24 457.414C1453.64 455.073 1451.88 449.578 1447.92 452.631C1443.77 455.801 1442.03 460.847 1444.76 466.608ZM1442.95 500.65C1447.01 493.48 1450.53 488.235 1446.4 481.914C1444.69 479.369 1443.44 475.744 1439.79 476.462C1436.66 477.153 1436.74 480.629 1435.91 482.991C1433.76 490.168 1438.83 494.33 1442.95 500.65ZM1461.59 433.782C1459.81 432.082 1459.45 427.146 1456.17 429.005C1452.4 431.417 1451.16 435.91 1453.92 440.298C1455.52 442.639 1457.75 447.056 1460.62 445.43C1464.8 442.785 1463.71 437.993 1461.59 433.782Z" fill="#55359E"/>
<path d="M1425.62 405.198C1428.99 411.136 1424.99 427.476 1420.49 430.031C1417.01 432.006 1401.02 426.729 1399.95 422.462C1397.16 411.328 1408.83 412.825 1413.46 408.576C1416.39 406.103 1420.87 401.124 1425.62 405.198Z" fill="#55359E"/>
<path d="M1045.32 20.5625C1044.72 22.6625 1042.72 23.1625 1041.22 23.7625C1037.02 25.3625 1035.72 27.3625 1039.32 31.0625C1040.82 32.5625 1041.82 34.5625 1043.02 36.3625C1043.62 37.3625 1044.52 38.4625 1043.62 39.5625C1042.82 40.5625 1041.42 40.1625 1040.32 39.7625C1035.62 38.1625 1030.92 36.5625 1026.22 34.7625C1023.82 33.8625 1021.82 34.0625 1019.62 35.3625C1014.02 38.6625 1008.82 42.5625 1003.72 46.4625C1002.72 47.2625 1001.62 48.6625 1000.22 47.7625C998.617 46.6625 999.817 45.0625 1000.32 43.7625C1001.72 40.3625 1002.92 36.8625 1004.62 33.6625C1006.62 29.7625 1006.02 27.5625 1001.62 26.2625C999.517 25.6625 995.717 25.5625 996.017 23.1625C996.417 20.0625 1000.22 21.1625 1002.32 21.4625C1008.52 22.2625 1010.82 18.5625 1012.32 13.5625C1013.22 10.5625 1013.52 6.0625 1015.92 5.1625C1019.22 3.9625 1019.02 9.7625 1021.92 10.9625C1022.52 11.1625 1023.02 11.7625 1023.32 12.3625C1027.42 19.1625 1033.52 20.5625 1040.82 19.2625C1042.62 18.9625 1044.52 18.2625 1045.32 20.5625ZM1021.52 29.4625C1024.52 29.1625 1026.92 27.8625 1028.92 26.2625C1030.62 25.0625 1029.82 23.1625 1028.02 23.1625C1023.12 23.1625 1018.12 23.5625 1013.22 23.8625C1012.72 23.8625 1012.12 24.5625 1011.92 25.1625C1011.52 26.2625 1012.62 26.5625 1013.32 26.8625C1016.02 27.7625 1018.92 28.6625 1021.52 29.4625ZM1019.22 20.6625C1020.62 19.0625 1024.82 21.7625 1024.22 18.2625C1023.72 15.3625 1020.52 12.0625 1017.52 11.8625C1015.22 11.6625 1014.52 15.8625 1014.32 18.2625C1013.92 21.9625 1017.32 19.6625 1019.22 20.6625ZM1006.52 40.0625C1009.92 37.7625 1012.92 35.7625 1015.92 33.7625C1017.32 32.8625 1016.92 31.9625 1015.72 31.1625C1012.02 28.6625 1009.52 29.4625 1007.92 33.8625C1007.22 35.4625 1006.02 36.9625 1006.52 40.0625ZM1036.72 32.9625C1035.62 31.5625 1034.92 29.1625 1032.52 28.9625C1031.02 28.8625 1028.32 29.6625 1028.62 31.0625C1029.32 33.9625 1032.92 33.2625 1035.12 34.3625C1035.82 34.8625 1036.72 34.5625 1036.72 32.9625Z" fill="#55359E"/>
<path d="M216 259.651C215.513 261.358 213.891 261.765 212.675 262.253C209.268 263.553 208.214 265.179 211.133 268.187C212.35 269.407 213.161 271.032 214.135 272.496C214.621 273.309 215.351 274.203 214.621 275.097C213.972 275.91 212.837 275.585 211.945 275.26C208.132 273.959 204.32 272.658 200.508 271.195C198.562 270.463 196.94 270.626 195.155 271.683C190.613 274.365 186.395 277.536 182.259 280.706C181.448 281.357 180.556 282.495 179.42 281.763C178.122 280.869 179.096 279.568 179.501 278.511C180.637 275.747 181.61 272.902 182.989 270.301C184.611 267.13 184.124 265.342 180.556 264.285C178.852 263.797 175.77 263.716 176.014 261.765C176.338 259.245 179.42 260.139 181.123 260.383C186.152 261.033 188.018 258.025 189.234 253.961C189.964 251.522 190.208 247.864 192.154 247.132C194.831 246.157 194.669 250.872 197.021 251.847C197.507 252.01 197.913 252.497 198.156 252.985C201.482 258.513 206.429 259.651 212.35 258.595C213.81 258.351 215.351 257.782 216 259.651ZM196.696 266.886C199.129 266.643 201.076 265.586 202.698 264.285C204.077 263.31 203.428 261.765 201.968 261.765C197.994 261.765 193.939 262.09 189.964 262.334C189.559 262.334 189.072 262.903 188.91 263.391C188.585 264.285 189.478 264.529 190.045 264.773C192.235 265.504 194.587 266.236 196.696 266.886ZM194.831 259.733C195.966 258.432 199.373 260.627 198.886 257.782C198.481 255.424 195.885 252.741 193.452 252.579C191.586 252.416 191.019 255.831 190.856 257.782C190.532 260.789 193.29 258.92 194.831 259.733ZM184.53 275.504C187.288 273.634 189.721 272.008 192.154 270.382C193.29 269.65 192.965 268.919 191.992 268.268C188.991 266.236 186.963 266.886 185.665 270.463C185.098 271.764 184.124 272.983 184.53 275.504ZM209.025 269.732C208.132 268.594 207.565 266.643 205.618 266.48C204.402 266.399 202.212 267.049 202.455 268.187C203.023 270.545 205.943 269.976 207.727 270.87C208.295 271.276 209.025 271.032 209.025 269.732Z" fill="#55359E"/>
<path d="M905.317 463.563C904.717 465.663 902.717 466.163 901.217 466.763C897.017 468.363 895.717 470.363 899.317 474.063C900.817 475.563 901.817 477.563 903.017 479.363C903.617 480.363 904.517 481.463 903.617 482.563C902.817 483.563 901.417 483.163 900.317 482.763C895.617 481.163 890.917 479.562 886.217 477.763C883.817 476.863 881.817 477.063 879.617 478.363C874.017 481.663 868.817 485.562 863.717 489.463C862.717 490.263 861.617 491.663 860.217 490.763C858.617 489.663 859.817 488.063 860.317 486.763C861.717 483.363 862.917 479.863 864.617 476.663C866.617 472.763 866.017 470.562 861.617 469.263C859.517 468.663 855.717 468.562 856.017 466.163C856.417 463.062 860.217 464.163 862.317 464.463C868.517 465.263 870.817 461.563 872.317 456.563C873.217 453.563 873.517 449.063 875.917 448.163C879.217 446.963 879.017 452.763 881.917 453.963C882.517 454.163 883.017 454.763 883.317 455.363C887.417 462.163 893.517 463.563 900.817 462.263C902.617 461.963 904.517 461.263 905.317 463.563ZM881.517 472.463C884.517 472.163 886.917 470.863 888.917 469.263C890.617 468.062 889.817 466.163 888.017 466.163C883.117 466.163 878.117 466.563 873.217 466.863C872.717 466.863 872.117 467.562 871.917 468.163C871.517 469.263 872.617 469.563 873.317 469.863C876.017 470.763 878.917 471.663 881.517 472.463ZM879.217 463.663C880.617 462.063 884.817 464.763 884.217 461.263C883.717 458.363 880.517 455.063 877.517 454.863C875.217 454.663 874.517 458.863 874.317 461.263C873.917 464.963 877.317 462.663 879.217 463.663ZM866.517 483.063C869.917 480.763 872.917 478.763 875.917 476.763C877.317 475.863 876.917 474.962 875.717 474.163C872.017 471.663 869.517 472.463 867.917 476.863C867.217 478.463 866.017 479.963 866.517 483.063ZM896.717 475.963C895.617 474.563 894.917 472.163 892.517 471.963C891.017 471.863 888.317 472.663 888.617 474.063C889.317 476.963 892.917 476.263 895.117 477.363C895.817 477.863 896.717 477.563 896.717 475.963Z" fill="#55359E"/>
<path d="M1415.68 87.6154C1412.38 87.0154 1408.48 86.4154 1404.88 84.6154C1403.48 83.9154 1402.28 82.7154 1402.98 81.0154C1403.78 78.9154 1405.48 79.7154 1406.78 80.4154C1409.38 81.7154 1412.08 82.5154 1414.88 82.8154C1419.88 83.4154 1423.68 80.6154 1424.78 75.7154C1425.68 71.7154 1423.58 68.4154 1419.08 66.7154C1416.98 65.9154 1414.18 65.4154 1414.08 62.6154C1413.98 60.2154 1416.68 60.0154 1418.28 58.9154C1418.88 58.5154 1419.48 58.3154 1419.98 57.9154C1422.18 56.2154 1426.18 55.7154 1426.08 52.8154C1425.98 50.4154 1421.98 51.0154 1419.78 50.0154C1418.08 49.2154 1415.88 48.7154 1416.68 46.4154C1417.38 44.4154 1419.48 44.9154 1420.98 45.4154C1424.98 46.6154 1428.98 47.8154 1432.88 49.1154C1435.98 50.2154 1436.48 52.1154 1433.78 54.1154C1430.88 56.3154 1427.78 58.3154 1424.78 60.3154C1422.98 61.5154 1422.58 62.3154 1424.68 63.9154C1430.08 68.1154 1430.78 72.0154 1428.18 79.4154C1426.28 84.8154 1422.38 87.5154 1415.68 87.6154Z" fill="#55359E"/>
<path d="M1340.69 68.5154C1331.89 67.6154 1323.49 64.8154 1314.99 62.7154C1313.39 62.3154 1311.59 61.6154 1312.09 59.4154C1312.69 57.2154 1314.39 57.7154 1316.09 58.0154C1319.79 58.6154 1323.89 62.1154 1326.89 59.8154C1329.29 57.9154 1329.59 53.3154 1330.69 49.9154C1331.99 45.8154 1333.19 41.7154 1334.39 37.5154C1334.89 35.8154 1335.69 34.0154 1332.49 34.8154C1331.39 35.1154 1330.09 35.2154 1329.49 33.7154C1328.99 32.4154 1329.79 31.5154 1330.59 30.6154C1332.89 28.0154 1335.19 25.4154 1337.59 22.8154C1338.79 21.6154 1340.09 20.3154 1341.89 21.4154C1343.69 22.5154 1342.69 24.1154 1342.29 25.4154C1339.89 36.1154 1336.59 46.5154 1333.09 56.9154C1331.69 61.0154 1332.39 62.8154 1336.79 63.2154C1338.29 63.3154 1339.69 63.8154 1341.19 64.1154C1342.69 64.4154 1344.39 64.7154 1344.09 66.7154C1343.89 68.7154 1342.29 68.8154 1340.69 68.5154Z" fill="#55359E"/>
<path d="M1383.48 76.9154C1379.18 75.9154 1374.48 75.0154 1369.78 73.8154C1366.88 73.1154 1366.18 71.5154 1367.88 68.6154C1370.68 63.8154 1375.18 60.4154 1378.08 55.7154C1379.48 53.4154 1381.48 51.0154 1379.68 48.4154C1378.18 46.2154 1375.58 47.0154 1373.18 47.5154C1371.58 47.8154 1369.58 48.3154 1369.08 46.0154C1368.68 43.7154 1370.78 43.5154 1372.38 43.1154C1372.88 43.0154 1373.38 42.9154 1373.88 42.8154C1377.68 41.7154 1381.58 42.0154 1383.98 45.1154C1386.58 48.5154 1385.08 52.4154 1383.28 55.9154C1381.18 59.9154 1378.08 63.2154 1375.18 66.6154C1373.28 68.8154 1373.68 70.1154 1376.58 70.6154C1379.18 71.0154 1381.78 71.6154 1384.48 71.9154C1386.48 72.2154 1388.28 72.7154 1387.98 75.1154C1387.58 77.7154 1385.38 76.6154 1383.48 76.9154Z" fill="#55359E"/>
<path d="M1359.29 53.8154C1356.89 53.1154 1355.39 53.4154 1355.09 56.3154C1354.99 57.7154 1353.89 58.8154 1352.29 58.6154C1350.39 58.4154 1351.09 56.6154 1350.59 55.6154C1348.59 51.6154 1348.19 48.2154 1351.99 44.8154C1353.19 43.8154 1353.19 41.4154 1353.59 39.6154C1353.99 37.8154 1354.79 36.8154 1356.69 37.2154C1358.69 37.7154 1358.49 39.3154 1358.29 40.8154C1358.09 42.1154 1357.89 43.5154 1357.39 44.7154C1356.29 47.4154 1357.29 48.6154 1359.99 49.2154C1361.79 49.6154 1364.69 49.4154 1363.99 52.4154C1363.39 54.8154 1360.99 53.8154 1359.29 53.8154Z" fill="#55359E"/>
<path d="M1392.19 60.3154C1395.89 61.2154 1398.99 62.0154 1401.99 62.8154C1403.59 63.2154 1404.89 63.8154 1404.39 65.8154C1403.99 67.5154 1402.49 67.7154 1401.19 67.4154C1397.99 66.7154 1394.79 65.8154 1391.59 64.9154C1390.29 64.5154 1388.89 63.9154 1389.29 62.2154C1389.79 60.3154 1391.29 60.1154 1392.19 60.3154Z" fill="#55359E"/>
<path d="M1406.38 58.6154C1406.28 60.0154 1405.48 61.0154 1404.18 60.7154C1400.48 59.8154 1396.88 58.8154 1393.18 57.7154C1391.78 57.3154 1391.48 56.1154 1391.88 54.9154C1392.28 53.6154 1393.28 53.2154 1394.58 53.5154C1397.78 54.4154 1400.98 55.3154 1404.08 56.2154C1405.38 56.6154 1406.18 57.3154 1406.38 58.6154Z" fill="#55359E"/>
<path d="M1056 479.615C1056.53 466.784 1056.89 454.844 1071.15 450.389C1075.6 448.964 1073.29 445.756 1072.57 443.083C1066.87 421.698 1064.2 399.956 1065.45 377.858C1066.87 355.226 1072.4 333.484 1081.48 312.634C1085.05 304.436 1089.33 305.149 1095.74 307.822C1136.91 325.108 1167.56 353.978 1189.3 392.649C1191.97 397.461 1193.93 399.956 1200.71 398.352C1210.51 396.214 1218.17 402.807 1224.59 409.401C1234.03 418.846 1239.2 430.964 1243.12 443.439C1246.51 454.132 1248.82 465.181 1251.5 476.23C1252.03 478.19 1252.56 480.685 1250.6 482.11C1248.47 483.536 1246.86 481.576 1245.08 480.507C1241.52 478.368 1237.95 476.23 1234.21 474.447C1229.93 472.309 1224.05 470.17 1221.38 474.626C1218.88 478.724 1216.57 484.071 1222.09 489.773C1228.68 496.367 1228.15 505.456 1224.76 514.01C1223.34 517.218 1221.56 520.425 1219.24 523.098C1216.03 526.841 1212.82 534.682 1208.01 531.474C1204.45 529.158 1211.4 524.168 1213.71 520.604C1217.28 515.079 1221.02 509.733 1221.56 502.961C1221.91 498.506 1219.95 494.763 1216.39 492.268C1212.29 489.417 1209.97 493.159 1207.3 495.298C1184.31 513.119 1158.11 523.633 1129.24 527.019C1120.69 527.91 1119.09 530.94 1123.54 538.424C1128 545.731 1135.66 547.157 1143.32 548.939C1147.24 549.83 1155.08 548.939 1154.37 552.859C1153.48 558.027 1146.17 554.998 1142.07 554.641C1126.57 553.394 1119.09 546.444 1115.7 531.118C1114.27 524.168 1107.15 525.059 1102.87 522.029C1099.84 520.069 1097.17 524.702 1095.03 527.732C1091.64 532.544 1092.18 538.603 1090.22 543.771C1088.79 547.87 1085.94 550.186 1083.62 545.909C1072.22 524.524 1056.89 504.387 1056 479.615ZM1187.7 452.171C1191.08 443.261 1201.42 437.202 1197.85 426.687C1187.52 395.857 1170.77 368.948 1146.17 347.028C1141.9 343.286 1139.58 343.286 1135.3 347.384C1122.29 360.572 1107.15 369.839 1087.72 370.017C1071.33 370.195 1071.33 370.373 1070.08 386.59C1070.08 387.125 1069.9 387.838 1070.08 388.372C1071.33 419.559 1077.56 449.498 1092.53 477.121C1097.34 486.209 1097.7 486.387 1103.4 477.833C1110 467.854 1111.78 467.497 1118.37 476.764C1122.12 482.11 1124.08 481.219 1127.11 476.408C1131.74 469.279 1136.91 462.329 1141.9 455.201C1144.39 451.637 1146.53 451.637 1149.38 455.379C1157.22 466.072 1157.4 466.072 1165.24 455.557C1166.67 453.597 1167.92 451.637 1169.34 449.676C1178.25 436.667 1178.25 436.667 1185.74 449.676C1186.09 450.389 1186.45 450.924 1187.7 452.171ZM1120.87 500.644C1137.98 499.575 1155.8 493.694 1172.91 485.318C1183.95 479.972 1193.76 472.844 1201.95 463.577C1204.98 460.191 1205.34 446.29 1202.13 445.399C1195.54 443.617 1196.61 451.458 1193.22 453.953C1193.04 454.132 1192.86 454.488 1192.86 454.666C1187.16 463.577 1186.09 463.577 1181.28 454.31C1178.79 449.676 1176.65 449.32 1173.8 453.597C1169.88 459.121 1166.13 464.824 1162.39 470.527C1160.61 473.022 1160.43 477.477 1156.15 477.121C1152.59 476.764 1152.95 472.487 1151.52 470.17C1150.99 469.101 1150.45 468.032 1150.09 466.963C1147.6 461.438 1144.57 461.082 1141.36 466.25C1137.62 471.952 1134.06 477.833 1130.31 483.358C1125.15 490.843 1121.76 490.843 1115.88 484.071C1114.27 482.11 1113.03 478.19 1110.18 480.15C1106.08 483.001 1103.05 487.813 1103.58 492.981C1103.94 497.436 1107.32 500.288 1112.14 500.644C1114.1 500.822 1116.41 500.644 1120.87 500.644ZM1125.15 522.207C1152.05 519.356 1176.83 510.446 1198.92 494.585C1205.16 490.13 1211.58 485.675 1214.43 477.833C1216.03 473.735 1214.96 470.349 1211.4 467.497C1207.12 464.111 1205.7 468.567 1203.56 470.527C1192.51 480.685 1180.75 489.417 1166.49 494.585C1149.56 500.822 1132.45 506.525 1114.1 506.169C1110.71 506.169 1106.61 504.208 1105.54 509.555C1104.65 514.723 1106.97 518.465 1111.78 520.069C1116.06 521.316 1120.51 521.495 1125.15 522.207ZM1084.87 535.217C1088.43 532.544 1088.61 528.979 1089.86 525.95C1091.29 522.92 1093.6 520.604 1095.92 518.287C1101.62 512.406 1102.69 503.317 1098.06 496.724C1090.75 486.209 1084.69 474.982 1079.88 463.22C1078.63 460.191 1078.28 455.379 1073.46 455.735C1069.01 455.914 1066.16 458.943 1064.02 462.864C1062.42 465.893 1061.35 468.923 1061.17 472.131C1060.63 496.367 1072.4 515.614 1084.87 535.217ZM1204.8 403.342C1201.42 404.59 1195.18 403.342 1198.03 410.827C1203.74 425.44 1207.83 440.588 1210.51 456.092C1211.58 462.151 1215.68 466.606 1221.73 466.963C1227.79 467.319 1233.5 468.032 1238.84 470.705C1241.87 472.131 1244.55 472.309 1243.3 467.854C1238.13 447.894 1233.85 427.4 1218.88 411.54C1215.14 407.263 1210.69 404.59 1204.8 403.342Z" fill="#55359E"/>
<path d="M1192.69 558.027C1193.93 564.799 1193.58 571.571 1193.22 578.343C1193.22 579.769 1192.51 581.373 1190.73 581.551C1189.3 581.729 1188.94 580.66 1188.41 579.591C1181.64 567.116 1173.26 556.245 1160.61 549.295C1158.29 548.048 1155.8 546.8 1153.66 545.553C1151.7 544.484 1148.31 543.771 1150.09 540.741C1151.52 538.424 1154.55 539.315 1156.69 540.563C1166.49 545.909 1176.29 551.612 1182.71 561.413C1183.24 562.304 1184.49 562.661 1185.74 563.552C1186.09 562.304 1186.45 561.413 1186.63 560.701C1186.98 557.493 1181.99 553.216 1186.81 551.434C1191.08 550.008 1189.66 557.136 1193.04 558.562L1192.69 558.027Z" fill="#55359E"/>
<path d="M1192.86 558.206C1193.76 546.8 1193.58 535.217 1198.57 524.524C1199.81 522.029 1199.99 517.574 1203.91 519.178C1206.76 520.425 1204.8 523.811 1203.91 526.306C1200.53 535.751 1197.68 545.196 1199.46 555.711C1199.99 558.74 1202.49 563.908 1198.57 565.156C1193.4 566.938 1195.54 559.81 1192.69 558.027L1192.86 558.206Z" fill="#55359E"/>
<path d="M1148.31 395.501C1148.31 411.361 1134.77 426.331 1119.8 426.866C1105.01 427.222 1091.64 413.5 1091.64 397.105C1091.46 378.749 1105.9 368.948 1120.33 367.7C1136.73 366.453 1148.31 378.749 1148.31 395.501ZM1142.07 396.035C1142.25 382.492 1135.12 373.759 1123.72 373.403C1109.82 373.046 1097.34 383.383 1096.99 395.323C1096.63 409.223 1105.54 419.381 1118.19 419.737C1132.63 420.094 1141.9 411.005 1142.07 396.035Z" fill="#55359E"/>
<path d="M1130.85 396.927C1130.49 404.768 1125.68 410.47 1119.44 410.292C1113.74 410.114 1106.25 401.738 1106.43 395.501C1106.61 389.264 1113.03 382.135 1118.55 382.135C1124.97 382.135 1131.03 389.442 1130.85 396.927Z" fill="#55359E"/>
<path d="M713.097 66.1132C712.297 55.4132 716.597 45.0132 720.397 34.6132C721.897 30.5132 724.697 27.4132 729.697 27.8132C734.097 28.2132 737.897 32.3132 738.697 37.2132C739.297 40.8132 737.897 44.1132 736.897 47.4132C736.597 48.3132 736.097 48.9132 735.097 48.7132C733.997 48.5132 734.097 47.5132 734.197 46.7132C734.497 43.9132 735.797 41.3132 735.397 38.4132C734.897 35.0132 733.697 32.1132 730.097 31.3132C726.397 30.5132 724.297 33.2132 723.297 35.9132C718.697 48.7132 714.097 61.5132 716.797 75.6132C717.697 80.2132 720.597 81.5132 724.397 82.1132C727.997 82.7132 730.497 81.1132 731.897 77.8132C737.697 64.5132 742.197 50.9132 746.297 37.0132C748.197 30.6132 749.197 24.0132 749.897 17.4132C750.897 8.61322 745.097 2.41322 736.397 3.31322C731.797 3.71322 729.597 7.41322 727.697 11.3132C726.597 13.7132 726.797 18.9132 723.497 17.7132C720.497 16.7132 723.797 12.8132 724.597 10.4132C728.597 -0.986778 742.097 -3.58678 750.197 5.41322C754.697 10.4132 753.197 16.9132 752.297 22.6132C749.297 42.4132 742.497 61.1132 734.297 79.4132C732.197 84.1132 728.897 85.5132 724.397 85.2132C719.697 84.9132 715.697 83.1132 713.897 78.2132C712.897 74.5132 713.197 70.7132 713.097 66.1132Z" fill="#55359E"/>
</svg>
