<svg width="32" height="32" viewBox="0 0 32 32" fill="none" xmlns="http://www.w3.org/2000/svg">
<path d="M14.6764 14.5557C14.246 14.5557 13.9538 14.5975 13.8008 14.6394V17.4057C13.9819 17.4474 14.2043 17.4615 14.5097 17.4615C15.6361 17.4615 16.3314 16.891 16.3314 15.9323C16.3314 15.0702 15.7332 14.5557 14.6764 14.5557Z" fill="#008EB3"/>
<path d="M28.3759 11.4463H27.6075V7.73872C27.6075 7.7156 27.6039 7.6923 27.6008 7.66889C27.5996 7.52167 27.5528 7.37707 27.452 7.2625L21.2822 0.214611C21.2804 0.21281 21.2786 0.212171 21.2773 0.210196C21.2405 0.169121 21.1976 0.13496 21.1523 0.105388C21.1389 0.0963833 21.1254 0.0888306 21.1113 0.0810456C21.072 0.0596077 21.0304 0.04183 20.9875 0.0289905C20.9759 0.0257371 20.9654 0.0209731 20.9538 0.017952C20.9072 0.00691357 20.8588 0 20.8098 0H5.64683C4.95443 0 4.39193 0.563136 4.39193 1.25496V11.446H3.62371C2.63321 11.446 1.83008 12.2487 1.83008 13.2396V22.5668C1.83008 23.557 2.63321 24.3603 3.62371 24.3603H4.39199V30.745C4.39199 31.4368 4.95448 32 5.64689 32H26.3527C27.0445 32 27.6076 31.4369 27.6076 30.745V24.3603H28.376C29.3662 24.3603 30.1695 23.557 30.1695 22.5668V13.2399C30.1695 12.2491 29.3661 11.4463 28.3759 11.4463ZM5.64683 1.25519H20.1823V7.67569C20.1823 8.02235 20.4636 8.30314 20.8098 8.30314H26.3526V11.4467H5.64683V1.25519ZM18.4305 15.8763C18.4305 16.7938 18.1247 17.5723 17.569 18.1011C16.8456 18.7821 15.7752 19.0875 14.5246 19.0875C14.2464 19.0875 13.9958 19.0741 13.8012 19.0462V22.3964H11.7021V13.1521C12.3559 13.0403 13.2732 12.9572 14.5661 12.9572C15.8727 12.9572 16.8042 13.2072 17.4305 13.708C18.0277 14.1804 18.4305 14.9591 18.4305 15.8763ZM5.05615 22.3269L5.29296 20.617C5.58507 20.7144 5.95991 20.7843 6.37694 20.7843C7.26727 20.7843 7.82286 20.3805 7.82286 18.921V13.0265H9.93573V18.9486C9.93573 21.618 8.65643 22.549 6.59933 22.549C6.11317 22.5493 5.47347 22.4666 5.05615 22.3269ZM26.3527 30.4053H5.64683V24.3603H26.3526V30.4053H26.3527ZM27.6069 21.9657C26.9538 22.1881 25.7166 22.4938 24.4783 22.4938C22.7693 22.4938 21.5315 22.0628 20.6701 21.2289C19.8079 20.4228 19.3346 19.1994 19.349 17.8229C19.3624 14.7088 21.6284 12.9294 24.7013 12.9294C25.9108 12.9294 26.8428 13.1653 27.3011 13.388L26.8563 15.084C26.3416 14.8615 25.7019 14.6808 24.6731 14.6808C22.9078 14.6808 21.5739 15.682 21.5739 17.7117C21.5739 19.644 22.7828 20.784 24.5208 20.784C25.0074 20.784 25.3968 20.7282 25.5634 20.6446V18.6845H24.1173V17.0303H27.6068V21.9657H27.6069Z" fill="#008EB3"/>
</svg>
