<?xml version="1.0" encoding="utf-8"?>
<!-- Generator: Adobe Illustrator 19.0.0, SVG Export Plug-In . SVG Version: 6.00 Build 0)  -->
<svg version="1.1" id="Слой_1" xmlns="http://www.w3.org/2000/svg" xmlns:xlink="http://www.w3.org/1999/xlink" x="0px" y="0px"
	 viewBox="0 0 539.9 815.8" style="enable-background:new 0 0 539.9 815.8;" xml:space="preserve">
<g>
	<path d="M6.6,577.6c0-23.3,0-46.7,0-70c0.3-1.3,0.8-2.5,0.9-3.8c1.1-13.8,4.7-27.1,8.7-40.3c6-19.8,14.6-38.6,24.9-56.6
		c19.8-34.2,46.2-62.3,78.1-85.4c3.4-2.5,4.7-4.9,4.7-8.9c-0.1-49.1,0.1-98.3-0.1-147.4c-0.1-17.6,2.2-34.7,7.8-51.5
		c7.2-21.4,18.4-40,33.8-56.4c14.2-15,30.8-26.6,49.4-34.7c13.6-5.9,28-10.4,43.2-10.9c1.8-0.1,3.8,0.3,4.6-2c7.7,0,15.3,0,23,0
		c0.7,1.6,2.2,1.9,3.8,1.9c12.8,0.4,24.8,3.9,36.8,8.1c18.8,6.6,35.4,16.8,50,30.1c16,14.6,28.3,31.8,37,51.9
		c8.3,18.9,12.4,38.7,12.7,58.8c0.8,50.6,0.3,101.3,0.1,151.9c0,4.7,1.5,7.7,5.2,10.3c22.8,16,42.5,35.3,59.2,57.6
		c16.3,21.5,28.9,45,38.1,70.4c5.6,15.4,9.6,31.2,12.4,47.4c1,5.9,0.8,11.9,2.6,17.7c0,18,0,36,0,54c-0.3,1.6-0.8,3.2-0.9,4.9
		c-0.4,9.7-2.6,19.1-4.7,28.5c-4.3,18.9-10.8,37-19,54.7c-17.5,37.4-42.3,68.9-74.2,94.9c-22.1,18.1-46.5,32.4-73.4,42.3
		c-8.9,3.3-17.7,7-26.9,9.2c-8.1,2-16.2,3.8-24.6,5c-8.1,1.1-16.3,2.9-24.4,3.2c-26.3,0.9-52.6,0.7-78.6-5.5
		c-8.7-2.1-17.7-3.7-26.1-6.8c-16.2-5.9-32.1-12.4-47.3-20.9c-28.2-15.8-52.6-36-73.8-60.3c-18.3-20.8-32.6-44.2-43.5-69.6
		c-6.4-14.9-11.5-30.3-15-46.2C9.4,594.5,8.1,586,6.6,577.6z M63.1,542.1c-0.4,119.1,95.8,211.1,208.4,212.2
		c120.5,1.2,214.7-94,214.7-211.4c0-119.5-95-211.4-210.7-212C158.2,330.2,62.9,425.3,63.1,542.1z M366.8,217.3
		c0-18.2-0.2-36.3,0.1-54.5c0.2-13.4-2.4-26.1-7.8-38.4c-13.8-31.3-38.3-49.1-71.3-54.6c-15.5-2.6-31.2-0.7-46.4,5.2
		C204,89.7,183,123.7,182,158.7c-1.2,40.9-0.3,82-0.3,122.9c0,5,1.9,6.6,6.4,4.9c7.1-2.6,14.5-4,21.6-6.2c13.2-4,26.8-6,40.2-7
		c25.6-2,51.4-1.2,76.8,3.9c3.5,0.7,7.1,1.3,10.5,2.4c8.1,2.5,16.3,4.8,24.5,7.3c4.3,1.3,5.2-0.3,5.2-4.5
		C366.7,260.6,366.8,239,366.8,217.3z"/>
	<path d="M221.9,523.7c9.4-0.7,16.4,3,22.2,9.5c7.6,8.7,15.2,17.4,22.7,26.1c3.7,4.4,4.8,4.4,7.9-0.3c20.4-30.8,40.9-61.5,61.2-92.4
		c4.8-7.3,8.3-15.4,16.6-19.8c15.1-8.1,35.8-2.2,42.1,16.1c3.5,10.2,1.1,18.8-4.4,27.1c-21.6,32.9-43.2,65.7-64.8,98.5
		c-8.6,13-17.5,25.8-25.6,39.1c-11.1,18.3-37.3,18-49.8,1.9c-11.2-14.6-24.1-27.8-36-41.8c-6.6-7.8-14.5-14.6-18.8-24.2
		c-6-13.3,1.5-32.4,15-37.8C214.2,524.3,218.1,523.2,221.9,523.7z"/>
</g>
</svg>
