<svg width="32" height="32" viewBox="0 0 32 32" fill="none" xmlns="http://www.w3.org/2000/svg">
<path d="M9.31695 16.3965C9.31695 15.5348 8.71861 15.0205 7.66269 15.0205C7.23196 15.0205 6.94014 15.062 6.78711 15.1037V17.8707C6.96802 17.9118 7.19042 17.9258 7.49543 17.9258C8.62199 17.9258 9.31695 17.356 9.31695 16.3965Z" fill="#008EB3"/>
<path d="M15.8542 15.0483C15.381 15.0483 15.0759 15.09 14.8945 15.1317V21.2623C15.0756 21.3046 15.3676 21.3046 15.6318 21.3046C17.55 21.318 18.8012 20.262 18.8012 18.0237C18.8153 16.0767 17.675 15.0483 15.8542 15.0483Z" fill="#008EB3"/>
<path d="M28.3759 11.4463H27.6075V7.73872C27.6075 7.7156 27.6039 7.6923 27.6008 7.66889C27.5996 7.52167 27.5528 7.37707 27.452 7.2625L21.2822 0.214611C21.2804 0.21281 21.2786 0.212171 21.2773 0.210196C21.2405 0.169121 21.1976 0.13496 21.1523 0.105388C21.1389 0.0963833 21.1254 0.0888306 21.1113 0.0810456C21.072 0.0596077 21.0304 0.04183 20.9875 0.0289905C20.9759 0.0257371 20.9654 0.0209731 20.9538 0.017952C20.9072 0.00691357 20.8588 0 20.8098 0H5.64683C4.95443 0 4.39193 0.563136 4.39193 1.25496V11.446H3.62371C2.63321 11.446 1.83008 12.2487 1.83008 13.2396V22.5668C1.83008 23.557 2.63321 24.3603 3.62371 24.3603H4.39199V30.745C4.39199 31.4368 4.95448 32 5.64689 32H26.3527C27.0445 32 27.6076 31.4369 27.6076 30.745V24.3603H28.376C29.3662 24.3603 30.1695 23.557 30.1695 22.5668V13.2399C30.1695 12.2491 29.3661 11.4463 28.3759 11.4463ZM5.64683 1.25519H20.1823V7.67569C20.1823 8.02235 20.4636 8.30314 20.8098 8.30314H26.3526V11.4467H5.64683V1.25519ZM21.0518 17.9534C21.0518 19.7472 20.3986 20.984 19.4936 21.749C18.5077 22.5692 17.0059 22.9583 15.1714 22.9583C14.0734 22.9583 13.2951 22.8887 12.7662 22.8195V13.616C13.5446 13.4911 14.5601 13.4216 15.6306 13.4216C17.4091 13.4216 18.5632 13.7416 19.4673 14.4223C20.44 15.1454 21.0518 16.299 21.0518 17.9534ZM4.68823 22.8612V13.616C5.3413 13.5053 6.25929 13.4216 7.55218 13.4216C8.85884 13.4216 9.79049 13.6718 10.4158 14.1726C11.0138 14.645 11.416 15.4237 11.416 16.3413C11.416 17.2592 11.111 18.0376 10.5545 18.5655C9.83162 19.2469 8.7613 19.553 7.50977 19.553C7.23218 19.553 6.98109 19.5388 6.78733 19.511V22.8614H4.68823V22.8612ZM26.3527 30.4053H5.64683V24.3603H26.3526V30.4053H26.3527ZM28.171 15.2288H24.5696V17.3698H27.9342V19.0938H24.5696V22.8612H22.4436V13.4911H28.171V15.2288Z" fill="#008EB3"/>
</svg>
