<?xml version="1.0" encoding="utf-8"?>
<!-- Generator: Adobe Illustrator 23.0.2, SVG Export Plug-In . SVG Version: 6.00 Build 0)  -->
<svg version="1.1" id="Слой_1" xmlns="http://www.w3.org/2000/svg" xmlns:xlink="http://www.w3.org/1999/xlink" x="0px" y="0px"
	 viewBox="0 0 30 30" style="enable-background:new 0 0 30 30;" xml:space="preserve">
<style type="text/css">
	.st0{fill:#F4656D;}
</style>
<path class="st0" d="M9.8,25.1c-0.7,0-1.4-0.2-2-0.5c-1.3-0.7-2-2-2-3.5V9c0-1.4,0.7-2.7,2-3.5c1.3-0.7,2.7-0.7,4,0l10.5,6.1
	c1.3,0.7,2,2,2,3.5c0,1.4-0.7,2.7-2,3.5l-10.5,6.1C11.2,24.9,10.5,25.1,9.8,25.1z M9.8,7c-0.3,0-0.7,0.1-1,0.3c-0.6,0.4-1,1-1,1.7
	v12.1c0,0.7,0.4,1.4,1,1.7c0.6,0.4,1.4,0.4,2,0l10.5-6.1c0.6-0.4,1-1,1-1.7s-0.4-1.4-1-1.7L10.8,7.2C10.5,7.1,10.2,7,9.8,7z"/>
</svg>
