<svg width="32" height="32" viewBox="0 0 32 32" fill="none" xmlns="http://www.w3.org/2000/svg">
<path d="M8.52594 16.0759C8.52594 15.2627 7.96176 14.7773 6.96388 14.7773C6.55778 14.7773 6.28264 14.8166 6.13867 14.8561V17.4662C6.30901 17.5055 6.51857 17.5182 6.80795 17.5182C7.86956 17.5189 8.52594 16.9806 8.52594 16.0759Z" fill="#008EB3"/>
<path d="M28.3759 11.4463H27.6075V7.73872C27.6075 7.7156 27.6039 7.6923 27.6008 7.66889C27.5996 7.52167 27.5528 7.37707 27.452 7.2625L21.2822 0.214611C21.2804 0.21281 21.2786 0.212171 21.2773 0.210196C21.2405 0.169121 21.1976 0.13496 21.1523 0.105388C21.1389 0.0963833 21.1254 0.0888306 21.1113 0.0810456C21.072 0.0596077 21.0304 0.04183 20.9875 0.0289905C20.9759 0.0257371 20.9654 0.0209731 20.9538 0.017952C20.9072 0.00691357 20.8588 0 20.8098 0H5.64683C4.95443 0 4.39193 0.563136 4.39193 1.25496V11.446H3.62371C2.63321 11.446 1.83008 12.2487 1.83008 13.2396V22.5668C1.83008 23.557 2.63321 24.3603 3.62371 24.3603H4.39199V30.745C4.39199 31.4368 4.95448 32 5.64689 32H26.3527C27.0445 32 27.6076 31.4369 27.6076 30.745V24.3603H28.376C29.3662 24.3603 30.1695 23.557 30.1695 22.5668V13.2399C30.1695 12.2491 29.3661 11.4463 28.3759 11.4463ZM5.64683 1.25519H20.1823V7.67569C20.1823 8.02235 20.4636 8.30314 20.8098 8.30314H26.3526V11.4467H5.64683V1.25519ZM13.6145 19.5125V22.1752H11.7786V13.3347H14.1132L15.9497 16.5741C16.474 17.5055 16.9991 18.6066 17.3919 19.6041H17.4311C17.3 18.4362 17.2607 17.2429 17.2607 15.9185V13.3347H19.0974V22.1752H16.9991L15.11 18.7647C14.5843 17.8204 14.0079 16.6795 13.5741 15.6433L13.5354 15.6562C13.5891 16.8238 13.6145 18.0698 13.6145 19.5125ZM4.15699 22.1752V13.453C4.77357 13.3482 5.63939 13.2695 6.85885 13.2695C8.09138 13.2695 8.97086 13.5054 9.56089 13.9778C10.1243 14.4236 10.5053 15.1579 10.5053 16.0239C10.5053 16.8894 10.2172 17.6244 9.69196 18.1226C9.01001 18.7653 7.99999 19.0539 6.81958 19.0539C6.55686 19.0539 6.32035 19.0405 6.13775 19.0147V22.1758H4.15699V22.1752ZM26.3527 30.4053H5.64683V24.3603H26.3526V30.4053H26.3527ZM28.2148 21.7683C27.5984 21.9779 26.4304 22.2671 25.2632 22.2671C23.6504 22.2671 22.4819 21.8602 21.6694 21.0735C20.8564 20.3124 20.4097 19.158 20.4231 17.8597C20.436 14.9217 22.5745 13.2431 25.4728 13.2431C26.614 13.2431 27.4936 13.4655 27.9256 13.6757L27.5065 15.2758C27.0202 15.0657 26.417 14.8953 25.4465 14.8953C23.7816 14.8953 22.5218 15.8397 22.5218 17.7549C22.5218 19.5781 23.6633 20.6534 25.303 20.6534C25.7617 20.6534 26.129 20.6011 26.2868 20.5223V18.6728H24.9219V17.1118H28.2148V21.7683H28.2148Z" fill="#008EB3"/>
</svg>
