<?xml version="1.0" encoding="utf-8"?>
<!-- Generator: Adobe Illustrator 19.0.0, SVG Export Plug-In . SVG Version: 6.00 Build 0)  -->
<svg version="1.1" id="Слой_1" xmlns="http://www.w3.org/2000/svg" xmlns:xlink="http://www.w3.org/1999/xlink" x="0px" y="0px"
	 viewBox="-1603 1605 32 32" style="enable-background:new -1603 1605 32 32;" xml:space="preserve">
<style type="text/css">
	.st0{fill:#FFCB69;}
</style>
<path class="st0" d="M-1587,1609.6c-6.3,0-11.4,5.1-11.4,11.4s5.1,11.4,11.4,11.4c6.3,0,11.4-5.1,11.4-11.4
	S-1580.7,1609.6-1587,1609.6z M-1587,1630.6c-5.3,0-9.6-4.3-9.6-9.6c0-5.3,4.3-9.6,9.6-9.6c5.3,0,9.6,4.3,9.6,9.6
	C-1577.4,1626.3-1581.7,1630.6-1587,1630.6z"/>
<path class="st0" d="M-1588.8,1618.8c0-0.7,1.1-0.8,2-0.8c0.9,0,2,0.4,3,0.9l0.2-2c-0.5-0.3-1.6-0.6-2.8-0.7l0.3-2h-1.9l0.3,2
	c-2.4,0.2-3.2,1.6-3.2,2.8c0,3,5.6,2.3,5.6,4.2c0,0.7-0.7,0.9-1.8,0.9c-1.6,0-2.7-0.5-3.3-1.1l-0.3,2.2c0.6,0.3,1.7,0.6,3.1,0.7
	l-0.3,2h1.9l-0.3-2c2.9-0.2,3.4-1.8,3.4-2.8C-1583,1619.6-1588.8,1620.5-1588.8,1618.8z"/>
</svg>
