<svg width="32" height="32" viewBox="0 0 32 32" fill="none" xmlns="http://www.w3.org/2000/svg">
<g filter="url(#filter0_d)">
<path d="M13.0615 12.0702C13.0615 10.3814 14.3815 9.06142 16.0703 9.06142C17.7591 9.06142 19.079 10.3814 19.079 12.0702C19.079 13.759 17.7591 15.0789 16.0703 15.0789C14.3815 15.0789 13.0615 13.759 13.0615 12.0702ZM13.465 12.0702C13.465 13.4691 14.6713 14.6754 16.0703 14.6754C17.4692 14.6754 18.6755 13.4691 18.6755 12.0702C18.6755 10.6712 17.4692 9.4649 16.0703 9.4649C14.6713 9.4649 13.465 10.6712 13.465 12.0702Z" fill="#008EB3" stroke="#008EB3"/>
<mask id="path-2-inside-1" fill="white">
<path d="M26.3158 9.40354H25.0527C24.9123 9.40354 24.772 9.40354 24.772 9.2632C24.6317 8.84218 24.4913 8.28073 24.2106 7.85971C24.2106 7.85971 24.0703 7.71937 24.2106 7.57903L25.1931 6.59657C25.8949 5.89478 25.8949 4.91232 25.1931 4.21062L23.7896 2.80713C23.0878 2.24577 21.9651 2.24577 21.4037 2.80713L20.4212 3.7896C20.4212 3.7896 20.2809 3.7896 20.1405 3.7896C19.7195 3.64926 19.1581 3.36858 18.737 3.22823C18.737 3.08789 18.5967 3.08789 18.5967 2.94755V1.68425C18.5965 0.701783 17.7544 0 16.9123 0H15.0877C14.1052 0 13.4035 0.842124 13.4035 1.68425V2.94739C13.4035 3.08773 13.4035 3.22807 13.2631 3.22807C12.8421 3.36841 12.2807 3.50875 11.8596 3.78944C11.7193 3.92978 11.7193 3.92978 11.579 3.78944L10.5965 2.80697C9.89471 2.24561 8.77198 2.24561 8.21054 2.80697L6.80697 4.21054C6.10519 4.91232 6.10519 5.89478 6.80697 6.59649L7.78944 7.57895C7.78944 7.71929 7.78944 7.71929 7.78944 7.85963C7.6491 8.28065 7.36841 8.70176 7.22807 9.26312C7.08773 9.26312 7.08773 9.40346 6.94739 9.40346H5.68425C4.70178 9.40354 4 10.2457 4 11.0877V12.9122C4 13.8947 4.84212 14.5965 5.68425 14.5965H6.94739C7.08773 14.5965 7.22807 14.5965 7.22807 14.7368C7.36841 15.1578 7.50875 15.7193 7.78944 16.1403C7.78944 16.1403 7.92978 16.2806 7.78944 16.421L6.80697 17.4034C6.10519 18.1052 6.10519 19.0877 6.80697 19.7894L8.21046 21.1929C8.91224 21.7542 10.035 21.7542 10.5964 21.1929L11.5789 20.2104C11.5789 20.2104 11.7192 20.2104 11.8596 20.2104C12.4209 20.4911 12.9824 20.7718 13.5438 20.9122V22.3157C13.5438 23.2981 14.3859 23.9999 15.228 23.9999H17.0526C17.8947 23.9999 18.5964 23.2981 18.5964 22.3157V21.0527C18.5964 20.9123 18.5964 20.772 18.7367 20.772C19.1577 20.6317 19.7192 20.4913 20.1402 20.2106C20.2806 20.0703 20.2805 20.0703 20.4209 20.2106L21.4034 21.1931C22.1051 21.7545 23.2279 21.7545 23.7893 21.1931L25.1928 19.7896C25.8946 19.0878 25.8946 18.1054 25.1928 17.4037L24.2103 16.4212C24.2103 16.2809 24.2103 16.2809 24.2103 16.1405C24.3507 15.7195 24.6313 15.2984 24.7717 14.737C24.912 14.737 24.912 14.5967 25.0524 14.5967H26.3155C27.298 14.5967 27.9998 13.7546 27.9998 12.9125V11.0877C28 10.1052 27.1579 9.40354 26.3158 9.40354ZM26.7369 12.9123C26.7369 13.0526 26.5965 13.193 26.4562 13.193H25.193C24.4912 13.193 23.9299 13.614 23.6492 14.3158C23.5089 14.7368 23.2282 15.1579 23.0878 15.5789C22.8072 16.2807 22.8072 16.9824 23.3685 17.5439L24.351 18.5263C24.4913 18.5263 24.4913 18.6667 24.351 18.807L22.9475 20.2105C22.9475 20.3508 22.8072 20.3508 22.6668 20.2105L21.6844 19.228C21.123 18.6667 20.4212 18.6667 19.7194 18.9473C19.2984 19.228 18.8773 19.3684 18.4563 19.5087C17.7545 19.649 17.3335 20.3508 17.3335 21.0525V22.3157C17.3335 22.456 17.1931 22.5964 17.0528 22.5964H15.2283C15.0879 22.5964 14.9476 22.456 14.9476 22.3157V20.3507C14.9476 20.0701 14.6669 19.7894 14.3862 19.649C13.8249 19.5086 13.1231 19.2279 12.5617 18.9472C12.2811 18.8068 12.0004 18.8068 11.7196 18.8068C11.2986 18.8068 10.8775 18.9472 10.5968 19.2279L9.61435 20.2103C9.61435 20.3507 9.47401 20.3507 9.33367 20.2103L7.93018 18.8068C7.78984 18.8068 7.78984 18.6665 7.93018 18.5262L8.91264 17.5437C9.47401 16.9823 9.47401 16.2805 9.19333 15.5788C8.91264 15.1577 8.7723 14.7366 8.63196 14.3156C8.49162 13.6138 7.78984 13.1928 7.08814 13.1928H5.82475C5.68441 13.1928 5.54407 13.0525 5.54407 12.9121V11.0877C5.54407 10.9474 5.68441 10.807 5.82475 10.807H7.08789C7.78968 10.807 8.35104 10.386 8.63172 9.68422C8.77206 9.2632 9.05274 8.8421 9.19308 8.42107C9.47376 7.71929 9.47376 7.01759 8.9124 6.45615L7.92994 5.47368C7.7896 5.47368 7.7896 5.33334 7.92994 5.193L9.33342 3.78952C9.33342 3.64918 9.47376 3.64918 9.6141 3.78952L10.5966 4.77198C11.1579 5.33334 11.8597 5.33334 12.5615 5.05266C12.9825 4.77198 13.4036 4.63164 13.8246 4.4913C14.5264 4.35096 14.9474 3.64918 14.9474 2.94747V1.68425C14.9474 1.54391 15.0878 1.40357 15.2281 1.40357H17.0526C17.193 1.40357 17.3333 1.54391 17.3333 1.68425V2.94739C17.3333 3.64918 17.7543 4.21054 18.4561 4.49122C18.8771 4.63156 19.2982 4.91224 19.7193 5.05258C20.4211 5.33326 21.1228 5.19292 21.6842 4.7719L22.6667 3.78944C22.6667 3.64909 22.807 3.64909 22.9473 3.78944L24.3508 5.19292C24.4912 5.19292 24.4912 5.33326 24.3508 5.4736L23.3684 6.45607C22.807 7.01743 22.807 7.71921 23.0877 8.42099C23.3684 8.84202 23.5087 9.26312 23.649 9.68414C23.7894 10.3859 24.4912 10.8069 25.1929 10.8069H26.456C26.5964 10.8069 26.7367 10.9473 26.7367 11.0876V12.9123H26.7369Z"/>
</mask>
<path d="M26.3158 9.40354H25.0527C24.9123 9.40354 24.772 9.40354 24.772 9.2632C24.6317 8.84218 24.4913 8.28073 24.2106 7.85971C24.2106 7.85971 24.0703 7.71937 24.2106 7.57903L25.1931 6.59657C25.8949 5.89478 25.8949 4.91232 25.1931 4.21062L23.7896 2.80713C23.0878 2.24577 21.9651 2.24577 21.4037 2.80713L20.4212 3.7896C20.4212 3.7896 20.2809 3.7896 20.1405 3.7896C19.7195 3.64926 19.1581 3.36858 18.737 3.22823C18.737 3.08789 18.5967 3.08789 18.5967 2.94755V1.68425C18.5965 0.701783 17.7544 0 16.9123 0H15.0877C14.1052 0 13.4035 0.842124 13.4035 1.68425V2.94739C13.4035 3.08773 13.4035 3.22807 13.2631 3.22807C12.8421 3.36841 12.2807 3.50875 11.8596 3.78944C11.7193 3.92978 11.7193 3.92978 11.579 3.78944L10.5965 2.80697C9.89471 2.24561 8.77198 2.24561 8.21054 2.80697L6.80697 4.21054C6.10519 4.91232 6.10519 5.89478 6.80697 6.59649L7.78944 7.57895C7.78944 7.71929 7.78944 7.71929 7.78944 7.85963C7.6491 8.28065 7.36841 8.70176 7.22807 9.26312C7.08773 9.26312 7.08773 9.40346 6.94739 9.40346H5.68425C4.70178 9.40354 4 10.2457 4 11.0877V12.9122C4 13.8947 4.84212 14.5965 5.68425 14.5965H6.94739C7.08773 14.5965 7.22807 14.5965 7.22807 14.7368C7.36841 15.1578 7.50875 15.7193 7.78944 16.1403C7.78944 16.1403 7.92978 16.2806 7.78944 16.421L6.80697 17.4034C6.10519 18.1052 6.10519 19.0877 6.80697 19.7894L8.21046 21.1929C8.91224 21.7542 10.035 21.7542 10.5964 21.1929L11.5789 20.2104C11.5789 20.2104 11.7192 20.2104 11.8596 20.2104C12.4209 20.4911 12.9824 20.7718 13.5438 20.9122V22.3157C13.5438 23.2981 14.3859 23.9999 15.228 23.9999H17.0526C17.8947 23.9999 18.5964 23.2981 18.5964 22.3157V21.0527C18.5964 20.9123 18.5964 20.772 18.7367 20.772C19.1577 20.6317 19.7192 20.4913 20.1402 20.2106C20.2806 20.0703 20.2805 20.0703 20.4209 20.2106L21.4034 21.1931C22.1051 21.7545 23.2279 21.7545 23.7893 21.1931L25.1928 19.7896C25.8946 19.0878 25.8946 18.1054 25.1928 17.4037L24.2103 16.4212C24.2103 16.2809 24.2103 16.2809 24.2103 16.1405C24.3507 15.7195 24.6313 15.2984 24.7717 14.737C24.912 14.737 24.912 14.5967 25.0524 14.5967H26.3155C27.298 14.5967 27.9998 13.7546 27.9998 12.9125V11.0877C28 10.1052 27.1579 9.40354 26.3158 9.40354ZM26.7369 12.9123C26.7369 13.0526 26.5965 13.193 26.4562 13.193H25.193C24.4912 13.193 23.9299 13.614 23.6492 14.3158C23.5089 14.7368 23.2282 15.1579 23.0878 15.5789C22.8072 16.2807 22.8072 16.9824 23.3685 17.5439L24.351 18.5263C24.4913 18.5263 24.4913 18.6667 24.351 18.807L22.9475 20.2105C22.9475 20.3508 22.8072 20.3508 22.6668 20.2105L21.6844 19.228C21.123 18.6667 20.4212 18.6667 19.7194 18.9473C19.2984 19.228 18.8773 19.3684 18.4563 19.5087C17.7545 19.649 17.3335 20.3508 17.3335 21.0525V22.3157C17.3335 22.456 17.1931 22.5964 17.0528 22.5964H15.2283C15.0879 22.5964 14.9476 22.456 14.9476 22.3157V20.3507C14.9476 20.0701 14.6669 19.7894 14.3862 19.649C13.8249 19.5086 13.1231 19.2279 12.5617 18.9472C12.2811 18.8068 12.0004 18.8068 11.7196 18.8068C11.2986 18.8068 10.8775 18.9472 10.5968 19.2279L9.61435 20.2103C9.61435 20.3507 9.47401 20.3507 9.33367 20.2103L7.93018 18.8068C7.78984 18.8068 7.78984 18.6665 7.93018 18.5262L8.91264 17.5437C9.47401 16.9823 9.47401 16.2805 9.19333 15.5788C8.91264 15.1577 8.7723 14.7366 8.63196 14.3156C8.49162 13.6138 7.78984 13.1928 7.08814 13.1928H5.82475C5.68441 13.1928 5.54407 13.0525 5.54407 12.9121V11.0877C5.54407 10.9474 5.68441 10.807 5.82475 10.807H7.08789C7.78968 10.807 8.35104 10.386 8.63172 9.68422C8.77206 9.2632 9.05274 8.8421 9.19308 8.42107C9.47376 7.71929 9.47376 7.01759 8.9124 6.45615L7.92994 5.47368C7.7896 5.47368 7.7896 5.33334 7.92994 5.193L9.33342 3.78952C9.33342 3.64918 9.47376 3.64918 9.6141 3.78952L10.5966 4.77198C11.1579 5.33334 11.8597 5.33334 12.5615 5.05266C12.9825 4.77198 13.4036 4.63164 13.8246 4.4913C14.5264 4.35096 14.9474 3.64918 14.9474 2.94747V1.68425C14.9474 1.54391 15.0878 1.40357 15.2281 1.40357H17.0526C17.193 1.40357 17.3333 1.54391 17.3333 1.68425V2.94739C17.3333 3.64918 17.7543 4.21054 18.4561 4.49122C18.8771 4.63156 19.2982 4.91224 19.7193 5.05258C20.4211 5.33326 21.1228 5.19292 21.6842 4.7719L22.6667 3.78944C22.6667 3.64909 22.807 3.64909 22.9473 3.78944L24.3508 5.19292C24.4912 5.19292 24.4912 5.33326 24.3508 5.4736L23.3684 6.45607C22.807 7.01743 22.807 7.71921 23.0877 8.42099C23.3684 8.84202 23.5087 9.26312 23.649 9.68414C23.7894 10.3859 24.4912 10.8069 25.1929 10.8069H26.456C26.5964 10.8069 26.7367 10.9473 26.7367 11.0876V12.9123H26.7369Z" fill="#008EB3" stroke="#008EB3" stroke-width="2" mask="url(#path-2-inside-1)"/>
</g>
<defs>
<filter id="filter0_d" x="0" y="0" width="32" height="32" filterUnits="userSpaceOnUse" color-interpolation-filters="sRGB">
<feFlood flood-opacity="0" result="BackgroundImageFix"/>
<feColorMatrix in="SourceAlpha" type="matrix" values="0 0 0 0 0 0 0 0 0 0 0 0 0 0 0 0 0 0 127 0"/>
<feOffset dy="4"/>
<feGaussianBlur stdDeviation="2"/>
<feColorMatrix type="matrix" values="0 0 0 0 0 0 0 0 0 0 0 0 0 0 0 0 0 0 0.25 0"/>
<feBlend mode="normal" in2="BackgroundImageFix" result="effect1_dropShadow"/>
<feBlend mode="normal" in="SourceGraphic" in2="effect1_dropShadow" result="shape"/>
</filter>
</defs>
</svg>
