<?xml version="1.0" encoding="utf-8"?>
<!-- Generator: Adobe Illustrator 19.0.0, SVG Export Plug-In . SVG Version: 6.00 Build 0)  -->
<svg version="1.1" id="Слой_1" xmlns="http://www.w3.org/2000/svg" xmlns:xlink="http://www.w3.org/1999/xlink" x="0px" y="0px"
	 viewBox="-1608 1607 23 28" style="enable-background:new -1608 1607 23 28;" xml:space="preserve">
<style type="text/css">
	.st0{fill:#F4656D;}
</style>
<path class="st0" d="M-1596.7,1635c-0.2,0-0.4,0-0.5-0.1c-2.9-1.6-5.3-3.8-7.1-6.4c-1.4-2.1-2.5-4.4-3.1-7c-1-4.4-0.5-7.9-0.5-8
	c0-0.2,0.1-0.4,0.3-0.6c0.2-0.2,0.3-0.3,0.6-0.3l0.6-0.1c3.5-0.6,6.6-2.4,8.9-5.1c0.1-0.1,0.2-0.2,0.4-0.3c0.1-0.1,0.3-0.1,0.4-0.1
	c0.2,0,0.3,0,0.4,0.1c0.1,0.1,0.3,0.2,0.4,0.3c2.3,2.7,5.4,4.5,8.9,5.1l0.6,0.1c0.2,0,0.4,0.1,0.6,0.3s0.3,0.4,0.3,0.6
	c0,0.1,0.5,3.6-0.5,8c-0.6,2.6-1.7,4.9-3.1,7c-1.8,2.6-4.2,4.7-7.1,6.4C-1596.3,1635-1596.5,1635-1596.7,1635z M-1605.9,1614.5
	c-0.1,2.2,0.1,4.4,0.6,6.6c0.6,2.3,1.5,4.4,2.8,6.3c1.5,2.2,3.4,4,5.8,5.4c2.4-1.4,4.3-3.2,5.8-5.4c1.3-1.9,2.2-4,2.8-6.3
	c0.5-2.1,0.7-4.4,0.6-6.6c-3.5-0.7-6.7-2.4-9.2-4.9C-1599.2,1612.1-1602.4,1613.8-1605.9,1614.5z"/>
<path class="st0" d="M-1599.5,1624.9c-0.2,0-0.4-0.1-0.6-0.2c-0.2-0.1-0.3-0.3-0.4-0.5s-0.1-0.4-0.1-0.6s0.1-0.4,0.3-0.5l5.7-5.7
	c0.2-0.2,0.5-0.3,0.7-0.3s0.5,0.1,0.7,0.3c0.2,0.2,0.3,0.5,0.3,0.7c0,0.3-0.1,0.5-0.3,0.7l-5.7,5.7c-0.1,0.1-0.2,0.2-0.3,0.2
	S-1599.4,1624.9-1599.5,1624.9z"/>
<path class="st0" d="M-1593.8,1624.9c-0.1,0-0.3,0-0.4-0.1c-0.1-0.1-0.2-0.1-0.3-0.2l-5.7-5.7c-0.2-0.2-0.3-0.5-0.3-0.7
	c0-0.3,0.1-0.5,0.3-0.7c0.2-0.2,0.5-0.3,0.7-0.3c0.3,0,0.5,0.1,0.7,0.3l5.7,5.7c0.1,0.1,0.2,0.3,0.3,0.5c0,0.2,0,0.4-0.1,0.6
	s-0.2,0.4-0.4,0.5C-1593.4,1624.8-1593.6,1624.9-1593.8,1624.9L-1593.8,1624.9z"/>
</svg>
