<svg width="16" height="21" viewBox="0 0 16 21" fill="none" xmlns="http://www.w3.org/2000/svg">
<path d="M11.3333 5.24478V3.57811C11.3333 1.73728 9.84083 0.244781 8 0.244781C6.15917 0.244781 4.66667 1.73728 4.66667 3.57811V5.24478H0.5V20.2448H15.5V5.24478H11.3333ZM5.5 3.57811C5.5 2.19978 6.62167 1.07811 8 1.07811C9.37833 1.07811 10.5 2.19978 10.5 3.57811V5.24478H5.5V3.57811ZM13.8333 18.5781H2.16667V6.91145H4.66667V8.16145C4.66667 8.39145 4.85333 8.57811 5.08333 8.57811C5.31333 8.57811 5.5 8.39145 5.5 8.16145V6.91145H10.5V8.16145C10.5 8.39145 10.6867 8.57811 10.9167 8.57811C11.1467 8.57811 11.3333 8.39145 11.3333 8.16145V6.91145H13.8333V18.5781Z" fill="#008EB3"/>
</svg>
