<svg width="24" height="24" viewBox="0 0 24 24" fill="none" xmlns="http://www.w3.org/2000/svg">
<path d="M20 0H4C1.79086 0 0 1.79086 0 4V20C0 22.2091 1.79086 24 4 24H20C22.2091 24 24 22.2091 24 20V4C24 1.79086 22.2091 0 20 0Z" fill="#008EB3"/>
<path d="M7.36888 8.42902C7.82952 9.5091 8.4133 10.5274 9.1822 11.4416C9.28418 11.5633 9.41273 11.6714 9.54816 11.7595C9.74596 11.8885 9.93258 11.8431 10.013 11.6283C10.0981 11.4028 10.1761 10.9459 10.1808 10.7092C10.1935 10.0906 10.1789 9.68517 10.1439 9.06733C10.1212 8.67161 9.97303 8.32414 9.35997 8.21926C9.17065 8.18675 9.15306 8.03878 9.27469 7.89118C9.52791 7.58388 9.88067 7.5349 10.2632 7.51552C10.8832 7.48373 11.5054 7.50968 12.1262 7.51552C12.379 7.51772 12.6334 7.53707 12.8824 7.5886C13.2072 7.65584 13.3811 7.87216 13.4346 8.17321C13.4623 8.32851 13.4766 8.48816 13.4727 8.6453C13.4565 9.32053 13.4223 9.9954 13.4142 10.6703C13.4107 10.9352 13.4311 11.2067 13.4908 11.4646C13.5743 11.8242 13.8321 11.9144 14.0957 11.6546C14.4305 11.3247 14.7257 10.9535 15.0028 10.5764C15.5061 9.89056 15.8821 9.13789 16.2057 8.36182C16.3731 7.96138 16.5013 7.8744 16.955 7.87332C17.8077 7.87148 18.6605 7.87076 19.5133 7.87332C19.6646 7.87404 19.8227 7.88758 19.9655 7.9307C20.1971 8.00086 20.2891 8.18026 20.2348 8.40791C20.1082 8.94139 19.8046 9.39481 19.4795 9.83074C18.9576 10.5301 18.4108 11.2126 17.8767 11.9039C17.8086 11.992 17.7485 12.0859 17.6927 12.1812C17.493 12.524 17.5068 12.7161 17.7981 13.0015C18.2619 13.4557 18.7583 13.8806 19.2074 14.3472C19.5337 14.6867 19.8358 15.0549 20.0944 15.4426C20.4215 15.933 20.2195 16.3948 19.6084 16.477C19.224 16.5285 17.3461 16.4774 17.249 16.477C16.7441 16.4748 16.3016 16.3086 15.9452 15.983C15.5488 15.6206 15.1886 15.223 14.808 14.8448C14.6934 14.7308 14.571 14.6216 14.439 14.5262C14.1277 14.3007 13.8221 14.3508 13.6766 14.6979C13.5524 14.9961 13.445 15.7791 13.44 15.846C13.4138 16.1957 13.1794 16.4185 12.7669 16.4401C11.5759 16.5015 10.4217 16.3754 9.34656 15.8284C8.43528 15.3651 7.70759 14.71 7.07724 13.946C6.07591 12.7325 5.285 11.3986 4.56292 10.0255C4.52602 9.95528 3.79465 8.47763 3.775 8.40783C3.70967 8.17413 3.77062 7.95089 3.97858 7.87404C4.10823 7.82615 6.51955 7.87388 6.55966 7.87592C6.94443 7.89571 7.2068 8.04984 7.36888 8.42902Z" fill="white"/>
</svg>
