<svg width="32" height="32" viewBox="0 0 32 32" fill="none" xmlns="http://www.w3.org/2000/svg">
<path d="M28.3763 11.4462H27.6079V7.73872C27.6079 7.71561 27.6043 7.69232 27.6016 7.66869C27.6003 7.52161 27.5532 7.37705 27.4524 7.26248L21.2823 0.214601C21.2804 0.212792 21.2786 0.21215 21.2774 0.210224C21.2406 0.169136 21.1978 0.134936 21.1523 0.105404C21.1389 0.096416 21.1254 0.0888871 21.1113 0.0809497C21.0721 0.0596472 21.0304 0.0417297 20.9876 0.0288314C20.9759 0.0257965 20.9654 0.0210107 20.9539 0.0179759C20.9072 0.00688685 20.8589 0 20.8099 0H5.64685C4.95449 0 4.39199 0.563146 4.39199 1.25492V11.4459H3.62369C2.63321 11.4459 1.83008 12.2487 1.83008 13.2396V22.5667C1.83008 23.5566 2.63321 24.3603 3.62369 24.3603H4.39199V30.7451C4.39199 31.437 4.95449 32 5.64685 32H26.3527C27.0445 32 27.6076 31.437 27.6076 30.7451V24.3603H28.376C29.3662 24.3603 30.1694 23.557 30.1694 22.5668V13.2399C30.1695 12.2488 29.3668 11.4462 28.3763 11.4462ZM5.64685 1.25492H20.1824V7.67522C20.1824 8.0219 20.4636 8.30269 20.8099 8.30269H26.3528V11.4462H5.64685V1.25492ZM18.3595 18.3646C17.1266 17.9351 16.3221 17.2531 16.3221 16.1734C16.3221 14.9071 17.3791 13.9383 19.1303 13.9383C19.9667 13.9383 20.5837 14.1142 21.0237 14.3126L20.6496 15.6666C20.3524 15.5238 19.824 15.3143 19.0972 15.3143C18.3705 15.3143 18.0182 15.6447 18.0182 16.0301C18.0182 16.5038 18.4367 16.7128 19.3944 17.0761C20.7044 17.5608 21.3212 18.2433 21.3212 19.2893C21.3212 20.5337 20.3631 21.5908 18.3261 21.5908C17.4784 21.5908 16.6417 21.3708 16.2232 21.1393L16.5642 19.752C17.0158 19.983 17.7097 20.2146 18.4251 20.2146C19.1966 20.2146 19.6034 19.8954 19.6034 19.4107C19.6036 18.9486 19.2514 18.6838 18.3595 18.3646ZM15.5196 20.0711V21.481H10.8833V14.0586H12.5686V20.0711H15.5196ZM5.49978 21.481H3.58395L5.73101 17.7251L3.6607 14.0583H5.58791L6.2372 15.413C6.45746 15.8645 6.62274 16.2274 6.79912 16.6465H6.82054C6.9972 16.1728 7.14019 15.8425 7.32684 15.413L7.95459 14.0583H9.87048L7.77828 17.6807L9.9809 21.4803H8.04313L7.37108 20.1367C7.09625 19.6199 6.91993 19.2341 6.71064 18.8046H6.68875C6.53438 19.2341 6.34762 19.6199 6.11615 20.1367L5.49978 21.481ZM26.3528 30.4053H5.64685V24.3603H26.3527V30.4053H26.3528ZM26.3641 21.481L25.6922 20.1373C25.417 19.6201 25.2409 19.2347 25.0316 18.8052H25.0102C24.8558 19.2347 24.6683 19.6201 24.4367 20.1373L23.8209 21.481H21.9045L24.0516 17.7251L21.9814 14.0583H23.9085L24.5586 15.413C24.7786 15.8645 24.9434 16.2274 25.12 16.6465H25.142C25.3178 16.1728 25.4606 15.8425 25.648 15.413L26.2755 14.0583H28.1919L26.0996 17.6807L28.3019 21.4803H26.3641V21.481Z" fill="#008EB3"/>
</svg>
