<svg width="209" height="72" viewBox="0 0 209 72" fill="none" xmlns="http://www.w3.org/2000/svg">
<g clip-path="url(#clip0)">
<path fill-rule="evenodd" clip-rule="evenodd" d="M64.6352 28.6852C63.2046 24.9063 64.3491 21.8718 66.6094 21.1274C69.3562 20.24 73.2761 22.1008 73.5622 25.5648C73.0758 24.5055 72.5894 23.9616 71.9313 23.4177C67.525 19.7533 63.4907 22.5302 64.6352 28.6852Z" fill="#F4656D"/>
<path fill-rule="evenodd" clip-rule="evenodd" d="M75.6514 27.1107C77.7115 27.1393 81.6886 29.086 81.1736 34.0959L80.0291 33.7524C80.6585 28.9429 77.5684 28.3131 75.6514 27.1107Z" fill="#F4656D"/>
<path fill-rule="evenodd" clip-rule="evenodd" d="M67.4392 32.3496C65.0072 32.779 62.0315 31.7484 60.8584 28.3131C63.2904 32.7504 70.558 33.4947 69.2132 25.9656C69.3276 26.3377 69.4135 26.6813 69.4993 27.0534C69.5279 27.1393 70.4435 26.5668 70.9872 25.8797C70.4721 27.2825 69.6424 27.5115 69.6424 27.626C69.9857 29.9162 69.3276 32.0061 67.4392 32.3496Z" fill="#F4656D"/>
<path fill-rule="evenodd" clip-rule="evenodd" d="M62.9759 27.0535C57.0246 29.4868 53.1905 23.3891 55.0217 18.4937C57.4251 11.9665 65.4652 13.8273 66.1805 19.238C65.6369 16.9191 63.6054 15.545 62.232 15.1728C58.9416 14.2854 55.9945 17.2054 55.6512 19.9823C55.4223 21.8718 55.3364 24.3624 58.0546 26.5954C59.056 27.3397 60.9731 27.9123 62.9759 27.0535Z" fill="#F4656D"/>
<path fill-rule="evenodd" clip-rule="evenodd" d="M62.4611 20.6407C61.6027 20.698 61.0877 20.927 61.1449 21.0415C61.2022 21.2419 62.0319 20.927 62.4611 20.6407Z" fill="#F4656D"/>
<path fill-rule="evenodd" clip-rule="evenodd" d="M58.4268 24.4196C59.0276 23.8184 59.2279 23.1314 59.1135 23.0741C58.9132 22.9882 58.5412 23.9043 58.4268 24.4196Z" fill="#F4656D"/>
<path fill-rule="evenodd" clip-rule="evenodd" d="M63.348 21.4138C62.8616 22.244 61.9746 22.6734 61.9746 22.6734C62.8616 22.5303 63.2908 21.9577 63.348 21.4138Z" fill="#F4656D"/>
<path fill-rule="evenodd" clip-rule="evenodd" d="M60.4869 23.9617C59.9146 25.1354 58.999 25.3358 58.999 25.3358C60.0005 25.2786 60.4296 24.5056 60.4869 23.9617Z" fill="#F4656D"/>
<path fill-rule="evenodd" clip-rule="evenodd" d="M73.5339 31.863C73.1334 31.6339 70.9875 31.6053 70.0146 32.2924L71.7028 32.3496C72.1892 32.0061 72.9617 31.9202 73.5339 31.863Z" fill="#F4656D"/>
<path fill-rule="evenodd" clip-rule="evenodd" d="M79.3135 53.1049C84.8643 54.4791 95.7942 57.3705 100 66.7032L99.5424 70.3676C95.6797 57.3991 83.2048 54.5363 79.3135 53.1049Z" fill="#F4656D"/>
<path fill-rule="evenodd" clip-rule="evenodd" d="M78.5696 52.8759C67.8114 50.9006 59.5424 49.4119 55.9659 46.6923C52.3893 43.9726 47.2677 37.3023 40.7441 27.9982C47.6111 35.1838 52.3607 42.6557 56.9101 45.9479C61.4881 49.2401 71.7599 50.8433 78.5696 52.8759Z" fill="#F4656D"/>
<path fill-rule="evenodd" clip-rule="evenodd" d="M84.6924 34.2677C98.6266 37.6745 100.858 52.0743 99.5708 64.4989L98.6838 62.6095C100.2 49.6123 97.0243 37.7317 84.6924 34.2677Z" fill="#F4656D"/>
<path fill-rule="evenodd" clip-rule="evenodd" d="M48.5553 27.9123C47.9259 26.5668 47.7542 26.2805 47.4395 25.3071C46.5811 22.8451 46.0375 20.1255 46.953 20.0682C47.84 20.011 49.3279 20.698 50.6726 22.5589C52.046 24.4483 53.2477 27.4829 54.0775 30.8324C52.6755 26.5668 50.5582 21.5855 47.4108 21.8718C46.7528 21.929 47.0675 23.5895 48.5553 27.9123Z" fill="#F4656D"/>
<path fill-rule="evenodd" clip-rule="evenodd" d="M54.6782 30.0022C54.0201 26.5382 53.9629 25.3644 54.3921 24.8777C54.9357 24.2765 57.8828 27.2539 57.8256 31.9489C57.5394 28.7711 55.8227 26.624 54.9357 26.6813C54.4779 26.7386 54.6496 27.626 54.6782 30.0022Z" fill="#F4656D"/>
<path fill-rule="evenodd" clip-rule="evenodd" d="M61.6883 34.5826C60.5152 31.2618 77.0245 31.7771 83.6626 34.0959C78.7985 32.6359 63.5767 32.2065 61.6883 34.5826Z" fill="#F4656D"/>
<path fill-rule="evenodd" clip-rule="evenodd" d="M40.8301 27.2539C42.5755 23.9044 46.667 28.2845 50.5869 32.0061C52.7042 34.0101 54.6499 35.8995 55.451 36.6725C57.225 38.3615 59.514 40.1937 61.1162 41.253C65.265 43.9726 73.3623 45.5472 78.3408 41.94C72.7042 44.8887 65.8945 43.4287 61.6599 40.9381C55.1649 37.1019 46.4381 25.937 42.6613 25.4789C42.1463 25.4217 40.6584 25.5648 40.8301 27.2539Z" fill="#F4656D"/>
<path fill-rule="evenodd" clip-rule="evenodd" d="M61.631 34.8976C61.488 36.3862 63.405 37.2737 66.6096 37.7317C70.6153 38.3043 75.4794 38.2184 77.7111 39.0772C78.9129 39.5353 78.7698 40.7663 78.6553 41.4247C79.0845 40.48 78.9701 39.6212 78.4837 39.1631C76.3664 37.1592 64.2347 38.6192 61.631 34.8976Z" fill="#F4656D"/>
<path fill-rule="evenodd" clip-rule="evenodd" d="M26.4664 12.3387C21.6023 15.3446 11.8741 21.0989 2.28898 17.549L0 14.6576C11.9313 21.013 22.7468 14.1136 26.4664 12.3387Z" fill="#F4656D"/>
<path fill-rule="evenodd" clip-rule="evenodd" d="M27.1533 11.9661C36.109 5.66797 42.9473 0.801206 47.4108 0.17139C51.8743 -0.458426 60.2005 0.543554 71.4165 2.433C61.4881 2.28986 52.8185 0.45767 47.2964 1.37377C41.717 2.31849 33.3908 8.53077 27.1533 11.9661Z" fill="#F4656D"/>
<path fill-rule="evenodd" clip-rule="evenodd" d="M36.1373 29.3723C24.6352 31.7771 20.8012 31.863 9.0415 25.0495L11.216 24.935C23.3763 32.3783 24.1774 31.0614 36.1373 29.3723Z" fill="#F4656D"/>
<path fill-rule="evenodd" clip-rule="evenodd" d="M66.0087 8.04449C67.4107 8.5598 67.7254 8.61705 68.641 9.0751C70.9872 10.1916 73.3048 11.7089 72.7326 12.396C72.1603 13.0544 70.6153 13.6556 68.3549 13.312C66.0659 12.9685 63.033 11.7089 60.0859 9.96257C64.1203 11.9665 69.1274 13.9419 71.1303 11.5085C71.5309 10.9646 70.1002 9.9912 66.0087 8.04449Z" fill="#F4656D"/>
<path fill-rule="evenodd" clip-rule="evenodd" d="M60.2002 10.9645C63.1186 12.9399 64.0056 13.6842 64.0342 14.3426C64.0628 15.1442 59.8854 15.1729 56.5664 11.852C59.0271 13.8846 61.7739 14.1709 62.3461 13.4838C62.6894 13.1116 61.9169 12.5963 60.2002 10.9645Z" fill="#F4656D"/>
<path fill-rule="evenodd" clip-rule="evenodd" d="M52.0172 12.7394C55.2217 14.2281 43.2904 25.6507 36.9385 28.7425C41.4306 26.3091 52.3891 15.7454 52.0172 12.7394Z" fill="#F4656D"/>
<path fill-rule="evenodd" clip-rule="evenodd" d="M71.8742 2.97729C73.0473 6.58442 67.0388 6.41266 61.631 6.58442C58.7412 6.67031 55.9944 6.75619 54.9071 6.78482C52.4465 6.84208 49.528 7.21424 47.6682 7.61503C42.8327 8.67427 36.023 13.3406 35.1074 19.4384C36.9672 13.3406 42.7755 9.50448 47.5252 8.24485C54.8213 6.29814 68.8986 7.90131 71.8456 5.52519C72.2462 5.21028 73.1904 4.06516 71.8742 2.97729Z" fill="#F4656D"/>
<path fill-rule="evenodd" clip-rule="evenodd" d="M51.8456 12.4818C50.8728 11.3367 48.9272 12.081 46.3235 14.0277C43.0903 16.5183 39.7712 20.0396 37.5967 21.0415C36.4236 21.5855 35.6511 20.6121 35.2505 20.0682C35.6224 21.0415 36.3378 21.5569 36.9672 21.5282C39.9143 21.4137 47.3535 11.7374 51.8456 12.4818Z" fill="#F4656D"/>
</g>
<path d="M123.736 22.032C122.669 22.032 121.901 22.0213 121.432 22C120.963 21.9787 120.579 21.92 120.28 21.824C120.376 21.4507 120.445 20.9387 120.488 20.288C120.531 19.6267 120.552 18.6293 120.552 17.296V12.304C120.552 12.0587 120.531 11.76 120.488 11.408C120.445 11.056 120.376 10.8053 120.28 10.656C120.536 10.5387 120.851 10.48 121.224 10.48H124.408C124.835 10.48 125.235 10.5387 125.608 10.656C125.992 10.7733 126.328 10.9493 126.616 11.184C126.915 11.4187 127.144 11.7173 127.304 12.08C127.464 12.432 127.544 12.832 127.544 13.28C127.544 13.8133 127.405 14.304 127.128 14.752C126.861 15.2 126.477 15.536 125.976 15.76C127.427 16.2507 128.152 17.2533 128.152 18.768C128.152 19.952 127.768 20.7947 127 21.296C126.243 21.7867 125.155 22.032 123.736 22.032ZM124.056 15.344C124.696 15.344 125.203 15.1787 125.576 14.848C125.96 14.5067 126.152 14 126.152 13.328C126.152 13.072 126.104 12.832 126.008 12.608C125.912 12.384 125.784 12.192 125.624 12.032C125.272 11.712 124.84 11.552 124.328 11.552H121.928L121.896 13.152V15.344H124.056ZM123.624 20.752C124.669 20.752 125.432 20.592 125.912 20.272C126.392 19.952 126.632 19.392 126.632 18.592C126.632 17.8133 126.381 17.2373 125.88 16.864C125.453 16.5547 124.899 16.4 124.216 16.4H121.896V17.984C121.896 18.9227 121.949 19.824 122.056 20.688C122.259 20.6987 122.52 20.7147 122.84 20.736C123.171 20.7467 123.432 20.752 123.624 20.752ZM133.507 22.24C132.472 22.24 131.624 21.8987 130.963 21.216C130.302 20.5547 129.971 19.6853 129.971 18.608C129.971 18.1493 130.051 17.7013 130.211 17.264C130.382 16.8267 130.622 16.4373 130.931 16.096C131.251 15.744 131.624 15.4667 132.051 15.264C132.478 15.0613 132.942 14.96 133.443 14.96C133.88 14.96 134.254 15.0133 134.563 15.12C134.872 15.216 135.182 15.3813 135.491 15.616C135.566 15.68 135.614 15.744 135.635 15.808C135.667 15.8613 135.683 15.9413 135.683 16.048C135.683 16.3147 135.544 16.5867 135.267 16.864C135.064 16.5973 134.803 16.384 134.483 16.224C134.163 16.0533 133.832 15.968 133.491 15.968C133.203 15.968 132.92 16.0267 132.643 16.144C132.366 16.2613 132.12 16.432 131.907 16.656C131.438 17.1467 131.203 17.792 131.203 18.592C131.203 18.912 131.262 19.2213 131.379 19.52C131.496 19.808 131.662 20.064 131.875 20.288C132.088 20.5227 132.344 20.704 132.643 20.832C132.942 20.96 133.262 21.024 133.603 21.024C133.934 21.024 134.216 20.9493 134.451 20.8C134.696 20.6507 134.942 20.4213 135.187 20.112C135.432 20.24 135.603 20.432 135.699 20.688C135.742 20.8267 135.763 20.9813 135.763 21.152C135.763 21.2693 135.678 21.4027 135.507 21.552C135.336 21.7013 135.118 21.8347 134.851 21.952C134.627 22.048 134.414 22.1173 134.211 22.16C134.008 22.2133 133.774 22.24 133.507 22.24ZM140.486 22.176C140.006 22.176 139.563 22.0907 139.158 21.92C138.752 21.7493 138.406 21.504 138.118 21.184C137.51 20.5227 137.206 19.6693 137.206 18.624C137.206 18.1333 137.27 17.6693 137.398 17.232C137.526 16.7947 137.718 16.4107 137.974 16.08C138.528 15.3547 139.312 14.992 140.326 14.992C141.243 14.992 141.936 15.2747 142.406 15.84C142.886 16.3947 143.126 17.2 143.126 18.256C143.126 18.5227 143.11 18.8 143.078 19.088H138.39C138.571 20.368 139.339 21.008 140.694 21.008C141.408 21.008 141.942 20.7573 142.294 20.256C142.432 20.3413 142.534 20.4747 142.598 20.656C142.662 20.8373 142.694 21.0187 142.694 21.2C142.694 21.552 142.416 21.8187 141.862 22C141.488 22.1173 141.03 22.176 140.486 22.176ZM142.07 18.048V17.888C142.07 17.2907 141.91 16.8267 141.59 16.496C141.27 16.1653 140.848 16 140.326 16C139.76 16 139.302 16.192 138.95 16.576C138.598 16.9493 138.411 17.44 138.39 18.048H142.07ZM156.954 20.96C157.007 21.3013 157.098 21.6053 157.226 21.872C157.183 21.936 157.071 21.984 156.89 22.016C156.719 22.0587 156.532 22.08 156.33 22.08C156.042 22.08 155.85 22.048 155.754 21.984C155.668 21.9093 155.626 21.7653 155.626 21.552C155.626 21.3707 155.631 21.2213 155.642 21.104C155.642 20.8693 155.647 20.6827 155.658 20.544C155.658 20.2773 155.663 20.0747 155.674 19.936C155.684 19.7973 155.69 19.5947 155.69 19.328L155.738 17.152L155.642 17.408C155.194 18.2933 154.815 19.0133 154.506 19.568L154.042 20.416L153.85 20.768C153.839 20.7787 153.791 20.8 153.706 20.832C153.631 20.864 153.482 20.88 153.258 20.88C153.034 20.88 152.874 20.864 152.778 20.832L152.65 20.768L152.41 20.336C152.282 20.1333 152.148 19.904 152.01 19.648C151.946 19.52 151.839 19.328 151.69 19.072L151.418 18.576C151.151 18.128 150.948 17.76 150.81 17.472L150.778 17.376C150.767 17.3547 150.756 17.3333 150.746 17.312C150.735 17.2907 150.73 17.264 150.73 17.232L150.762 19.328L150.81 20.496C150.831 21.0507 150.842 21.3867 150.842 21.504C150.842 21.6107 150.836 21.7067 150.826 21.792C150.815 21.8667 150.788 21.9253 150.746 21.968C150.66 22.0533 150.458 22.096 150.138 22.096C149.935 22.096 149.743 22.0747 149.562 22.032C149.391 21.9893 149.279 21.9413 149.226 21.888L149.386 21.472C149.492 21.2053 149.567 20.8373 149.61 20.368C149.631 20.0267 149.642 19.6907 149.642 19.36V17.472C149.642 17.024 149.631 16.6453 149.61 16.336C149.567 15.8027 149.492 15.44 149.386 15.248C149.556 15.1413 149.807 15.088 150.138 15.088C150.33 15.088 150.474 15.1093 150.57 15.152C150.666 15.1947 150.746 15.2693 150.81 15.376L153.306 19.792L155.626 15.408C155.7 15.2693 155.78 15.1787 155.866 15.136C155.951 15.0933 156.095 15.072 156.298 15.072C156.436 15.072 156.575 15.088 156.714 15.12C156.863 15.152 156.98 15.1947 157.066 15.248C156.991 15.3653 156.922 15.6747 156.858 16.176C156.826 16.4427 156.81 16.8107 156.81 17.28V19.296C156.82 20.032 156.868 20.5867 156.954 20.96ZM160.524 17.376C160.524 17.1627 160.534 16.8747 160.556 16.512C160.566 16.3413 160.572 16.112 160.572 15.824C160.572 15.6213 160.556 15.456 160.524 15.328C160.47 15.104 160.268 14.992 159.916 14.992C159.777 14.992 159.633 15.008 159.484 15.04C159.345 15.072 159.233 15.1147 159.148 15.168C159.244 15.3387 159.313 15.7173 159.356 16.304C159.377 16.6133 159.388 16.992 159.388 17.44V19.408V20.24C159.377 20.4427 159.372 20.7253 159.372 21.088C159.361 21.2907 159.356 21.5947 159.356 22L159.644 22.016L160.172 22.048L160.764 22.08C160.892 22.0907 161.036 22.096 161.196 22.096C162.454 22.096 163.372 21.8827 163.948 21.456C164.524 21.0293 164.812 20.3893 164.812 19.536C164.812 19.1627 164.742 18.8213 164.604 18.512C164.476 18.192 164.289 17.9253 164.044 17.712C163.809 17.5093 163.526 17.3547 163.196 17.248C162.876 17.1307 162.534 17.072 162.172 17.072C161.606 17.072 161.057 17.2053 160.524 17.472V17.376ZM160.556 20.928C160.524 20.8 160.508 20.4373 160.508 19.84V18.48C160.966 18.1493 161.468 17.984 162.012 17.984C162.47 17.984 162.849 18.1013 163.148 18.336C163.468 18.6027 163.628 18.9973 163.628 19.52C163.628 20.0427 163.446 20.416 163.084 20.64C162.732 20.864 162.204 20.976 161.5 20.976H161.34C161.222 20.976 161.132 20.9707 161.068 20.96C160.833 20.96 160.662 20.9493 160.556 20.928ZM167.532 22.032C167.254 22.032 167.068 22 166.972 21.936C166.876 21.872 166.828 21.7493 166.828 21.568L166.86 20.64C166.881 20.1067 166.892 19.712 166.892 19.456V16.928C166.892 16.5653 166.87 16.2347 166.828 15.936C166.774 15.5627 166.71 15.312 166.635 15.184C166.817 15.0773 167.068 15.024 167.388 15.024C167.654 15.024 167.83 15.0667 167.916 15.152C168.001 15.2373 168.044 15.4453 168.044 15.776L168.012 17.024V19.264C168.012 19.6053 168.022 19.9573 168.044 20.32C168.076 20.7147 168.14 21.0453 168.236 21.312C168.342 21.568 168.406 21.7387 168.428 21.824C168.385 21.888 168.273 21.9413 168.092 21.984C167.921 22.016 167.734 22.032 167.532 22.032ZM120.84 45.176C120.584 45.176 120.403 45.1387 120.296 45.064C120.2 45 120.152 44.8667 120.152 44.664L120.168 43.8C120.189 43.2667 120.2 42.8613 120.2 42.584V36.472L120.168 35.352C120.157 34.808 120.088 34.4187 119.96 34.184C120.131 34.0773 120.381 34.024 120.712 34.024C120.925 34.024 121.075 34.0453 121.16 34.088C121.245 34.12 121.293 34.1947 121.304 34.312C121.315 34.3973 121.32 34.5893 121.32 34.888C121.555 34.6213 121.848 34.4027 122.2 34.232C122.552 34.0507 122.915 33.9547 123.288 33.944C124.163 33.944 124.877 34.264 125.432 34.904C125.944 35.512 126.2 36.3013 126.2 37.272C126.2 37.7413 126.12 38.2 125.96 38.648C125.8 39.096 125.571 39.4907 125.272 39.832C124.963 40.1947 124.595 40.4827 124.168 40.696C123.752 40.8987 123.293 41 122.792 41C122.259 41 121.779 40.8667 121.352 40.6V42.296C121.352 43.2453 121.491 44.136 121.768 44.968C121.715 45.0213 121.597 45.0693 121.416 45.112C121.235 45.1547 121.043 45.176 120.84 45.176ZM122.664 39.784C122.984 39.784 123.288 39.72 123.576 39.592C123.864 39.464 124.12 39.288 124.344 39.064C124.568 38.84 124.739 38.5787 124.856 38.28C124.973 37.9707 125.032 37.64 125.032 37.288C125.032 36.68 124.893 36.152 124.616 35.704C124.467 35.4693 124.264 35.2827 124.008 35.144C123.763 34.9947 123.485 34.92 123.176 34.92C122.824 34.92 122.488 35.0213 122.168 35.224C121.848 35.4267 121.576 35.6987 121.352 36.04V39.352C121.512 39.48 121.704 39.5867 121.928 39.672C122.163 39.7467 122.408 39.784 122.664 39.784ZM131.177 41.224C130.665 41.224 130.19 41.128 129.753 40.936C129.326 40.744 128.963 40.4773 128.665 40.136C128.046 39.432 127.737 38.568 127.737 37.544C127.737 37.096 127.822 36.6533 127.993 36.216C128.163 35.7787 128.403 35.3893 128.713 35.048C129.022 34.696 129.385 34.424 129.801 34.232C130.227 34.04 130.691 33.944 131.193 33.944C131.694 33.944 132.158 34.0453 132.585 34.248C133.022 34.44 133.395 34.7067 133.705 35.048C134.003 35.3787 134.233 35.7627 134.393 36.2C134.563 36.6267 134.649 37.0693 134.649 37.528C134.649 38.008 134.574 38.4667 134.425 38.904C134.286 39.3413 134.073 39.7307 133.785 40.072C133.155 40.84 132.286 41.224 131.177 41.224ZM131.193 40.04C131.875 40.04 132.425 39.7787 132.841 39.256C133.235 38.7653 133.433 38.152 133.433 37.416C133.433 36.648 133.203 36.0347 132.745 35.576C132.542 35.3733 132.302 35.2187 132.025 35.112C131.758 35.0053 131.481 34.952 131.193 34.952C130.894 34.952 130.606 35.0107 130.329 35.128C130.062 35.2347 129.833 35.3947 129.641 35.608C129.193 36.1093 128.969 36.7493 128.969 37.528C128.969 37.848 129.017 38.1573 129.113 38.456C129.209 38.7547 129.353 39.016 129.545 39.24C129.982 39.7733 130.531 40.04 131.193 40.04ZM139.07 45.176C138.814 45.176 138.542 45.144 138.254 45.08C137.977 45.0267 137.721 44.9467 137.486 44.84C137.219 44.7227 137.017 44.5733 136.878 44.392C136.739 44.2213 136.67 44.0347 136.67 43.832C136.67 43.6293 136.723 43.4267 136.83 43.224C136.937 43.032 137.065 42.904 137.214 42.84C137.449 43.2667 137.71 43.576 137.998 43.768C138.286 43.96 138.691 44.056 139.214 44.056C139.779 44.056 140.222 43.832 140.542 43.384C140.915 42.8827 141.102 42.1787 141.102 41.272V40.152C140.526 40.7707 139.902 41.08 139.23 41.08C138.761 41.08 138.334 40.9947 137.95 40.824C137.577 40.6533 137.257 40.4133 136.99 40.104C136.457 39.4747 136.19 38.6587 136.19 37.656C136.19 37.208 136.265 36.7707 136.414 36.344C136.563 35.9173 136.777 35.5387 137.054 35.208C137.331 34.8667 137.657 34.6 138.03 34.408C138.403 34.216 138.809 34.12 139.246 34.12C139.801 34.12 140.233 34.216 140.542 34.408C140.713 34.5147 140.846 34.6267 140.942 34.744C141.038 34.8507 141.097 34.9147 141.118 34.936C141.118 34.6587 141.134 34.456 141.166 34.328C141.198 34.2 141.251 34.12 141.326 34.088C141.411 34.0453 141.55 34.024 141.742 34.024C142.03 34.024 142.259 34.0773 142.43 34.184C142.345 34.344 142.281 34.6693 142.238 35.16C142.206 35.6507 142.19 36.0613 142.19 36.392L142.158 41.832C142.158 42.6747 141.955 43.4 141.55 44.008C141.017 44.7867 140.19 45.176 139.07 45.176ZM139.39 39.832C139.731 39.832 140.057 39.736 140.366 39.544C140.686 39.3413 140.926 39.096 141.086 38.808V35.992C140.979 35.7787 140.825 35.5973 140.622 35.448C140.313 35.2133 139.929 35.096 139.47 35.096C138.883 35.096 138.382 35.3467 137.966 35.848C137.785 36.072 137.646 36.3333 137.55 36.632C137.454 36.9307 137.406 37.24 137.406 37.56C137.406 38.1573 137.577 38.6747 137.918 39.112C138.291 39.592 138.782 39.832 139.39 39.832ZM147.599 41.224C147.087 41.224 146.612 41.128 146.175 40.936C145.748 40.744 145.385 40.4773 145.087 40.136C144.468 39.432 144.159 38.568 144.159 37.544C144.159 37.096 144.244 36.6533 144.415 36.216C144.585 35.7787 144.825 35.3893 145.135 35.048C145.444 34.696 145.807 34.424 146.223 34.232C146.649 34.04 147.113 33.944 147.615 33.944C148.116 33.944 148.58 34.0453 149.007 34.248C149.444 34.44 149.817 34.7067 150.127 35.048C150.425 35.3787 150.655 35.7627 150.815 36.2C150.985 36.6267 151.071 37.0693 151.071 37.528C151.071 38.008 150.996 38.4667 150.847 38.904C150.708 39.3413 150.495 39.7307 150.207 40.072C149.577 40.84 148.708 41.224 147.599 41.224ZM147.615 40.04C148.297 40.04 148.847 39.7787 149.263 39.256C149.657 38.7653 149.855 38.152 149.855 37.416C149.855 36.648 149.625 36.0347 149.167 35.576C148.964 35.3733 148.724 35.2187 148.447 35.112C148.18 35.0053 147.903 34.952 147.615 34.952C147.316 34.952 147.028 35.0107 146.751 35.128C146.484 35.2347 146.255 35.3947 146.063 35.608C145.615 36.1093 145.391 36.7493 145.391 37.528C145.391 37.848 145.439 38.1573 145.535 38.456C145.631 38.7547 145.775 39.016 145.967 39.24C146.404 39.7733 146.953 40.04 147.615 40.04ZM160.532 39.96C160.585 40.3013 160.676 40.6053 160.804 40.872C160.761 40.936 160.649 40.984 160.468 41.016C160.297 41.0587 160.11 41.08 159.908 41.08C159.62 41.08 159.428 41.048 159.332 40.984C159.246 40.9093 159.204 40.7653 159.204 40.552C159.204 40.3707 159.209 40.2213 159.22 40.104C159.22 39.8693 159.225 39.6827 159.236 39.544C159.236 39.2773 159.241 39.0747 159.252 38.936C159.262 38.7973 159.268 38.5947 159.268 38.328L159.316 36.152L159.22 36.408C158.772 37.2933 158.393 38.0133 158.084 38.568L157.62 39.416L157.428 39.768C157.417 39.7787 157.369 39.8 157.284 39.832C157.209 39.864 157.06 39.88 156.836 39.88C156.612 39.88 156.452 39.864 156.356 39.832L156.228 39.768L155.988 39.336C155.86 39.1333 155.726 38.904 155.588 38.648C155.524 38.52 155.417 38.328 155.268 38.072L154.996 37.576C154.729 37.128 154.526 36.76 154.388 36.472L154.356 36.376C154.345 36.3547 154.334 36.3333 154.324 36.312C154.313 36.2907 154.308 36.264 154.308 36.232L154.34 38.328L154.388 39.496C154.409 40.0507 154.42 40.3867 154.42 40.504C154.42 40.6107 154.414 40.7067 154.404 40.792C154.393 40.8667 154.366 40.9253 154.324 40.968C154.238 41.0533 154.036 41.096 153.716 41.096C153.513 41.096 153.321 41.0747 153.14 41.032C152.969 40.9893 152.857 40.9413 152.804 40.888L152.964 40.472C153.07 40.2053 153.145 39.8373 153.188 39.368C153.209 39.0267 153.22 38.6907 153.22 38.36V36.472C153.22 36.024 153.209 35.6453 153.188 35.336C153.145 34.8027 153.07 34.44 152.964 34.248C153.134 34.1413 153.385 34.088 153.716 34.088C153.908 34.088 154.052 34.1093 154.148 34.152C154.244 34.1947 154.324 34.2693 154.388 34.376L156.884 38.792L159.204 34.408C159.278 34.2693 159.358 34.1787 159.444 34.136C159.529 34.0933 159.673 34.072 159.876 34.072C160.014 34.072 160.153 34.088 160.292 34.12C160.441 34.152 160.558 34.1947 160.644 34.248C160.569 34.3653 160.5 34.6747 160.436 35.176C160.404 35.4427 160.388 35.8107 160.388 36.28V38.296C160.398 39.032 160.446 39.5867 160.532 39.96ZM169.774 41.096C168.793 41.096 168.062 40.744 167.582 40.04C167.219 39.496 167.038 38.776 167.038 37.88C167.038 37.624 167.049 37.3253 167.07 36.984C167.134 36.0667 167.166 35.4693 167.166 35.192C167.166 34.744 167.123 34.408 167.038 34.184C167.113 34.1307 167.214 34.088 167.342 34.056C167.481 34.024 167.619 34.008 167.758 34.008C168.003 34.008 168.174 34.056 168.27 34.152C168.366 34.2373 168.414 34.4187 168.414 34.696C168.414 34.8667 168.398 35.0747 168.366 35.32C168.334 35.5547 168.313 35.7253 168.302 35.832C168.195 36.4933 168.142 37.0213 168.142 37.416C168.142 38.1413 168.259 38.696 168.494 39.08C168.803 39.6027 169.299 39.864 169.982 39.864C170.441 39.864 170.851 39.656 171.214 39.24C171.502 38.8987 171.673 38.536 171.726 38.152L171.774 35.816C171.774 35.6027 171.763 35.2933 171.742 34.888C171.721 34.5787 171.673 34.344 171.598 34.184C171.662 34.1307 171.758 34.088 171.886 34.056C172.025 34.024 172.174 34.008 172.334 34.008C172.537 34.008 172.686 34.0347 172.782 34.088C172.921 34.1627 172.99 34.3867 172.99 34.76L172.894 36.536L172.878 37.32C172.857 38.024 172.846 38.5467 172.846 38.888C172.846 39.4107 172.862 39.8053 172.894 40.072C172.926 40.3387 173.011 40.6053 173.15 40.872C173.107 40.9253 173.011 40.968 172.862 41C172.713 41.032 172.547 41.048 172.366 41.048C171.971 41.048 171.747 40.9733 171.694 40.824C171.683 40.792 171.678 40.68 171.678 40.488C171.678 40.2 171.683 40.0293 171.694 39.976C171.534 40.2853 171.31 40.536 171.022 40.728C170.627 40.9733 170.211 41.096 169.774 41.096ZM178.637 39.144C179.128 38.8773 179.512 38.5307 179.789 38.104C180.067 37.6773 180.205 37.1973 180.205 36.664C180.205 35.832 179.923 35.1707 179.357 34.68C178.856 34.2533 178.205 34.04 177.405 34.04C177.117 34.04 176.824 34.0613 176.525 34.104C176.152 34.1573 175.821 34.2853 175.533 34.488C175.245 34.6907 175.101 34.9147 175.101 35.16C175.101 35.416 175.24 35.6827 175.517 35.96C176.019 35.3307 176.637 35.016 177.373 35.016C177.875 35.016 178.269 35.176 178.557 35.496C178.845 35.8053 178.989 36.2 178.989 36.68C178.989 37.384 178.733 37.9173 178.221 38.28C177.805 38.5787 177.283 38.728 176.653 38.728C176.451 38.728 176.275 38.7387 176.125 38.76C175.987 38.7813 175.891 38.8347 175.837 38.92C175.773 39.0267 175.741 39.1653 175.741 39.336C175.741 39.592 175.811 39.8107 175.949 39.992C176.28 39.864 176.643 39.8 177.037 39.8C177.357 39.8 177.661 39.8587 177.949 39.976C178.237 40.0827 178.483 40.232 178.685 40.424C179.112 40.8507 179.325 41.384 179.325 42.024C179.325 42.6853 179.123 43.2187 178.717 43.624C178.312 44.0293 177.789 44.232 177.149 44.232C176.552 44.232 176.067 44.072 175.693 43.752C175.459 43.5493 175.256 43.2667 175.085 42.904C174.861 42.9893 174.68 43.1333 174.541 43.336C174.413 43.5493 174.349 43.7733 174.349 44.008C174.349 44.2 174.435 44.3707 174.605 44.52C174.755 44.6693 174.899 44.7867 175.037 44.872C175.571 45.2347 176.269 45.416 177.133 45.416C178.211 45.416 179.075 45.048 179.725 44.312C180.003 43.992 180.205 43.6187 180.333 43.192C180.472 42.7653 180.541 42.3173 180.541 41.848C180.541 41.2293 180.365 40.6693 180.013 40.168C179.672 39.6773 179.213 39.336 178.637 39.144ZM122.648 65.176C122.392 65.176 122.12 65.144 121.832 65.08C121.555 65.0267 121.299 64.9467 121.064 64.84C120.797 64.7227 120.595 64.5733 120.456 64.392C120.317 64.2213 120.248 64.0347 120.248 63.832C120.248 63.6293 120.301 63.4267 120.408 63.224C120.515 63.032 120.643 62.904 120.792 62.84C121.027 63.2667 121.288 63.576 121.576 63.768C121.864 63.96 122.269 64.056 122.792 64.056C123.357 64.056 123.8 63.832 124.12 63.384C124.493 62.8827 124.68 62.1787 124.68 61.272V60.152C124.104 60.7707 123.48 61.08 122.808 61.08C122.339 61.08 121.912 60.9947 121.528 60.824C121.155 60.6533 120.835 60.4133 120.568 60.104C120.035 59.4747 119.768 58.6587 119.768 57.656C119.768 57.208 119.843 56.7707 119.992 56.344C120.141 55.9173 120.355 55.5387 120.632 55.208C120.909 54.8667 121.235 54.6 121.608 54.408C121.981 54.216 122.387 54.12 122.824 54.12C123.379 54.12 123.811 54.216 124.12 54.408C124.291 54.5147 124.424 54.6267 124.52 54.744C124.616 54.8507 124.675 54.9147 124.696 54.936C124.696 54.6587 124.712 54.456 124.744 54.328C124.776 54.2 124.829 54.12 124.904 54.088C124.989 54.0453 125.128 54.024 125.32 54.024C125.608 54.024 125.837 54.0773 126.008 54.184C125.923 54.344 125.859 54.6693 125.816 55.16C125.784 55.6507 125.768 56.0613 125.768 56.392L125.736 61.832C125.736 62.6747 125.533 63.4 125.128 64.008C124.595 64.7867 123.768 65.176 122.648 65.176ZM122.968 59.832C123.309 59.832 123.635 59.736 123.944 59.544C124.264 59.3413 124.504 59.096 124.664 58.808V55.992C124.557 55.7787 124.403 55.5973 124.2 55.448C123.891 55.2133 123.507 55.096 123.048 55.096C122.461 55.096 121.96 55.3467 121.544 55.848C121.363 56.072 121.224 56.3333 121.128 56.632C121.032 56.9307 120.984 57.24 120.984 57.56C120.984 58.1573 121.155 58.6747 121.496 59.112C121.869 59.592 122.36 59.832 122.968 59.832ZM131.017 61.176C130.537 61.176 130.094 61.0907 129.689 60.92C129.283 60.7493 128.937 60.504 128.649 60.184C128.041 59.5227 127.737 58.6693 127.737 57.624C127.737 57.1333 127.801 56.6693 127.929 56.232C128.057 55.7947 128.249 55.4107 128.505 55.08C129.059 54.3547 129.843 53.992 130.857 53.992C131.774 53.992 132.467 54.2747 132.937 54.84C133.417 55.3947 133.657 56.2 133.657 57.256C133.657 57.5227 133.641 57.8 133.609 58.088H128.921C129.102 59.368 129.87 60.008 131.225 60.008C131.939 60.008 132.473 59.7573 132.825 59.256C132.963 59.3413 133.065 59.4747 133.129 59.656C133.193 59.8373 133.225 60.0187 133.225 60.2C133.225 60.552 132.947 60.8187 132.393 61C132.019 61.1173 131.561 61.176 131.017 61.176ZM132.601 57.048V56.888C132.601 56.2907 132.441 55.8267 132.121 55.496C131.801 55.1653 131.379 55 130.857 55C130.291 55 129.833 55.192 129.481 55.576C129.129 55.9493 128.942 56.44 128.921 57.048H132.601ZM140.436 54.008C140.287 54.072 140.079 54.1147 139.812 54.136L139.172 54.168H136.676C136.463 54.168 136.218 54.1573 135.94 54.136C135.802 54.1253 135.626 54.12 135.412 54.12C135.124 54.12 134.938 54.1787 134.852 54.296C134.767 54.4027 134.724 54.5627 134.724 54.776C134.724 54.968 134.788 55.1707 134.916 55.384C135.055 55.3093 135.295 55.2613 135.636 55.24L136.276 55.208H137.108V58.28C137.108 58.5787 137.087 59.016 137.044 59.592C137.002 60.1893 136.98 60.5413 136.98 60.648C136.98 60.7333 136.991 60.808 137.012 60.872C137.066 60.9893 137.284 61.048 137.668 61.048C138.138 61.048 138.426 60.9947 138.532 60.888C138.276 60.248 138.148 59.432 138.148 58.44V55.208H138.708C139.05 55.208 139.284 55.2133 139.412 55.224C139.54 55.2347 139.706 55.24 139.908 55.24C140.186 55.24 140.367 55.1973 140.452 55.112C140.548 55.0267 140.596 54.8773 140.596 54.664C140.596 54.344 140.543 54.1253 140.436 54.008ZM145.101 61.24C144.066 61.24 143.218 60.8987 142.557 60.216C141.896 59.5547 141.565 58.6853 141.565 57.608C141.565 57.1493 141.645 56.7013 141.805 56.264C141.976 55.8267 142.216 55.4373 142.525 55.096C142.845 54.744 143.218 54.4667 143.645 54.264C144.072 54.0613 144.536 53.96 145.037 53.96C145.474 53.96 145.848 54.0133 146.157 54.12C146.466 54.216 146.776 54.3813 147.085 54.616C147.16 54.68 147.208 54.744 147.229 54.808C147.261 54.8613 147.277 54.9413 147.277 55.048C147.277 55.3147 147.138 55.5867 146.861 55.864C146.658 55.5973 146.397 55.384 146.077 55.224C145.757 55.0533 145.426 54.968 145.085 54.968C144.797 54.968 144.514 55.0267 144.237 55.144C143.96 55.2613 143.714 55.432 143.501 55.656C143.032 56.1467 142.797 56.792 142.797 57.592C142.797 57.912 142.856 58.2213 142.973 58.52C143.09 58.808 143.256 59.064 143.469 59.288C143.682 59.5227 143.938 59.704 144.237 59.832C144.536 59.96 144.856 60.024 145.197 60.024C145.528 60.024 145.81 59.9493 146.045 59.8C146.29 59.6507 146.536 59.4213 146.781 59.112C147.026 59.24 147.197 59.432 147.293 59.688C147.336 59.8267 147.357 59.9813 147.357 60.152C147.357 60.2693 147.272 60.4027 147.101 60.552C146.93 60.7013 146.712 60.8347 146.445 60.952C146.221 61.048 146.008 61.1173 145.805 61.16C145.602 61.2133 145.368 61.24 145.101 61.24ZM153.983 54.008C153.834 54.072 153.626 54.1147 153.359 54.136L152.719 54.168H150.223C150.01 54.168 149.765 54.1573 149.487 54.136C149.349 54.1253 149.173 54.12 148.959 54.12C148.671 54.12 148.485 54.1787 148.399 54.296C148.314 54.4027 148.271 54.5627 148.271 54.776C148.271 54.968 148.335 55.1707 148.463 55.384C148.602 55.3093 148.842 55.2613 149.183 55.24L149.823 55.208H150.655V58.28C150.655 58.5787 150.634 59.016 150.591 59.592C150.549 60.1893 150.527 60.5413 150.527 60.648C150.527 60.7333 150.538 60.808 150.559 60.872C150.613 60.9893 150.831 61.048 151.215 61.048C151.685 61.048 151.973 60.9947 152.079 60.888C151.823 60.248 151.695 59.432 151.695 58.44V55.208H152.255C152.597 55.208 152.831 55.2133 152.959 55.224C153.087 55.2347 153.253 55.24 153.455 55.24C153.733 55.24 153.914 55.1973 153.999 55.112C154.095 55.0267 154.143 54.8773 154.143 54.664C154.143 54.344 154.09 54.1253 153.983 54.008ZM158.112 61.224C157.558 61.224 157.056 61.1707 156.608 61.064C156.16 60.9573 155.83 60.84 155.616 60.712V53.192C155.616 51.912 155.926 50.936 156.544 50.264C156.811 49.9653 157.115 49.7467 157.456 49.608C157.808 49.4587 158.166 49.384 158.528 49.384C158.859 49.384 159.179 49.4427 159.488 49.56C159.808 49.6773 160.091 49.8427 160.336 50.056C160.88 50.5467 161.152 51.1707 161.152 51.928C161.152 52.5467 161.014 53.08 160.736 53.528C160.459 53.9653 160.032 54.3813 159.456 54.776C160.224 54.968 160.795 55.3627 161.168 55.96C161.478 56.4827 161.632 57.0747 161.632 57.736C161.632 58.2267 161.552 58.6853 161.392 59.112C161.232 59.528 160.998 59.8907 160.688 60.2C160.379 60.5307 160.006 60.7867 159.568 60.968C159.131 61.1387 158.646 61.224 158.112 61.224ZM156.8 55.112C157.024 54.984 157.382 54.792 157.872 54.536C158.715 54.1093 159.312 53.6027 159.664 53.016C159.867 52.6853 159.968 52.28 159.968 51.8C159.968 51.416 159.83 51.1013 159.552 50.856C159.286 50.6107 158.955 50.488 158.56 50.488C158.07 50.488 157.67 50.6853 157.36 51.08C156.987 51.56 156.8 52.2693 156.8 53.208V55.112ZM158.016 59.928C158.763 59.928 159.35 59.7307 159.776 59.336C160.214 58.9307 160.432 58.3493 160.432 57.592C160.432 57.0587 160.272 56.6 159.952 56.216C159.6 55.8107 159.126 55.608 158.528 55.608C157.963 55.608 157.387 55.8053 156.8 56.2L156.784 59.544C156.88 59.672 157.04 59.768 157.264 59.832C157.499 59.896 157.75 59.928 158.016 59.928ZM168.198 61.064C167.931 61.064 167.755 61.032 167.67 60.968C167.595 60.904 167.558 60.76 167.558 60.536V60.168C166.843 60.7333 166.107 61.016 165.35 61.016C165.04 61.016 164.747 60.968 164.47 60.872C164.203 60.7653 163.974 60.616 163.782 60.424C163.355 60.0187 163.142 59.496 163.142 58.856C163.142 58.1307 163.435 57.5707 164.022 57.176C164.523 56.8453 165.168 56.68 165.958 56.68C166.502 56.68 167.046 56.7333 167.59 56.84V56.728C167.59 55.5333 166.998 54.936 165.814 54.936C165.174 54.936 164.544 55.1867 163.926 55.688C163.83 55.592 163.75 55.4747 163.686 55.336C163.632 55.1973 163.606 55.0587 163.606 54.92C163.606 54.5787 163.92 54.3173 164.549 54.136C164.987 54.008 165.451 53.944 165.942 53.944C167.019 53.944 167.771 54.248 168.198 54.856C168.539 55.3787 168.71 56.2053 168.71 57.336L168.678 59.256C168.678 59.6187 168.694 59.9227 168.726 60.168C168.768 60.4027 168.832 60.6373 168.918 60.872C168.875 60.9253 168.784 60.968 168.646 61C168.507 61.0427 168.358 61.064 168.198 61.064ZM165.542 59.944C165.862 59.944 166.198 59.864 166.549 59.704C166.912 59.544 167.254 59.3147 167.574 59.016L167.59 57.8C167.142 57.6827 166.614 57.624 166.006 57.624C165.558 57.624 165.19 57.704 164.902 57.864C164.528 58.088 164.342 58.408 164.342 58.824C164.342 59.1973 164.448 59.48 164.662 59.672C164.886 59.8533 165.179 59.944 165.542 59.944Z" fill="#F4656D"/>
<defs>
<clipPath id="clip0">
<rect width="100" height="71.57" fill="white"/>
</clipPath>
</defs>
</svg>
