<svg width="40" height="29" viewBox="0 0 40 29" fill="none" xmlns="http://www.w3.org/2000/svg">
<g clip-path="url(#clip0)">
<path fill-rule="evenodd" clip-rule="evenodd" d="M25.8541 11.6232C25.2818 10.092 25.7396 8.8624 26.6438 8.5608C27.7425 8.2012 29.3104 8.9552 29.4249 10.3588C29.2303 9.9296 29.0358 9.7092 28.7725 9.4888C27.01 8.004 25.3963 9.1292 25.8541 11.6232Z" fill="#008EB3"/>
<path fill-rule="evenodd" clip-rule="evenodd" d="M30.2604 10.9852C31.0844 10.9968 32.6753 11.7856 32.4692 13.8156L32.0115 13.6764C32.2632 11.7276 31.0272 11.4724 30.2604 10.9852Z" fill="#008EB3"/>
<path fill-rule="evenodd" clip-rule="evenodd" d="M26.9757 13.108C26.0029 13.282 24.8126 12.8644 24.3434 11.4724C25.3162 13.2704 28.2232 13.572 27.6853 10.5212C27.731 10.672 27.7654 10.8112 27.7997 10.962C27.8112 10.9968 28.1774 10.7648 28.3949 10.4864C28.1888 11.0548 27.8569 11.1476 27.8569 11.194C27.9943 12.122 27.731 12.9688 26.9757 13.108Z" fill="#008EB3"/>
<path fill-rule="evenodd" clip-rule="evenodd" d="M25.1903 10.962C22.8097 11.948 21.2761 9.47721 22.0086 7.49361C22.97 4.84881 26.186 5.60281 26.4721 7.79521C26.2547 6.85561 25.4421 6.29881 24.8927 6.14801C23.5765 5.78841 22.3977 6.97161 22.2604 8.09681C22.1688 8.86241 22.1345 9.87161 23.2218 10.7764C23.6223 11.078 24.3891 11.31 25.1903 10.962Z" fill="#008EB3"/>
<path fill-rule="evenodd" clip-rule="evenodd" d="M24.9843 8.36362C24.6409 8.38682 24.4349 8.47962 24.4578 8.52602C24.4807 8.60722 24.8126 8.47962 24.9843 8.36362Z" fill="#008EB3"/>
<path fill-rule="evenodd" clip-rule="evenodd" d="M23.3705 9.89481C23.6109 9.65121 23.691 9.3728 23.6452 9.3496C23.5651 9.3148 23.4163 9.68601 23.3705 9.89481Z" fill="#008EB3"/>
<path fill-rule="evenodd" clip-rule="evenodd" d="M25.3391 8.67682C25.1445 9.01322 24.7897 9.18722 24.7897 9.18722C25.1445 9.12922 25.3162 8.89722 25.3391 8.67682Z" fill="#008EB3"/>
<path fill-rule="evenodd" clip-rule="evenodd" d="M24.1946 9.70923C23.9657 10.1848 23.5994 10.266 23.5994 10.266C24 10.2428 24.1717 9.92963 24.1946 9.70923Z" fill="#008EB3"/>
<path fill-rule="evenodd" clip-rule="evenodd" d="M29.4135 12.9108C29.2532 12.818 28.3949 12.8064 28.0058 13.0848L28.681 13.108C28.8756 12.9688 29.1846 12.934 29.4135 12.9108Z" fill="#008EB3"/>
<path fill-rule="evenodd" clip-rule="evenodd" d="M31.7253 21.518C33.9456 22.0748 38.3176 23.2464 40 27.028L39.8169 28.5128C38.2718 23.258 33.2818 22.098 31.7253 21.518Z" fill="#008EB3"/>
<path fill-rule="evenodd" clip-rule="evenodd" d="M31.4277 21.4252C27.1245 20.6248 23.8169 20.0216 22.3863 18.9196C20.9556 17.8176 18.907 15.1148 16.2976 11.3448C19.0443 14.2564 20.9442 17.284 22.7639 18.618C24.5951 19.952 28.7039 20.6016 31.4277 21.4252Z" fill="#008EB3"/>
<path fill-rule="evenodd" clip-rule="evenodd" d="M33.877 13.8852C39.4506 15.2656 40.3433 21.1004 39.8283 26.1348L39.4735 25.3692C40.0801 20.1028 38.8097 15.2888 33.877 13.8852Z" fill="#008EB3"/>
<path fill-rule="evenodd" clip-rule="evenodd" d="M19.422 11.31C19.1702 10.7648 19.1016 10.6488 18.9757 10.2544C18.6323 9.25681 18.4149 8.15481 18.7811 8.13161C19.1359 8.10841 19.731 8.38681 20.269 9.14081C20.8183 9.90641 21.299 11.136 21.6309 12.4932C21.0701 10.7648 20.2232 8.74641 18.9642 8.86241C18.701 8.88561 18.8269 9.55841 19.422 11.31Z" fill="#008EB3"/>
<path fill-rule="evenodd" clip-rule="evenodd" d="M21.8712 12.1568C21.608 10.7532 21.5851 10.2776 21.7568 10.0804C21.9742 9.83681 23.1531 11.0432 23.1302 12.9456C23.0157 11.658 22.329 10.788 21.9742 10.8112C21.7911 10.8344 21.8598 11.194 21.8712 12.1568Z" fill="#008EB3"/>
<path fill-rule="evenodd" clip-rule="evenodd" d="M24.6753 14.0128C24.206 12.6672 30.8097 12.876 33.465 13.8156C31.5193 13.224 25.4306 13.05 24.6753 14.0128Z" fill="#008EB3"/>
<path fill-rule="evenodd" clip-rule="evenodd" d="M16.3323 11.0432C17.0304 9.686 18.667 11.4608 20.235 12.9688C21.0819 13.7808 21.8602 14.5464 22.1806 14.8596C22.8902 15.544 23.8058 16.2864 24.4467 16.7156C26.1062 17.8176 29.3452 18.4556 31.3366 16.994C29.0819 18.1888 26.358 17.5972 24.6642 16.588C22.0662 15.0336 18.5755 10.5096 17.0648 10.324C16.8587 10.3008 16.2636 10.3588 16.3323 11.0432Z" fill="#008EB3"/>
<path fill-rule="evenodd" clip-rule="evenodd" d="M24.6523 14.1404C24.5951 14.7436 25.3619 15.1032 26.6438 15.2888C28.2461 15.5208 30.1917 15.486 31.0844 15.834C31.5651 16.0196 31.5079 16.5184 31.4621 16.7852C31.6338 16.4024 31.588 16.0544 31.3934 15.8688C30.5465 15.0568 25.6938 15.6484 24.6523 14.1404Z" fill="#008EB3"/>
<path fill-rule="evenodd" clip-rule="evenodd" d="M10.5866 4.9996C8.64092 6.2176 4.74964 8.54921 0.915594 7.1108L0 5.9392C4.77253 8.51441 9.09871 5.7188 10.5866 4.9996Z" fill="#008EB3"/>
<path fill-rule="evenodd" clip-rule="evenodd" d="M10.8612 4.84881C14.4435 2.29681 17.1788 0.324807 18.9642 0.0696067C20.7496 -0.185593 24.0801 0.220407 28.5665 0.986007C24.5951 0.928007 21.1273 0.185607 18.9185 0.556807C16.6867 0.939607 13.3562 3.45681 10.8612 4.84881Z" fill="#008EB3"/>
<path fill-rule="evenodd" clip-rule="evenodd" d="M14.4549 11.9016C9.85406 12.876 8.32044 12.9108 3.61658 10.15L4.48639 10.1036C9.35048 13.1196 9.67094 12.586 14.4549 11.9016Z" fill="#008EB3"/>
<path fill-rule="evenodd" clip-rule="evenodd" d="M26.4034 3.25961C26.9642 3.46841 27.0901 3.49161 27.4564 3.67721C28.3948 4.12961 29.3219 4.74441 29.093 5.02281C28.8641 5.28961 28.2461 5.53321 27.3419 5.39401C26.4263 5.25481 25.2132 4.74441 24.0343 4.03681C25.6481 4.84881 27.6509 5.64921 28.4521 4.66321C28.6123 4.44281 28.0401 4.04841 26.4034 3.25961Z" fill="#008EB3"/>
<path fill-rule="evenodd" clip-rule="evenodd" d="M24.0801 4.44281C25.2475 5.24321 25.6023 5.54481 25.6137 5.81161C25.6252 6.13641 23.9542 6.14801 22.6266 4.80241C23.6109 5.62601 24.7096 5.74201 24.9385 5.46361C25.0758 5.31281 24.7668 5.10401 24.0801 4.44281Z" fill="#008EB3"/>
<path fill-rule="evenodd" clip-rule="evenodd" d="M20.8069 5.16202C22.0887 5.76522 17.3162 10.3936 14.7754 11.6464C16.5722 10.6604 20.9556 6.38002 20.8069 5.16202Z" fill="#008EB3"/>
<path fill-rule="evenodd" clip-rule="evenodd" d="M28.7497 1.20639C29.2189 2.66799 26.8155 2.59839 24.6524 2.66799C23.4964 2.70279 22.3977 2.73759 21.9628 2.74919C20.9786 2.77239 19.8112 2.92319 19.0673 3.08559C17.1331 3.51479 14.4092 5.40559 14.0429 7.87639C14.7869 5.40559 17.1102 3.85119 19.01 3.34079C21.9285 2.55199 27.5594 3.20159 28.7382 2.23879C28.8985 2.11119 29.2761 1.64719 28.7497 1.20639Z" fill="#008EB3"/>
<path fill-rule="evenodd" clip-rule="evenodd" d="M20.7382 5.0576C20.3491 4.5936 19.5708 4.8952 18.5293 5.684C17.2361 6.6932 15.9085 8.12 15.0386 8.526C14.5694 8.7464 14.2604 8.352 14.1002 8.1316C14.2489 8.526 14.5351 8.7348 14.7869 8.7232C15.9657 8.6768 18.9414 4.756 20.7382 5.0576Z" fill="#008EB3"/>
</g>
<defs>
<clipPath id="clip0">
<rect width="40" height="29" fill="white"/>
</clipPath>
</defs>
</svg>
