<svg width="100" height="72" viewBox="0 0 100 72" fill="none" xmlns="http://www.w3.org/2000/svg">
<g clip-path="url(#clip0)">
<path fill-rule="evenodd" clip-rule="evenodd" d="M64.6352 28.6852C63.2046 24.9063 64.3491 21.8718 66.6094 21.1274C69.3562 20.24 73.2761 22.1008 73.5622 25.5648C73.0758 24.5055 72.5894 23.9616 71.9313 23.4177C67.525 19.7533 63.4907 22.5302 64.6352 28.6852Z" fill="#F4656D"/>
<path fill-rule="evenodd" clip-rule="evenodd" d="M75.6514 27.1107C77.7115 27.1393 81.6886 29.086 81.1736 34.0959L80.0291 33.7524C80.6585 28.9429 77.5684 28.3131 75.6514 27.1107Z" fill="#F4656D"/>
<path fill-rule="evenodd" clip-rule="evenodd" d="M67.4392 32.3496C65.0072 32.779 62.0315 31.7484 60.8584 28.3131C63.2904 32.7504 70.558 33.4947 69.2132 25.9656C69.3276 26.3377 69.4135 26.6813 69.4993 27.0534C69.5279 27.1393 70.4435 26.5668 70.9872 25.8797C70.4721 27.2825 69.6424 27.5115 69.6424 27.626C69.9857 29.9162 69.3276 32.0061 67.4392 32.3496Z" fill="#F4656D"/>
<path fill-rule="evenodd" clip-rule="evenodd" d="M62.9759 27.0535C57.0246 29.4868 53.1905 23.3891 55.0217 18.4937C57.4251 11.9665 65.4652 13.8273 66.1805 19.238C65.6369 16.9191 63.6054 15.545 62.232 15.1728C58.9416 14.2854 55.9945 17.2054 55.6512 19.9823C55.4223 21.8718 55.3364 24.3624 58.0546 26.5954C59.056 27.3397 60.9731 27.9123 62.9759 27.0535Z" fill="#F4656D"/>
<path fill-rule="evenodd" clip-rule="evenodd" d="M62.4611 20.6407C61.6027 20.698 61.0877 20.927 61.1449 21.0415C61.2022 21.2419 62.0319 20.927 62.4611 20.6407Z" fill="#F4656D"/>
<path fill-rule="evenodd" clip-rule="evenodd" d="M58.4268 24.4196C59.0276 23.8184 59.2279 23.1314 59.1135 23.0741C58.9132 22.9882 58.5412 23.9043 58.4268 24.4196Z" fill="#F4656D"/>
<path fill-rule="evenodd" clip-rule="evenodd" d="M63.348 21.4138C62.8616 22.244 61.9746 22.6734 61.9746 22.6734C62.8616 22.5303 63.2908 21.9577 63.348 21.4138Z" fill="#F4656D"/>
<path fill-rule="evenodd" clip-rule="evenodd" d="M60.4869 23.9617C59.9146 25.1354 58.999 25.3358 58.999 25.3358C60.0005 25.2786 60.4296 24.5056 60.4869 23.9617Z" fill="#F4656D"/>
<path fill-rule="evenodd" clip-rule="evenodd" d="M73.5339 31.863C73.1334 31.6339 70.9875 31.6053 70.0146 32.2924L71.7028 32.3496C72.1892 32.0061 72.9617 31.9202 73.5339 31.863Z" fill="#F4656D"/>
<path fill-rule="evenodd" clip-rule="evenodd" d="M79.3135 53.1049C84.8643 54.4791 95.7942 57.3705 100 66.7032L99.5424 70.3676C95.6797 57.3991 83.2048 54.5363 79.3135 53.1049Z" fill="#F4656D"/>
<path fill-rule="evenodd" clip-rule="evenodd" d="M78.5696 52.8759C67.8114 50.9006 59.5424 49.4119 55.9659 46.6923C52.3893 43.9726 47.2677 37.3023 40.7441 27.9982C47.6111 35.1838 52.3607 42.6557 56.9101 45.9479C61.4881 49.2401 71.7599 50.8433 78.5696 52.8759Z" fill="#F4656D"/>
<path fill-rule="evenodd" clip-rule="evenodd" d="M84.6924 34.2677C98.6266 37.6745 100.858 52.0743 99.5708 64.4989L98.6838 62.6095C100.2 49.6123 97.0243 37.7317 84.6924 34.2677Z" fill="#F4656D"/>
<path fill-rule="evenodd" clip-rule="evenodd" d="M48.5553 27.9123C47.9259 26.5668 47.7542 26.2805 47.4395 25.3071C46.5811 22.8451 46.0375 20.1255 46.953 20.0682C47.84 20.011 49.3279 20.698 50.6726 22.5589C52.046 24.4483 53.2477 27.4829 54.0775 30.8324C52.6755 26.5668 50.5582 21.5855 47.4108 21.8718C46.7528 21.929 47.0675 23.5895 48.5553 27.9123Z" fill="#F4656D"/>
<path fill-rule="evenodd" clip-rule="evenodd" d="M54.6782 30.0022C54.0201 26.5382 53.9629 25.3644 54.3921 24.8777C54.9357 24.2765 57.8828 27.2539 57.8256 31.9489C57.5394 28.7711 55.8227 26.624 54.9357 26.6813C54.4779 26.7386 54.6496 27.626 54.6782 30.0022Z" fill="#F4656D"/>
<path fill-rule="evenodd" clip-rule="evenodd" d="M61.6883 34.5826C60.5152 31.2618 77.0245 31.7771 83.6626 34.0959C78.7985 32.6359 63.5767 32.2065 61.6883 34.5826Z" fill="#F4656D"/>
<path fill-rule="evenodd" clip-rule="evenodd" d="M40.8301 27.2539C42.5755 23.9044 46.667 28.2845 50.5869 32.0061C52.7042 34.0101 54.6499 35.8995 55.451 36.6725C57.225 38.3615 59.514 40.1937 61.1162 41.253C65.265 43.9726 73.3623 45.5472 78.3408 41.94C72.7042 44.8887 65.8945 43.4287 61.6599 40.9381C55.1649 37.1019 46.4381 25.937 42.6613 25.4789C42.1463 25.4217 40.6584 25.5648 40.8301 27.2539Z" fill="#F4656D"/>
<path fill-rule="evenodd" clip-rule="evenodd" d="M61.631 34.8976C61.488 36.3862 63.405 37.2737 66.6096 37.7317C70.6153 38.3043 75.4794 38.2184 77.7111 39.0772C78.9129 39.5353 78.7698 40.7663 78.6553 41.4247C79.0845 40.48 78.9701 39.6212 78.4837 39.1631C76.3664 37.1592 64.2347 38.6192 61.631 34.8976Z" fill="#F4656D"/>
<path fill-rule="evenodd" clip-rule="evenodd" d="M26.4664 12.3387C21.6023 15.3446 11.8741 21.0989 2.28898 17.549L0 14.6576C11.9313 21.013 22.7468 14.1136 26.4664 12.3387Z" fill="#F4656D"/>
<path fill-rule="evenodd" clip-rule="evenodd" d="M27.1533 11.9661C36.109 5.66797 42.9473 0.801206 47.4108 0.17139C51.8743 -0.458426 60.2005 0.543554 71.4165 2.433C61.4881 2.28986 52.8185 0.45767 47.2964 1.37377C41.717 2.31849 33.3908 8.53077 27.1533 11.9661Z" fill="#F4656D"/>
<path fill-rule="evenodd" clip-rule="evenodd" d="M36.1373 29.3723C24.6352 31.7771 20.8012 31.863 9.0415 25.0495L11.216 24.935C23.3763 32.3783 24.1774 31.0614 36.1373 29.3723Z" fill="#F4656D"/>
<path fill-rule="evenodd" clip-rule="evenodd" d="M66.0087 8.04449C67.4107 8.5598 67.7254 8.61705 68.641 9.0751C70.9872 10.1916 73.3048 11.7089 72.7326 12.396C72.1603 13.0544 70.6153 13.6556 68.3549 13.312C66.0659 12.9685 63.033 11.7089 60.0859 9.96257C64.1203 11.9665 69.1274 13.9419 71.1303 11.5085C71.5309 10.9646 70.1002 9.9912 66.0087 8.04449Z" fill="#F4656D"/>
<path fill-rule="evenodd" clip-rule="evenodd" d="M60.2002 10.9645C63.1186 12.9399 64.0056 13.6842 64.0342 14.3426C64.0628 15.1442 59.8854 15.1729 56.5664 11.852C59.0271 13.8846 61.7739 14.1709 62.3461 13.4838C62.6894 13.1116 61.9169 12.5963 60.2002 10.9645Z" fill="#F4656D"/>
<path fill-rule="evenodd" clip-rule="evenodd" d="M52.0172 12.7394C55.2217 14.2281 43.2904 25.6507 36.9385 28.7425C41.4306 26.3091 52.3891 15.7454 52.0172 12.7394Z" fill="#F4656D"/>
<path fill-rule="evenodd" clip-rule="evenodd" d="M71.8742 2.97729C73.0473 6.58442 67.0388 6.41266 61.631 6.58442C58.7412 6.67031 55.9944 6.75619 54.9071 6.78482C52.4465 6.84208 49.528 7.21424 47.6682 7.61503C42.8327 8.67427 36.023 13.3406 35.1074 19.4384C36.9672 13.3406 42.7755 9.50448 47.5252 8.24485C54.8213 6.29814 68.8986 7.90131 71.8456 5.52519C72.2462 5.21028 73.1904 4.06516 71.8742 2.97729Z" fill="#F4656D"/>
<path fill-rule="evenodd" clip-rule="evenodd" d="M51.8456 12.4818C50.8728 11.3367 48.9272 12.081 46.3235 14.0277C43.0903 16.5183 39.7712 20.0396 37.5967 21.0415C36.4236 21.5855 35.6511 20.6121 35.2505 20.0682C35.6224 21.0415 36.3378 21.5569 36.9672 21.5282C39.9143 21.4137 47.3535 11.7374 51.8456 12.4818Z" fill="#F4656D"/>
</g>
<defs>
<clipPath id="clip0">
<rect width="100" height="71.57" fill="white"/>
</clipPath>
</defs>
</svg>
